<?xml version="1.0" standalone="no"?>
<!DOCTYPE svg PUBLIC "-//W3C//DTD SVG 1.1//EN" "http://www.w3.org/Graphics/SVG/1.1/DTD/svg11.dtd" >
<svg xmlns="http://www.w3.org/2000/svg" xmlns:xlink="http://www.w3.org/1999/xlink" version="1.1">
<metadata>
Created by FontForge 20201107 at Tue Jan 18 15:06:29 2022
 By 
Copyright (c) 2021 by Nico Inosanto. All rights reserved.
</metadata>
<defs>
<font id="TBCX-Regular" horiz-adv-x="585" >
  <font-face 
    font-family="TBC X"
    font-weight="400"
    font-stretch="normal"
    units-per-em="1000"
    panose-1="0 0 5 0 0 0 0 0 0 0"
    ascent="800"
    descent="-200"
    x-height="510"
    cap-height="748"
    bbox="-331 -292 1185 1063"
    underline-thickness="50"
    underline-position="-100"
    unicode-range="U+000D-FB02"
  />
<missing-glyph horiz-adv-x="697" 
d="M78 748h541v-748h-541v748zM350 430l156 256h-313zM310 373l-166 265v-530zM553 113v521l-162 -261zM505 62l-155 255l-155 -255h310z" />
    <glyph glyph-name=".notdef" horiz-adv-x="697" 
d="M78 748h541v-748h-541v748zM350 430l156 256h-313zM310 373l-166 265v-530zM553 113v521l-162 -261zM505 62l-155 255l-155 -255h310z" />
    <glyph glyph-name="glyph1" horiz-adv-x="594" 
 />
    <glyph glyph-name="nonmarkingreturn" unicode="&#xd;" horiz-adv-x="594" 
 />
    <glyph glyph-name="space" unicode=" " horiz-adv-x="235" 
 />
    <glyph glyph-name="exclam" unicode="!" horiz-adv-x="274" 
d="M86 748h100l-5 -546h-91zM178.5 91.5q17.5 -17.5 17.5 -42.5t-17.5 -42t-42.5 -17q-24 0 -41.5 17t-17.5 42t17.5 42.5t41.5 17.5q25 0 42.5 -17.5z" />
    <glyph glyph-name="quotedbl" unicode="&#x22;" horiz-adv-x="326" 
d="M42 748h91l-11 -241h-70zM193 748h91l-11 -241h-70z" />
    <glyph glyph-name="numbersign" unicode="#" horiz-adv-x="630" 
d="M478 748h75l-49 -206h120l-17 -70h-120l-47 -198h126l-16 -69h-126l-49 -205h-76l49 205h-148l-49 -205h-76l49 205h-119l16 69h120l47 198h-125l16 70h125l50 206h75l-49 -206h148zM365 274l47 198h-149l-47 -198h149z" />
    <glyph glyph-name="dollar" unicode="$" horiz-adv-x="650" 
d="M535.5 52q-64.5 -54 -168.5 -61v-109h-73v110q-106 9 -172.5 65.5t-71.5 150.5l93 5q5 -65 58.5 -104t133.5 -39q78 0 125.5 32t47.5 97q0 43 -22.5 67.5t-60.5 37.5t-116 31q-80 20 -130 41.5t-80.5 62t-30.5 107.5q0 86 58 145t168 66v108h73v-110q93 -11 150 -64.5
t61 -140.5l-92 -5q-4 62 -48 97.5t-115 35.5q-78 0 -120 -36t-42 -93q0 -42 21 -66.5t56.5 -37t104.5 -27.5q89 -21 143.5 -45t84 -64t29.5 -104q0 -99 -64.5 -153z" />
    <glyph glyph-name="percent" unicode="%" horiz-adv-x="834" 
d="M316.5 709.5q45.5 -48.5 45.5 -129.5q0 -53 -21 -94t-58 -63t-84 -22t-84.5 22t-58.5 63t-21 94q0 81 46 129.5t118 48.5t117.5 -48.5zM642 748h78l-529 -748h-77zM127 664.5q-28 -31.5 -28 -84.5q0 -54 28 -86t71 -32q44 0 72 32t28 86t-28 85t-72 31q-43 0 -71 -31.5z
M752 298.5q46 -48.5 46 -129.5q0 -53 -21 -94t-58.5 -63t-84.5 -22q-46 0 -83.5 22t-58.5 63t-21 94q0 81 46 129.5t117 48.5q72 0 118 -48.5zM562.5 254.5q-27.5 -31.5 -27.5 -85.5t28 -85.5t71 -31.5q44 0 71.5 31t27.5 86t-27.5 86t-71.5 31t-71.5 -31.5z" />
    <glyph glyph-name="ampersand" unicode="&#x26;" horiz-adv-x="691" 
d="M696 59l-56 -69l-125 112q-95 -111 -232 -111q-77 0 -132 27t-83.5 75t-28.5 108q0 71 34 122.5t97 94.5q-64 73 -64 151q0 91 55.5 140t147.5 49q81 0 136 -45t65 -124l-88 -6q-7 46 -36.5 71t-76.5 25q-52 0 -82 -28t-30 -81q0 -33 14.5 -60t34 -46.5t66.5 -61.5
l191 -170q35 67 60 163l81 -22q-33 -118 -79 -197zM454 157l-207 186l-25 23q-44 -30 -67 -68t-23 -89q0 -64 41 -102t112 -38q97 0 169 88z" />
    <glyph glyph-name="quotesingle" unicode="'" horiz-adv-x="175" 
d="M42 748h91l-11 -241h-70z" />
    <glyph glyph-name="parenleft" unicode="(" horiz-adv-x="316" 
d="M279 731q-70 -81 -113 -183t-43 -218t43 -217.5t113 -182.5l-74 -28q-75 86 -121.5 195t-46.5 233t46.5 233.5t121.5 194.5z" />
    <glyph glyph-name="parenright" unicode=")" horiz-adv-x="316" 
d="M112 758q75 -84 121 -194t46 -234t-46 -233.5t-121 -194.5l-75 28q70 82 113 183.5t43 216.5t-43 217t-113 184z" />
    <glyph glyph-name="asterisk" unicode="*" horiz-adv-x="347" 
d="M149 757h49l-1 -124l117 40l16 -47l-118 -38l74 -98l-41 -30l-71 101l-72 -102l-40 31l73 98l-118 38l16 47l117 -40z" />
    <glyph glyph-name="plus" unicode="+" horiz-adv-x="541" 
d="M228 607h84v-198h198v-78h-198v-204h-84v204h-199v78h199v198z" />
    <glyph glyph-name="comma" unicode="," horiz-adv-x="211" 
d="M146.5 90q14.5 -18 14.5 -49q0 -130 -112 -195v38q52 42 58 107q-23 0 -40 17t-17 41q0 25 16 42t40 17q26 0 40.5 -18z" />
    <glyph glyph-name="hyphen" unicode="-" horiz-adv-x="397" 
d="M42 322h313v-81h-313v81z" />
    <glyph glyph-name="period" unicode="." horiz-adv-x="211" 
d="M147.5 91.5q17.5 -17.5 17.5 -42.5t-17.5 -42t-43.5 -17q-23 0 -40.5 17.5t-17.5 41.5q0 25 17 42.5t41 17.5q26 0 43.5 -17.5z" />
    <glyph glyph-name="slash" unicode="/" horiz-adv-x="359" 
d="M263 748h89l-254 -815h-91z" />
    <glyph glyph-name="zero" unicode="0" horiz-adv-x="638" 
d="M461.5 713.5q60.5 -44.5 93.5 -131t33 -208.5t-33 -208t-93.5 -131t-141.5 -45q-82 0 -143 45t-94 131t-33 208t33 208.5t94 131t143 44.5q81 0 141.5 -44.5zM188 599q-45 -77 -45 -225t45 -225t131 -77t131.5 77t45.5 225t-45.5 225t-131.5 77t-131 -77z" />
    <glyph glyph-name="one" unicode="1" horiz-adv-x="366" 
d="M210 748h67v-748h-90v625l-135 -103l-42 73z" />
    <glyph glyph-name="two" unicode="2" horiz-adv-x="530" 
d="M431 702q56 -56 56 -154q0 -86 -37.5 -154t-109.5 -143l-162 -170h317v-81h-442v74l219 231q69 72 96 121.5t27 117.5q0 61 -31.5 96.5t-89.5 35.5q-64 0 -97.5 -39t-34.5 -111l-91 5q2 107 60 167t162 60q102 0 158 -56z" />
    <glyph glyph-name="three" unicode="3" horiz-adv-x="551" 
d="M430.5 702.5q57.5 -55.5 57.5 -149.5q0 -63 -30 -105.5t-77 -60.5q56 -13 91 -59t35 -117q0 -67 -29 -117t-81.5 -77t-121.5 -27q-107 0 -167.5 58.5t-68.5 161.5l91 5q7 -69 43.5 -106t101.5 -37q66 0 103 37.5t37 102.5q0 66 -40 100t-108 34h-74v81h73q57 0 93.5 34
t36.5 92q0 59 -33 91t-90 32q-58 0 -92.5 -35t-39.5 -99l-90 4q4 99 62 155.5t160 56.5q100 0 157.5 -55.5z" />
    <glyph glyph-name="four" unicode="4" horiz-adv-x="590" 
d="M363 748h76v-489h129v-82h-129v-177h-89v177h-326v75zM350 259v324l-225 -324h225z" />
    <glyph glyph-name="five" unicode="5" horiz-adv-x="553" 
d="M401.5 431.5q50.5 -27.5 79 -79.5t28.5 -123t-28 -125t-81 -84t-126 -30q-105 0 -165 57t-68 157l91 5q7 -65 43 -101t100 -36q68 0 105.5 43t37.5 112q0 68 -38.5 109.5t-102.5 41.5q-67 0 -125 -45h-84v415h413v-80h-323v-245q57 36 128 36q65 0 115.5 -27.5z" />
    <glyph glyph-name="six" unicode="6" horiz-adv-x="586" 
d="M423 447.5q57 -30.5 89.5 -86t32.5 -128.5q0 -72 -32.5 -127.5t-89.5 -85.5t-128 -30q-72 0 -129 30t-89.5 85t-32.5 128q0 86 51 155l269 360h108l-202 -271q8 1 25 1q71 0 128 -30.5zM408.5 117q44.5 45 44.5 119t-44.5 118t-113.5 44q-82 0 -126 -56q-32 -41 -32 -106
q0 -75 44 -119.5t114 -44.5q69 0 113.5 45z" />
    <glyph glyph-name="seven" unicode="7" horiz-adv-x="534" 
d="M20 748h492v-74l-351 -674h-101l351 668h-391v80z" />
    <glyph glyph-name="eight" unicode="8" horiz-adv-x="593" 
d="M411 734q51 -24 80.5 -70t29.5 -107q0 -57 -28 -99t-73 -63q54 -23 86.5 -71t32.5 -115t-31.5 -116.5t-86.5 -76t-125 -26.5q-69 0 -124.5 26.5t-87 76.5t-31.5 116t32.5 114t86.5 71q-46 20 -73.5 62.5t-27.5 100.5q0 62 29 107.5t80 69.5t116 24q64 0 115 -24zM200 643
q-38 -33 -38 -90q0 -56 38 -89t97 -33q58 0 96 33t38 89q0 57 -38 90t-96 33q-59 0 -97 -33zM187 313.5q-43 -37.5 -43 -101.5t43 -102t109 -38t109 38t43 102t-43 101.5t-109 37.5t-109 -37.5z" />
    <glyph glyph-name="nine" unicode="9" horiz-adv-x="586" 
d="M426 728q57 -30 89.5 -85t32.5 -128q0 -86 -51 -155l-269 -360h-108l202 271q-8 -1 -25 -1q-71 0 -128 30.5t-89.5 86t-32.5 128.5q0 72 32.5 127.5t89.5 85.5t128 30q72 0 129 -30zM423 406q32 41 32 106q0 75 -44 119.5t-114 44.5q-69 0 -113.5 -45t-44.5 -119
t44.5 -118t113.5 -44q82 0 126 56z" />
    <glyph glyph-name="colon" unicode=":" horiz-adv-x="211" 
d="M147.5 91.5q17.5 -17.5 17.5 -42.5t-17.5 -42t-43.5 -17q-23 0 -40.5 17.5t-17.5 41.5q0 25 17 42.5t41 17.5q26 0 43.5 -17.5zM147.5 501.5q17.5 -17.5 17.5 -42.5t-17.5 -42t-43.5 -17q-23 0 -40.5 17.5t-17.5 41.5q0 25 17 42.5t41 17.5q26 0 43.5 -17.5z" />
    <glyph glyph-name="semicolon" unicode=";" horiz-adv-x="211" 
d="M147.5 501.5q17.5 -17.5 17.5 -42.5t-17.5 -42t-43.5 -17q-23 0 -40.5 17.5t-17.5 41.5q0 25 17 42.5t41 17.5q26 0 43.5 -17.5zM146.5 90q14.5 -18 14.5 -49q0 -130 -112 -195v38q52 42 58 107q-23 0 -40 17t-17 41q0 25 16 42t40 17q26 0 40.5 -18z" />
    <glyph glyph-name="less" unicode="&#x3c;" horiz-adv-x="512" 
d="M25 369l456 232l2 -97l-288 -135l288 -135l-2 -97z" />
    <glyph glyph-name="equal" unicode="=" horiz-adv-x="541" 
d="M29 529h481v-82h-481v82zM29 289h481v-81h-481v81z" />
    <glyph glyph-name="greater" unicode="&#x3e;" horiz-adv-x="512" 
d="M29 504l2 97l457 -232l-457 -232l-2 97l288 135z" />
    <glyph glyph-name="question" unicode="?" horiz-adv-x="536" 
d="M392 731.5q52 -27.5 79.5 -76.5t27.5 -112q0 -61 -26 -99t-80 -77q-45 -34 -64 -64t-19 -73v-28h-91v32q0 50 22.5 87t73.5 78q46 33 68 65t22 78q0 60 -36 98t-100 38t-100.5 -34t-42.5 -95l-92 6q7 94 69.5 149t165.5 55q71 0 123 -27.5zM305.5 91.5
q17.5 -17.5 17.5 -42.5t-17.5 -42t-42.5 -17q-24 0 -41.5 17t-17.5 42t17.5 42.5t41.5 17.5q25 0 42.5 -17.5z" />
    <glyph glyph-name="at" unicode="@" horiz-adv-x="863" 
d="M626.5 606q86.5 -49 136 -135.5t49.5 -194.5q0 -98 -43.5 -150.5t-119.5 -52.5q-37 0 -61 15.5t-33 45.5q-46 -64 -140 -64q-84 0 -136 56t-52 152t52 152.5t136 56.5q50 0 85.5 -18t52.5 -49v55h63v-289q0 -56 48 -56q42 0 68 38.5t26 107.5q0 92 -42.5 167t-117 117.5
t-166.5 42.5q-94 0 -168.5 -42.5t-116.5 -117.5t-42 -167q0 -95 43 -169t116.5 -115.5t162.5 -41.5q58 0 102 12.5t84 37.5l15 -50q-44 -27 -90.5 -40t-110.5 -13q-105 0 -191 48.5t-135.5 135t-49.5 195.5q0 108 49 194.5t136 135.5t196 49q108 0 194.5 -49zM516 164.5
q34 35.5 34 102.5v23q0 66 -34 101.5t-91 35.5q-59 0 -94.5 -39t-35.5 -110q0 -70 36 -109.5t94 -39.5q57 0 91 35.5z" />
    <glyph glyph-name="A" unicode="A" horiz-adv-x="729" 
d="M325 748h78l313 -748h-100l-77 190h-350l-77 -190h-100zM505 271l-140 342l-141 -342h281z" />
    <glyph glyph-name="B" unicode="B" horiz-adv-x="670" 
d="M367 748q100 0 161.5 -51.5t61.5 -147.5q0 -59 -23.5 -99.5t-61.5 -59.5q51 -17 84 -64t33 -119q0 -101 -63.5 -154t-165.5 -53h-306v748h280zM178 668v-245h203q54 0 85 29t31 91q0 61 -38.5 93t-102.5 32h-178zM178 344v-263h204q65 0 106 32.5t41 98.5q0 67 -40 99.5
t-99 32.5h-212z" />
    <glyph glyph-name="C" unicode="C" horiz-adv-x="803" 
d="M229.5 37q-83.5 47 -131 134t-47.5 203t47.5 203t130.5 134t187 47q88 0 162 -33.5t122 -96.5t59 -147l-95 -9q-14 96 -82 150t-167 54q-76 0 -137.5 -36.5t-97.5 -105t-36 -160.5q0 -93 35 -161t96.5 -104.5t140.5 -36.5q98 0 165 50.5t83 142.5l96 -8
q-14 -82 -61.5 -142t-120.5 -92.5t-161 -32.5q-104 0 -187.5 47z" />
    <glyph glyph-name="D" unicode="D" horiz-adv-x="790" 
d="M380 748q103 0 184.5 -44.5t128 -129.5t46.5 -200t-47 -199.5t-129 -129.5t-185 -45h-291v748h293zM178 670v-592h200q79 0 140 34t95.5 101t34.5 161t-34 161t-94.5 101t-139.5 34h-202z" />
    <glyph glyph-name="E" unicode="E" horiz-adv-x="592" 
d="M87 748h463v-80h-371v-242h327v-79h-327v-266h371v-81h-463v748z" />
    <glyph glyph-name="F" unicode="F" horiz-adv-x="577" 
d="M87 748h463v-80h-371v-246h309v-81h-309v-341h-92v748z" />
    <glyph glyph-name="G" unicode="G" horiz-adv-x="809" 
d="M417 380h344v-31q0 -110 -42 -191t-120 -124.5t-183 -43.5q-104 0 -187 46t-130.5 133t-47.5 205q0 119 47 205.5t129.5 132.5t187.5 46q86 0 158 -31.5t120 -91.5t62 -142l-94 -15q-14 92 -81 145t-165 53q-80 0 -141.5 -34.5t-96 -102.5t-34.5 -165t34.5 -165
t96 -102.5t141.5 -34.5q105 0 171.5 57t77.5 170h-247v81z" />
    <glyph glyph-name="H" unicode="H" horiz-adv-x="747" 
d="M569 748h91v-748h-91v347h-390v-347h-92v748h92v-320h390v320z" />
    <glyph glyph-name="I" unicode="I" horiz-adv-x="266" 
d="M87 748h92v-748h-92v748z" />
    <glyph glyph-name="J" unicode="J" horiz-adv-x="573" 
d="M492 237q0 -118 -62 -182.5t-171 -64.5q-106 0 -169.5 62.5t-69.5 170.5l92 15q4 -79 42.5 -122.5t104.5 -43.5q67 0 104 42t37 121v513h92v-511z" />
    <glyph glyph-name="K" unicode="K" horiz-adv-x="670" 
d="M498 748h118l-286 -318l327 -430h-114l-274 358l-90 -101v-257h-92v748h92v-355z" />
    <glyph glyph-name="L" unicode="L" horiz-adv-x="576" 
d="M87 748h92v-667h375v-81h-467v748z" />
    <glyph glyph-name="M" unicode="M" horiz-adv-x="955" 
d="M789 748h79v-748h-91v546l-268 -541h-60l-270 541v-546h-92v748h80l311 -612z" />
    <glyph glyph-name="N" unicode="N" horiz-adv-x="744" 
d="M565 748h92v-748h-77l-401 578v-578h-92v748h77l401 -579v579z" />
    <glyph glyph-name="O" unicode="O" horiz-adv-x="844" 
d="M611.5 711q84.5 -47 133 -134t48.5 -203t-48.5 -203t-133 -134t-189.5 -47t-189.5 47t-133 134t-48.5 203t48.5 203t133 134t189.5 47t189.5 -47zM279.5 640q-63.5 -36 -100 -104.5t-36.5 -161.5t36.5 -161t100 -104.5t142.5 -36.5t142 36.5t99.5 104.5t36.5 161
t-36.5 161.5t-99.5 104.5t-142 36t-142.5 -36z" />
    <glyph glyph-name="P" unicode="P" horiz-adv-x="643" 
d="M380 748q66 0 118 -26t82 -77t30 -124q0 -72 -30 -123t-82 -77t-118 -26h-201v-295h-92v748h293zM178 668v-292h191q64 0 105.5 37.5t41.5 107.5q0 72 -41.5 109.5t-105.5 37.5h-191z" />
    <glyph glyph-name="Q" unicode="Q" horiz-adv-x="862" 
d="M849 -11l-63 -66l-138 137q-47 -34 -104.5 -52t-121.5 -18q-105 0 -189.5 47t-133 134t-48.5 203t48.5 203t133 134t189.5 47t189.5 -47t133 -134t48.5 -203q0 -150 -80 -250zM586 122l-145 144l64 65l144 -143q51 77 51 186q0 93 -36.5 161.5t-99.5 104.5t-142 36
t-142.5 -36t-100 -104.5t-36.5 -161.5t36.5 -161t100 -104.5t142.5 -36.5q94 0 164 50z" />
    <glyph glyph-name="R" unicode="R" horiz-adv-x="680" 
d="M645 0h-103l-167 299h-196v-299h-92v748h289q66 0 118 -25.5t82 -76t30 -122.5q0 -80 -36.5 -133.5t-99.5 -76.5zM178 381h187q64 0 105.5 36.5t41.5 106.5t-41.5 107t-105.5 37h-187v-287z" />
    <glyph glyph-name="S" unicode="S" horiz-adv-x="647" 
d="M503.5 702.5q70.5 -55.5 74.5 -152.5l-92 -5q-4 62 -48 97.5t-115 35.5q-78 0 -120 -36t-42 -93q0 -42 21 -66.5t56.5 -37t104.5 -27.5q89 -21 143.5 -45t84 -64t29.5 -104q0 -106 -74.5 -160.5t-190.5 -54.5q-122 0 -200.5 57.5t-84.5 160.5l93 5q5 -65 58.5 -104
t133.5 -39q78 0 125.5 32t47.5 97q0 43 -22.5 67.5t-60.5 37.5t-116 31q-80 20 -130 41.5t-80.5 62t-30.5 107.5q0 59 28.5 107t85.5 76.5t139 28.5q112 0 182.5 -55.5z" />
    <glyph glyph-name="T" unicode="T" horiz-adv-x="693" 
d="M22 748h648v-80h-278v-668h-91v668h-279v80z" />
    <glyph glyph-name="U" unicode="U" horiz-adv-x="758" 
d="M677 281q0 -140 -80 -215.5t-218 -75.5q-139 0 -218.5 75.5t-79.5 215.5v467h91v-466q0 -103 54.5 -156.5t152.5 -53.5q97 0 152 54t55 156v466h91v-467z" />
    <glyph glyph-name="V" unicode="V" horiz-adv-x="739" 
d="M623 748h99l-314 -748h-77l-314 748h99l254 -609z" />
    <glyph glyph-name="W" unicode="W" horiz-adv-x="1048" 
d="M932 748h96l-231 -748h-77l-196 580l-195 -580h-77l-232 748h97l175 -587l195 587h75l196 -587z" />
    <glyph glyph-name="X" unicode="X" horiz-adv-x="685" 
d="M547 748h105l-242 -368l253 -380h-106l-214 326l-215 -326h-106l254 380l-242 368h105l204 -313z" />
    <glyph glyph-name="Y" unicode="Y" horiz-adv-x="686" 
d="M566 748h106l-283 -437v-311h-91v311l-284 437h106l223 -347z" />
    <glyph glyph-name="Z" unicode="Z" horiz-adv-x="612" 
d="M47 748h525v-69l-422 -598h430v-81h-547v69l421 599h-407v80z" />
    <glyph glyph-name="bracketleft" unicode="[" horiz-adv-x="268" 
d="M55 748h185v-72h-99v-691h99v-72h-185v835z" />
    <glyph glyph-name="backslash" unicode="\" horiz-adv-x="359" 
d="M7 748h90l255 -815h-90z" />
    <glyph glyph-name="bracketright" unicode="]" horiz-adv-x="268" 
d="M29 748h185v-835h-185v72h99v691h-99v72z" />
    <glyph glyph-name="asciicircum" unicode="^" horiz-adv-x="549" 
d="M27 373l248 389l246 -389h-97l-149 253l-150 -253h-98z" />
    <glyph glyph-name="underscore" unicode="_" horiz-adv-x="600" 
d="M0 -80h600v-66h-600v66z" />
    <glyph glyph-name="grave" unicode="`" horiz-adv-x="230" 
d="M15 786h99l102 -191h-68z" />
    <glyph glyph-name="a" unicode="a" horiz-adv-x="536" 
d="M405.5 467.5q50.5 -51.5 50.5 -146.5v-321h-87v60q-27 -33 -66 -51.5t-86 -18.5q-76 0 -121.5 38.5t-45.5 106.5q0 142 187 152l132 8v24q0 59 -26.5 91.5t-80.5 32.5q-53 0 -82 -31t-29 -75l-87 4q0 45 24 86t68.5 66.5t104.5 25.5q94 0 144.5 -51.5zM248 219
q-53 -4 -82 -23t-29 -59q0 -39 25 -56.5t68 -17.5q62 0 101 35t39 107v21z" />
    <glyph glyph-name="b" unicode="b" horiz-adv-x="643" 
d="M236 15.5q-47 25.5 -70 67.5v-83h-82v777h87v-344q22 39 68 62.5t108 23.5q70 0 126 -32t88 -92t32 -141q0 -80 -32 -140t-88 -92t-126 -32q-64 0 -111 25.5zM457.5 115q47.5 50 47.5 140q0 89 -47.5 139t-122.5 50q-74 0 -119 -45t-45 -129v-30q0 -84 45 -129.5
t119 -45.5q75 0 122.5 50z" />
    <glyph glyph-name="c" unicode="c" horiz-adv-x="572" 
d="M455.5 467.5q63.5 -51.5 74.5 -139.5l-84 -7q-7 57 -46.5 90t-98.5 33q-73 0 -118 -50t-45 -139t45.5 -139.5t117.5 -50.5q60 0 98.5 31t47.5 85l84 -8q-14 -85 -76 -134t-154 -49q-72 0 -129 31.5t-89.5 91.5t-32.5 142t32.5 141.5t89.5 91t129 31.5q91 0 154.5 -51.5z
" />
    <glyph glyph-name="d" unicode="d" horiz-adv-x="643" 
d="M170 22q-56 32 -88 92t-32 140q0 81 32 141t88 92t126 32q62 0 108 -23.5t68 -62.5v344h86v-777h-82v83q-22 -42 -69 -67.5t-111 -25.5q-70 0 -126 32zM426.5 110.5q45.5 45.5 45.5 129.5v30q0 84 -45.5 129t-118.5 45q-75 0 -123 -50t-48 -139q0 -90 48 -140t123 -50
q73 0 118.5 45.5z" />
    <glyph glyph-name="e" unicode="e" 
d="M535 222h-394q4 -73 48 -115t112 -42q56 0 93 24t49 67l87 -5q-16 -70 -78 -115.5t-149 -45.5q-73 0 -130.5 32t-90 92t-32.5 141t32 141t89 91.5t130 31.5q109 0 171.5 -68t62.5 -182v-47zM188.5 404q-43.5 -40 -47.5 -113h308q-1 70 -39.5 111.5t-109.5 41.5
q-68 0 -111.5 -40z" />
    <glyph glyph-name="f" unicode="f" horiz-adv-x="343" 
d="M333 779v-75q-16 2 -29 2q-47 0 -75.5 -29t-28.5 -80v-87h131v-75h-131v-435h-86v435h-100v75h100v85q0 88 49 137.5t132 49.5q21 0 38 -3z" />
    <glyph glyph-name="g" unicode="g" horiz-adv-x="638" 
d="M146.5 -214.5q-63.5 49.5 -79.5 131.5l86 3q9 -51 52.5 -80.5t105.5 -29.5q73 0 117 40.5t44 114.5v111q-22 -39 -68 -62.5t-108 -23.5q-70 0 -126 32t-88 92t-32 141q0 80 32 140t88 92t126 32q64 0 111 -25.5t69 -67.5v84h82v-539q0 -72 -30.5 -125t-85.5 -81.5
t-128 -28.5q-104 0 -167.5 49.5zM426.5 110q45.5 45 45.5 129v30q0 84 -45.5 129.5t-118.5 45.5q-75 0 -123 -50t-48 -140q0 -89 48 -139t123 -50q73 0 118.5 45z" />
    <glyph glyph-name="h" unicode="h" horiz-adv-x="597" 
d="M171 440q18 33 58.5 56t95.5 23q57 0 102 -25.5t70 -73t25 -110.5v-310h-86v299q0 63 -35.5 101.5t-93.5 38.5q-60 0 -98 -40.5t-38 -100.5v-298h-87v777h87v-337z" />
    <glyph glyph-name="i" unicode="i" horiz-adv-x="255" 
d="M168 734.5q17 -16.5 17 -40.5q0 -23 -17 -39.5t-40 -16.5q-24 0 -40.5 16.5t-16.5 39.5q0 24 17 40.5t40 16.5t40 -16.5zM84 510h87v-510h-87v510z" />
    <glyph glyph-name="j" unicode="j" horiz-adv-x="260" 
d="M173 734.5q17 -16.5 17 -40.5q0 -23 -17 -39.5t-40 -16.5q-24 0 -40.5 16.5t-16.5 39.5q0 24 16.5 40.5t40.5 16.5q23 0 40 -16.5zM177 -75q0 -88 -47 -136.5t-127 -48.5q-14 0 -40 2v77q13 -3 30 -3q46 0 71.5 27.5t25.5 78.5v588h87v-585z" />
    <glyph glyph-name="k" unicode="k" horiz-adv-x="532" 
d="M84 777h87v-492l224 225h106l-215 -222l239 -288h-110l-190 225l-54 -55v-170h-87v777z" />
    <glyph glyph-name="l" unicode="l" horiz-adv-x="255" 
d="M84 777h87v-777h-87v777z" />
    <glyph glyph-name="m" unicode="m" horiz-adv-x="929" 
d="M758 493q43 -26 67 -73.5t24 -108.5v-311h-86v299q0 64 -33 102t-90 38q-55 0 -89.5 -34.5t-39.5 -88.5v-6v-310h-88v299q0 64 -33 102t-87 38q-59 0 -95.5 -40.5t-36.5 -100.5v-298h-87v510h82v-77q20 38 59.5 62t95.5 24t100 -26.5t67 -74.5q23 46 67.5 73.5
t103.5 27.5q56 0 99 -26z" />
    <glyph glyph-name="n" unicode="n" horiz-adv-x="603" 
d="M427 493.5q45 -25.5 70 -73t25 -110.5v-310h-86v299q0 63 -35.5 101.5t-93.5 38.5q-60 0 -98 -40.5t-38 -100.5v-298h-87v510h82v-77q20 38 61 62t98 24t102 -25.5z" />
    <glyph glyph-name="o" unicode="o" horiz-adv-x="625" 
d="M445.5 486.5q59.5 -32.5 94 -92.5t34.5 -139t-34.5 -139.5t-94 -93t-133.5 -32.5t-133.5 32.5t-94 93t-34.5 139.5t34.5 139t94 92.5t133.5 32.5t133.5 -32.5zM222.5 421.5q-39.5 -22.5 -62.5 -65.5t-23 -101t23 -101t62.5 -66t89.5 -23t89.5 23t62.5 66t23 101t-23 101
t-62.5 65.5t-89.5 22.5t-89.5 -22.5z" />
    <glyph glyph-name="p" unicode="p" horiz-adv-x="643" 
d="M84 -255v765h82v-84q23 42 70 67.5t111 25.5q70 0 126 -32t88 -92t32 -140q0 -81 -32 -141t-88 -92t-126 -32q-62 0 -108 23.5t-68 62.5v-331h-87zM457.5 115q47.5 50 47.5 139q0 90 -47.5 140t-122.5 50q-74 0 -119 -45.5t-45 -129.5v-30q0 -84 45 -129t119 -45
q75 0 122.5 50z" />
    <glyph glyph-name="q" unicode="q" horiz-adv-x="643" 
d="M472 76q-22 -39 -68 -62.5t-108 -23.5q-70 0 -126 32t-88 92t-32 141q0 80 32 140t88 92t126 32q64 0 111 -25.5t69 -67.5v84h82v-765h-86v331zM426.5 110q45.5 45 45.5 129v30q0 84 -45.5 129.5t-118.5 45.5q-75 0 -123 -50t-48 -140q0 -89 48 -139t123 -50
q73 0 118.5 45z" />
    <glyph glyph-name="r" unicode="r" horiz-adv-x="354" 
d="M338 433q-48 0 -86 -18.5t-59.5 -51t-21.5 -71.5v-292h-87v510h84v-77q19 34 63.5 58.5t106.5 24.5v-83z" />
    <glyph glyph-name="s" unicode="s" horiz-adv-x="493" 
d="M375.5 475.5q47.5 -42.5 55.5 -110.5l-86 -5q-4 39 -30 61.5t-73 22.5q-48 0 -73 -19.5t-25 -54.5q0 -23 11.5 -35.5t29.5 -19t56 -15.5q8 -1 24 -5q61 -14 98.5 -31t58 -44.5t20.5 -71.5q0 -75 -52 -116.5t-141 -41.5q-86 0 -139 41t-62 114l85 6q7 -42 37 -64t81 -22
q48 0 77 19.5t29 56.5q0 26 -12 40.5t-37.5 24t-77.5 21.5q-62 14 -96 27.5t-55 40.5t-21 74q0 69 49.5 109t139.5 40q81 0 128.5 -42.5z" />
    <glyph glyph-name="t" unicode="t" horiz-adv-x="351" 
d="M330 76v-77q-34 -6 -69 -6q-73 0 -115.5 39.5t-41.5 120.5l1 282h-96v75h96l1 176h87l-1 -176h137v-75h-137l-2 -265q0 -52 24.5 -75.5t65.5 -23.5q20 0 50 5z" />
    <glyph glyph-name="u" unicode="u" 
d="M500 510v-510h-81v76q-16 -35 -55 -60.5t-97 -25.5q-86 0 -136.5 56.5t-50.5 148.5v315h86v-303q0 -63 31.5 -99.5t88.5 -36.5q59 0 93.5 41t34.5 100v298h86z" />
    <glyph glyph-name="v" unicode="v" horiz-adv-x="524" 
d="M424 510h93l-220 -510h-69l-221 510h92l164 -382z" />
    <glyph glyph-name="w" unicode="w" horiz-adv-x="770" 
d="M671 510h89l-176 -510h-69l-130 366l-131 -366h-68l-176 510h89l124 -375l131 375h61l132 -375z" />
    <glyph glyph-name="x" unicode="x" horiz-adv-x="509" 
d="M114 0h-100l177 263l-169 247h100l133 -195l130 195h101l-170 -249l180 -261h-102l-139 207z" />
    <glyph glyph-name="y" unicode="y" horiz-adv-x="524" 
d="M420 510h92l-322 -765h-95l121 283l-203 482h93l157 -388z" />
    <glyph glyph-name="z" unicode="z" horiz-adv-x="442" 
d="M36 510h366v-58l-263 -380h275v-72h-384v57l263 381h-257v72z" />
    <glyph glyph-name="braceleft" unicode="{" horiz-adv-x="265" 
d="M235 748v-73h-6q-74 0 -74 -97q0 -29 8 -74q9 -50 9 -82q0 -38 -13 -61.5t-43 -29.5q56 -12 56 -92q0 -32 -9 -82q-8 -45 -8 -75q0 -97 74 -97h6v-72h-6q-74 0 -116.5 43.5t-42.5 121.5q0 37 8 72q13 61 13 86q0 29 -13 44t-43 15h-8v71h8q30 0 43 15t13 44q0 25 -13 86
q-8 35 -8 72q0 78 42.5 121.5t116.5 43.5h6z" />
    <glyph glyph-name="bar" unicode="|" horiz-adv-x="248" 
d="M81 748h85v-815h-85v815z" />
    <glyph glyph-name="braceright" unicode="}" horiz-adv-x="265" 
d="M35 748q75 0 117.5 -43.5t42.5 -122.5q0 -29 -8 -71q-13 -54 -13 -86q0 -29 12.5 -44t42.5 -15h8v-71h-8q-30 0 -42.5 -15t-12.5 -44q0 -32 13 -86q8 -42 8 -71q0 -79 -42.5 -122.5t-117.5 -43.5h-6v72h6q75 0 75 98q0 29 -8 74q-9 50 -9 82q0 80 56 92q-30 6 -43 29.5
t-13 61.5q0 32 9 82q8 45 8 74q0 97 -75 97h-6v73h6z" />
    <glyph glyph-name="asciitilde" unicode="~" horiz-adv-x="530" 
d="M512 383q-33 -42 -68 -63t-83 -21q-32 0 -55.5 8.5t-50.5 25.5q-27 15 -44 21.5t-39 6.5q-37 0 -62 -13.5t-52 -44.5l-40 57q33 42 66.5 62t79.5 20q25 0 44 -7.5t47 -22.5q27 -16 48 -24t50 -8q39 0 65.5 14t53.5 45z" />
    <glyph glyph-name="exclamdown" unicode="&#xa1;" horiz-adv-x="274" 
d="M95.5 417.5q-17.5 17.5 -17.5 42.5t17.5 42t42.5 17q24 0 41.5 -17t17.5 -42t-17.5 -42.5t-41.5 -17.5q-25 0 -42.5 17.5zM188 -239h-100l5 546h91z" />
    <glyph glyph-name="cent" unicode="&#xa2;" horiz-adv-x="572" 
d="M531 173q-13 -76 -65 -124t-131 -57v-110h-73v111q-95 12 -153.5 81.5t-58.5 180.5t58.5 180.5t153.5 81.5v110h73v-110q79 -9 132 -59t63 -130l-84 -7q-7 57 -46.5 90t-98.5 33q-73 0 -118 -50t-45 -139t45.5 -139.5t117.5 -50.5q60 0 98.5 31t47.5 85z" />
    <glyph glyph-name="sterling" unicode="&#xa3;" horiz-adv-x="555" 
d="M523 81v-81h-484v75q53 21 78 60.5t25 103.5q0 22 -1 33l-4 56h-104v72h98l-8 107q-2 28 -2 41q0 100 49.5 155t147.5 55q93 0 142.5 -50t51.5 -134l-91 -4q0 48 -26.5 77.5t-78.5 29.5q-119 0 -108 -154l10 -123h172v-72h-167l5 -57q1 -9 1 -25q0 -56 -21 -95.5
t-57 -69.5h372z" />
    <glyph glyph-name="currency" unicode="&#xa4;" horiz-adv-x="582" 
d="M454 226l96 -96l-55 -54l-95 94q-47 -30 -109 -30q-61 0 -108 32l-96 -96l-55 54l97 96q-34 55 -34 126q0 72 34 127l-97 97l55 54l96 -96q48 31 108 31t108 -31l96 96l55 -54l-98 -98q34 -53 34 -126q0 -72 -32 -126zM201 242q35 -40 90 -40t90 40.5t35 109.5
q0 70 -35 110.5t-90 40.5t-90 -40.5t-35 -110.5t35 -110z" />
    <glyph glyph-name="yen" unicode="&#xa5;" horiz-adv-x="686" 
d="M566 748h106l-258 -399h116v-55h-141v-91h141v-55h-141v-148h-91v148h-140v55h140v91h-140v55h115l-259 399h106l223 -347z" />
    <glyph glyph-name="brokenbar" unicode="&#xa6;" horiz-adv-x="248" 
d="M81 748h85v-319h-85v319zM81 252h85v-319h-85v319z" />
    <glyph glyph-name="section" unicode="&#xa7;" horiz-adv-x="510" 
d="M445 205q17 -28 17 -72q0 -75 -56 -118t-149 -43q-96 0 -154.5 42t-58.5 117l86 3q1 -44 35 -68.5t92 -24.5q54 0 86.5 22.5t32.5 65.5q0 29 -15.5 46t-43 27t-77.5 21q-93 19 -141 53t-48 101q0 40 16.5 67t48.5 49q-29 18 -43 44.5t-14 66.5q0 71 52.5 112.5
t136.5 41.5q89 0 142.5 -40t54.5 -110l-86 -3q-1 40 -30 61.5t-80 21.5q-47 0 -75.5 -21t-28.5 -62q0 -27 14 -42.5t38.5 -24.5t69.5 -18q95 -21 142 -54.5t47 -100.5q0 -41 -15 -66.5t-46 -47.5q33 -18 50 -46zM146.5 335.5q16.5 -16.5 45 -26t80.5 -20.5l52 -12
q27 17 39.5 36t12.5 49q0 29 -16 45.5t-44 25.5t-81 20q-32 7 -52 13q-27 -18 -40 -37t-13 -48t16.5 -45.5z" />
    <glyph glyph-name="dieresis" unicode="&#xa8;" horiz-adv-x="321" 
d="M108.5 729q17.5 -17 17.5 -41t-17.5 -40.5t-41.5 -16.5q-25 0 -41.5 16t-16.5 41q0 24 16.5 41t41.5 17q24 0 41.5 -17zM295.5 729q16.5 -17 16.5 -41q0 -25 -16 -41t-41 -16q-24 0 -41.5 16.5t-17.5 40.5t17.5 41t41.5 17t40.5 -17z" />
    <glyph glyph-name="copyright" unicode="&#xa9;" horiz-adv-x="576" 
d="M421 726q59 -33 93.5 -91t34.5 -129q0 -70 -34.5 -127.5t-94 -91t-131.5 -33.5q-74 0 -134 33.5t-94 91t-34 127.5q0 71 34 129t94 91t134 33q73 0 132 -33zM173 698q-51 -29 -80.5 -79.5t-29.5 -112.5t29.5 -112.5t80.5 -79t115 -28.5t115 28.5t80.5 79t29.5 112.5
t-29.5 112.5t-80.5 79.5t-115 29t-115 -29zM382.5 632.5q38.5 -30.5 45.5 -82.5l-50 -3q-5 34 -29.5 53t-59.5 19q-44 0 -71 -30t-27 -82t28 -82t71 -30q34 0 58 18t30 49l51 -3q-9 -50 -47 -79.5t-92 -29.5q-64 0 -106.5 43t-42.5 114q0 72 42 114t106 42q55 0 93.5 -30.5z
" />
    <glyph glyph-name="ordfeminine" unicode="&#xaa;" horiz-adv-x="435" 
d="M334 715q40 -41 40 -119v-256h-73v52q-17 -27 -51.5 -43.5t-77.5 -16.5q-62 0 -98 29.5t-36 85.5q0 59 44.5 89t119.5 35l95 6v24q0 42 -21.5 65t-60.5 23q-43 0 -66 -23.5t-23 -57.5l-76 3q0 37 20 70.5t57.5 54t87.5 20.5q79 0 119 -41zM208 516q-44 -3 -67.5 -18.5
t-23.5 -46.5q0 -58 72 -58q45 0 76.5 27.5t31.5 83.5v18z" />
    <glyph glyph-name="guillemotleft" unicode="&#xab;" horiz-adv-x="554" 
d="M30 264l179 219l68 -43l-150 -176l150 -176l-68 -44zM278 264l179 219l68 -43l-150 -176l150 -176l-68 -44z" />
    <glyph glyph-name="logicalnot" unicode="&#xac;" horiz-adv-x="550" 
d="M35 414h473v-249h-68v181h-405v68z" />
    <glyph glyph-name="uni00AD" unicode="&#xad;" horiz-adv-x="397" 
d="M42 322h313v-81h-313v81z" />
    <glyph glyph-name="registered" unicode="&#xae;" horiz-adv-x="576" 
d="M421 726q59 -33 93.5 -91t34.5 -129q0 -70 -34.5 -127.5t-94 -91t-131.5 -33.5q-74 0 -134 33.5t-94 91t-34 127.5q0 71 34 129t94 91t134 33q73 0 132 -33zM403 314.5q51 28.5 80.5 79t29.5 112.5t-29.5 112.5t-80.5 79.5t-115 29t-115 -29t-80.5 -79.5t-29.5 -112.5
t29.5 -112.5t80.5 -79t115 -28.5t115 28.5zM386 513.5q-14 -21.5 -37 -31.5l67 -129h-54l-62 119h-70v-119h-48v306h120q42 0 70 -24.5t28 -68.5q0 -31 -14 -52.5zM230 618v-105h63q25 0 41 12.5t16 40.5q0 27 -16 39.5t-41 12.5h-63z" />
    <glyph glyph-name="macron" unicode="&#xaf;" horiz-adv-x="288" 
d="M2 700h284v-63h-284v63z" />
    <glyph glyph-name="degree" unicode="&#xb0;" horiz-adv-x="341" 
d="M67 498q-40 42 -40 108q0 67 39.5 109t103.5 42t104.5 -42t40.5 -109q0 -66 -40.5 -108t-104.5 -42q-63 0 -103 42zM230.5 537q23.5 27 23.5 69q0 43 -23.5 70t-60.5 27t-60 -26.5t-23 -70.5q0 -42 23 -69t60 -27t60.5 27z" />
    <glyph glyph-name="plusminus" unicode="&#xb1;" horiz-adv-x="541" 
d="M228 707h84v-198h198v-79h-198v-202h-84v202h-199v79h199v198zM29 165h481v-81h-481v81z" />
    <glyph glyph-name="twosuperior" unicode="&#xb2;" horiz-adv-x="308" 
d="M247 704q32 -34 32 -91q0 -43 -18 -78t-55 -74l-77 -80h155v-60h-256v47l129 134q29 30 42 55t13 57q0 29 -15 46.5t-42 17.5q-30 0 -46.5 -18.5t-16.5 -51.5l-66 4q1 58 35 92t92 34q62 0 94 -34z" />
    <glyph glyph-name="threesuperior" unicode="&#xb3;" horiz-adv-x="317" 
d="M247 707q33 -31 33 -84q0 -33 -15.5 -55.5t-39.5 -33.5q27 -8 45 -33t18 -62q0 -57 -36 -90.5t-95 -33.5q-62 0 -96.5 33t-36.5 90l67 5q3 -32 19.5 -49.5t46.5 -17.5t47 17.5t17 47.5t-19 46t-50 16h-41v58h40q27 0 45 16t18 43t-16 42.5t-42 15.5q-27 0 -43 -16.5
t-17 -46.5l-66 4q2 55 34.5 87t91.5 32q58 0 91 -31z" />
    <glyph glyph-name="acute" unicode="&#xb4;" horiz-adv-x="230" 
d="M118 786h97l-132 -191h-69z" />
    <glyph glyph-name="paragraph" unicode="&#xb6;" horiz-adv-x="661" 
d="M643 748v-65h-69v-750h-67v750h-131v-750h-67v446h-63q-92 0 -148.5 47.5t-56.5 137.5q0 88 56.5 136t148.5 48h397z" />
    <glyph glyph-name="periodcentered" unicode="&#xb7;" horiz-adv-x="211" 
d="M147.5 340.5q17.5 -17.5 17.5 -42.5t-17.5 -42t-43.5 -17q-23 0 -40.5 17.5t-17.5 41.5q0 25 17 42.5t41 17.5q26 0 43.5 -17.5z" />
    <glyph glyph-name="cedilla" unicode="&#xb8;" horiz-adv-x="268" 
d="M134 -49q51 -4 81 -28t30 -67q0 -48 -37 -74.5t-89 -26.5q-56 0 -97 22l16 52q32 -20 73 -20q28 0 48.5 12t20.5 35q0 51 -77 51q-12 0 -30 -4l31 115h46z" />
    <glyph glyph-name="onesuperior" unicode="&#xb9;" horiz-adv-x="216" 
d="M129 733h43v-411h-68v321l-71 -55l-28 55z" />
    <glyph glyph-name="ordmasculine" unicode="&#xba;" horiz-adv-x="500" 
d="M357.5 729.5q48.5 -26.5 76 -74.5t27.5 -112t-27.5 -111.5t-76 -73.5t-108.5 -26t-108 26t-75.5 73.5t-27.5 111.5t27.5 112t75.5 74.5t108 26.5t108.5 -26.5zM154.5 650q-37.5 -39 -37.5 -107q0 -67 37.5 -105.5t95.5 -38.5q59 0 96.5 38.5t37.5 105.5t-37.5 106.5
t-96.5 39.5q-58 0 -95.5 -39z" />
    <glyph glyph-name="guillemotright" unicode="&#xbb;" horiz-adv-x="554" 
d="M30 440l68 43l179 -219l-179 -220l-68 44l149 176zM277 440l68 43l179 -219l-179 -220l-68 44l149 176z" />
    <glyph glyph-name="onequarter" unicode="&#xbc;" horiz-adv-x="697" 
d="M129 733h43v-411h-68v321l-71 -55l-28 55zM553 748h75l-527 -748h-75zM554 411h63v-261h63v-60h-63v-90h-67v90h-178v53zM551 150v168l-119 -168h119z" />
    <glyph glyph-name="onehalf" unicode="&#xbd;" horiz-adv-x="720" 
d="M129 733h43v-411h-68v321l-71 -55l-28 55zM553 748h75l-527 -748h-75zM659 383q32 -34 32 -91q0 -43 -18 -78t-55 -74l-77 -80h155v-60h-256v47l129 134q29 30 42 55t13 57q0 29 -15 46.5t-42 17.5q-30 0 -46.5 -18.5t-16.5 -51.5l-66 4q1 58 35 92t92 34q62 0 94 -34z
" />
    <glyph glyph-name="threequarters" unicode="&#xbe;" horiz-adv-x="788" 
d="M247 707q33 -31 33 -84q0 -33 -15.5 -55.5t-39.5 -33.5q27 -8 45 -33t18 -62q0 -57 -36 -90.5t-95 -33.5q-62 0 -96.5 33t-36.5 90l67 5q3 -32 19.5 -49.5t46.5 -17.5t47 17.5t17 47.5t-19 46t-50 16h-41v58h40q27 0 45 16t18 43t-16 42.5t-42 15.5q-27 0 -43 -16.5
t-17 -46.5l-66 4q2 55 34.5 87t91.5 32q58 0 91 -31zM644 748h75l-527 -748h-75zM645 411h63v-261h63v-60h-63v-90h-67v90h-178v53zM642 150v168l-119 -168h119z" />
    <glyph glyph-name="questiondown" unicode="&#xbf;" horiz-adv-x="536" 
d="M230.5 417.5q-17.5 17.5 -17.5 42.5t17.5 42t42.5 17q24 0 41.5 -17t17.5 -42t-17.5 -42.5t-41.5 -17.5q-25 0 -42.5 17.5zM144 -222.5q-52 27.5 -79.5 76.5t-27.5 112q0 61 26 99t80 77q45 34 64 64t19 73v28h91v-32q0 -50 -22.5 -87t-73.5 -78q-46 -33 -68 -65t-22 -78
q0 -60 36 -98t100 -38t100.5 34t42.5 95l92 -6q-7 -94 -69.5 -149t-165.5 -55q-71 0 -123 27.5z" />
    <glyph glyph-name="Agrave" unicode="&#xc0;" horiz-adv-x="729" 
d="M325 748h78l313 -748h-100l-77 190h-350l-77 -190h-100zM505 271l-140 342l-141 -342h281zM131 948h127l148 -141h-89z" />
    <glyph glyph-name="Aacute" unicode="&#xc1;" horiz-adv-x="729" 
d="M325 748h78l313 -748h-100l-77 190h-350l-77 -190h-100zM505 271l-140 342l-141 -342h281zM468 946h127l-187 -141h-88z" />
    <glyph glyph-name="Acircumflex" unicode="&#xc2;" horiz-adv-x="729" 
d="M325 748h78l313 -748h-100l-77 190h-350l-77 -190h-100zM505 271l-140 342l-141 -342h281zM324 948h82l119 -143h-75l-85 90l-86 -90h-74z" />
    <glyph glyph-name="Atilde" unicode="&#xc3;" horiz-adv-x="729" 
d="M325 748h78l313 -748h-100l-77 190h-350l-77 -190h-100zM505 271l-140 342l-141 -342h281zM331 936.5q17 -8.5 38 -24.5q18 -14 31 -20.5t28 -6.5q24 0 36 14.5t13 38.5h51q2 -49 -23 -83.5t-68 -34.5q-22 0 -39 8.5t-38 24.5q-18 14 -31 20.5t-28 6.5q-23 0 -36 -15
t-13 -38h-50q-3 49 22 83.5t68 34.5q22 0 39 -8.5z" />
    <glyph glyph-name="Adieresis" unicode="&#xc4;" horiz-adv-x="729" 
d="M325 748h78l313 -748h-100l-77 190h-350l-77 -190h-100zM505 271l-140 342l-141 -342h281zM313.5 918q17.5 -17 17.5 -41t-17.5 -40.5t-41.5 -16.5q-25 0 -41.5 16t-16.5 41q0 24 16.5 41t41.5 17q24 0 41.5 -17zM500.5 918q16.5 -17 16.5 -41q0 -25 -16 -41t-41 -16
q-24 0 -41.5 16.5t-17.5 40.5t17.5 41t41.5 17t40.5 -17z" />
    <glyph glyph-name="Aring" unicode="&#xc5;" horiz-adv-x="729" 
d="M325 748h78l313 -748h-100l-77 190h-350l-77 -190h-100zM505 271l-140 342l-141 -342h281zM436.5 971q29.5 -28 29.5 -70t-29.5 -70t-71.5 -28q-45 0 -74.5 27.5t-29.5 70.5t29.5 70.5t74.5 27.5q42 0 71.5 -28zM324.5 939.5q-15.5 -14.5 -15.5 -38.5t15.5 -38.5
t40.5 -14.5q24 0 39 14.5t15 38.5t-15 38.5t-39 14.5q-25 0 -40.5 -14.5z" />
    <glyph glyph-name="AE" unicode="&#xc6;" horiz-adv-x="1020" 
d="M978 748v-80h-371v-242h327v-79h-327v-266h371v-81h-463v190h-275l-123 -190h-111l499 748h473zM515 607l-221 -336h221v336z" />
    <glyph glyph-name="Ccedilla" unicode="&#xc7;" horiz-adv-x="803" 
d="M760 257q-14 -78 -58.5 -137t-112 -92.5t-150.5 -36.5l-11 -45q51 -4 81 -28t30 -67q0 -48 -37 -74.5t-89 -26.5q-56 0 -97 22l16 52q32 -20 73 -20q28 0 48.5 12t20.5 35q0 51 -77 51q-12 0 -30 -4l25 93q-98 6 -175.5 54t-121.5 132.5t-44 196.5q0 116 47.5 203
t130.5 134t187 47q88 0 162 -33.5t122 -96.5t59 -147l-95 -9q-14 96 -82 150t-167 54q-76 0 -137.5 -36.5t-97.5 -105t-36 -160.5q0 -93 35 -161t96.5 -104.5t140.5 -36.5q98 0 165 50.5t83 142.5z" />
    <glyph glyph-name="Egrave" unicode="&#xc8;" horiz-adv-x="592" 
d="M87 748h463v-80h-371v-242h327v-79h-327v-266h371v-81h-463v748zM89 948h127l148 -141h-89z" />
    <glyph glyph-name="Eacute" unicode="&#xc9;" horiz-adv-x="592" 
d="M87 748h463v-80h-371v-242h327v-79h-327v-266h371v-81h-463v748zM426 946h127l-187 -141h-88z" />
    <glyph glyph-name="Ecircumflex" unicode="&#xca;" horiz-adv-x="592" 
d="M87 748h463v-80h-371v-242h327v-79h-327v-266h371v-81h-463v748zM282 948h82l119 -143h-75l-85 90l-86 -90h-74z" />
    <glyph glyph-name="Edieresis" unicode="&#xcb;" horiz-adv-x="592" 
d="M87 748h463v-80h-371v-242h327v-79h-327v-266h371v-81h-463v748zM271.5 918q17.5 -17 17.5 -41t-17.5 -40.5t-41.5 -16.5q-25 0 -41.5 16t-16.5 41q0 24 16.5 41t41.5 17q24 0 41.5 -17zM458.5 918q16.5 -17 16.5 -41q0 -25 -16 -41t-41 -16q-24 0 -41.5 16.5t-17.5 40.5
t17.5 41t41.5 17t40.5 -17z" />
    <glyph glyph-name="Igrave" unicode="&#xcc;" horiz-adv-x="266" 
d="M87 748h92v-748h-92v748zM-98 948h127l148 -141h-89z" />
    <glyph glyph-name="Iacute" unicode="&#xcd;" horiz-adv-x="266" 
d="M87 748h92v-748h-92v748zM239 946h127l-187 -141h-88z" />
    <glyph glyph-name="Icircumflex" unicode="&#xce;" horiz-adv-x="266" 
d="M87 748h92v-748h-92v748zM95 948h82l119 -143h-75l-85 90l-86 -90h-74z" />
    <glyph glyph-name="Idieresis" unicode="&#xcf;" horiz-adv-x="266" 
d="M97 915q15 -15 15 -36q0 -22 -15 -37t-37 -15t-37 15t-15 37q0 21 15 36t37 15t37 -15zM250 915q15 -15 15 -36q0 -22 -14.5 -37t-37.5 -15q-21 0 -36.5 15t-15.5 37q0 21 15.5 36t36.5 15q22 0 37 -15zM87 748h92v-748h-92v748z" />
    <glyph glyph-name="Eth" unicode="&#xd0;" horiz-adv-x="820" 
d="M410 748q103 0 184.5 -44.5t128 -129.5t46.5 -200t-47 -199.5t-129 -129.5t-185 -45h-291v339h-107v70h107v339h293zM408 78q79 0 140 34t95.5 101t34.5 161t-34 161t-94.5 101t-139.5 34h-202v-261h150v-70h-150v-261h200z" />
    <glyph glyph-name="Ntilde" unicode="&#xd1;" horiz-adv-x="744" 
d="M565 748h92v-748h-77l-401 578v-578h-92v748h77l401 -579v579zM335 936.5q17 -8.5 38 -24.5q18 -14 31 -20.5t28 -6.5q24 0 36 14.5t13 38.5h51q2 -49 -23 -83.5t-68 -34.5q-22 0 -39 8.5t-38 24.5q-18 14 -31 20.5t-28 6.5q-23 0 -36 -15t-13 -38h-50q-3 49 22 83.5
t68 34.5q22 0 39 -8.5z" />
    <glyph glyph-name="Ograve" unicode="&#xd2;" horiz-adv-x="844" 
d="M611.5 711q84.5 -47 133 -134t48.5 -203t-48.5 -203t-133 -134t-189.5 -47t-189.5 47t-133 134t-48.5 203t48.5 203t133 134t189.5 47t189.5 -47zM279.5 640q-63.5 -36 -100 -104.5t-36.5 -161.5t36.5 -161t100 -104.5t142.5 -36.5t142 36.5t99.5 104.5t36.5 161
t-36.5 161.5t-99.5 104.5t-142 36t-142.5 -36zM179 948h127l148 -141h-89z" />
    <glyph glyph-name="Oacute" unicode="&#xd3;" horiz-adv-x="844" 
d="M611.5 711q84.5 -47 133 -134t48.5 -203t-48.5 -203t-133 -134t-189.5 -47t-189.5 47t-133 134t-48.5 203t48.5 203t133 134t189.5 47t189.5 -47zM279.5 640q-63.5 -36 -100 -104.5t-36.5 -161.5t36.5 -161t100 -104.5t142.5 -36.5t142 36.5t99.5 104.5t36.5 161
t-36.5 161.5t-99.5 104.5t-142 36t-142.5 -36zM516 946h127l-187 -141h-88z" />
    <glyph glyph-name="Ocircumflex" unicode="&#xd4;" horiz-adv-x="844" 
d="M611.5 711q84.5 -47 133 -134t48.5 -203t-48.5 -203t-133 -134t-189.5 -47t-189.5 47t-133 134t-48.5 203t48.5 203t133 134t189.5 47t189.5 -47zM279.5 640q-63.5 -36 -100 -104.5t-36.5 -161.5t36.5 -161t100 -104.5t142.5 -36.5t142 36.5t99.5 104.5t36.5 161
t-36.5 161.5t-99.5 104.5t-142 36t-142.5 -36zM372 948h82l119 -143h-75l-85 90l-86 -90h-74z" />
    <glyph glyph-name="Otilde" unicode="&#xd5;" horiz-adv-x="844" 
d="M611.5 711q84.5 -47 133 -134t48.5 -203t-48.5 -203t-133 -134t-189.5 -47t-189.5 47t-133 134t-48.5 203t48.5 203t133 134t189.5 47t189.5 -47zM279.5 640q-63.5 -36 -100 -104.5t-36.5 -161.5t36.5 -161t100 -104.5t142.5 -36.5t142 36.5t99.5 104.5t36.5 161
t-36.5 161.5t-99.5 104.5t-142 36t-142.5 -36zM379 936.5q17 -8.5 38 -24.5q18 -14 31 -20.5t28 -6.5q24 0 36 14.5t13 38.5h51q2 -49 -23 -83.5t-68 -34.5q-22 0 -39 8.5t-38 24.5q-18 14 -31 20.5t-28 6.5q-23 0 -36 -15t-13 -38h-50q-3 49 22 83.5t68 34.5q22 0 39 -8.5z
" />
    <glyph glyph-name="Odieresis" unicode="&#xd6;" horiz-adv-x="844" 
d="M611.5 711q84.5 -47 133 -134t48.5 -203t-48.5 -203t-133 -134t-189.5 -47t-189.5 47t-133 134t-48.5 203t48.5 203t133 134t189.5 47t189.5 -47zM279.5 640q-63.5 -36 -100 -104.5t-36.5 -161.5t36.5 -161t100 -104.5t142.5 -36.5t142 36.5t99.5 104.5t36.5 161
t-36.5 161.5t-99.5 104.5t-142 36t-142.5 -36zM361.5 918q17.5 -17 17.5 -41t-17.5 -40.5t-41.5 -16.5q-25 0 -41.5 16t-16.5 41q0 24 16.5 41t41.5 17q24 0 41.5 -17zM548.5 918q16.5 -17 16.5 -41q0 -25 -16 -41t-41 -16q-24 0 -41.5 16.5t-17.5 40.5t17.5 41t41.5 17
t40.5 -17z" />
    <glyph glyph-name="multiply" unicode="&#xd7;" horiz-adv-x="518" 
d="M259 426l152 152l57 -58l-151 -150l153 -154l-57 -58l-154 154l-155 -155l-57 58l155 155l-153 153l57 58z" />
    <glyph glyph-name="Oslash" unicode="&#xd8;" horiz-adv-x="844" 
d="M683 658q53 -51 81.5 -123.5t28.5 -160.5q0 -116 -48.5 -203t-133 -134t-189.5 -47q-117 0 -206 57l-63 -82l-56 43l63 82q-52 51 -80.5 123.5t-28.5 160.5q0 116 48.5 203t133 134t189.5 47q115 0 205 -56l64 83l57 -43zM161.5 255q18.5 -54 52.5 -93l361 471
q-66 43 -153 43q-79 0 -142.5 -36t-100 -104.5t-36.5 -161.5q0 -65 18.5 -119zM564 108.5q63 36.5 99.5 104.5t36.5 161q0 129 -71 213l-361 -472q68 -43 154 -43q79 0 142 36.5z" />
    <glyph glyph-name="Ugrave" unicode="&#xd9;" horiz-adv-x="758" 
d="M677 281q0 -140 -80 -215.5t-218 -75.5q-139 0 -218.5 75.5t-79.5 215.5v467h91v-466q0 -103 54.5 -156.5t152.5 -53.5q97 0 152 54t55 156v466h91v-467zM145 948h127l148 -141h-89z" />
    <glyph glyph-name="Uacute" unicode="&#xda;" horiz-adv-x="758" 
d="M677 281q0 -140 -80 -215.5t-218 -75.5q-139 0 -218.5 75.5t-79.5 215.5v467h91v-466q0 -103 54.5 -156.5t152.5 -53.5q97 0 152 54t55 156v466h91v-467zM482 946h127l-187 -141h-88z" />
    <glyph glyph-name="Ucircumflex" unicode="&#xdb;" horiz-adv-x="758" 
d="M677 281q0 -140 -80 -215.5t-218 -75.5q-139 0 -218.5 75.5t-79.5 215.5v467h91v-466q0 -103 54.5 -156.5t152.5 -53.5q97 0 152 54t55 156v466h91v-467zM338 948h82l119 -143h-75l-85 90l-86 -90h-74z" />
    <glyph glyph-name="Udieresis" unicode="&#xdc;" horiz-adv-x="758" 
d="M677 281q0 -140 -80 -215.5t-218 -75.5q-139 0 -218.5 75.5t-79.5 215.5v467h91v-466q0 -103 54.5 -156.5t152.5 -53.5q97 0 152 54t55 156v466h91v-467zM327.5 918q17.5 -17 17.5 -41t-17.5 -40.5t-41.5 -16.5q-25 0 -41.5 16t-16.5 41q0 24 16.5 41t41.5 17
q24 0 41.5 -17zM514.5 918q16.5 -17 16.5 -41q0 -25 -16 -41t-41 -16q-24 0 -41.5 16.5t-17.5 40.5t17.5 41t41.5 17t40.5 -17z" />
    <glyph glyph-name="Yacute" unicode="&#xdd;" horiz-adv-x="686" 
d="M566 748h106l-283 -437v-311h-91v311l-284 437h106l223 -347zM446 946h127l-187 -141h-88z" />
    <glyph glyph-name="Thorn" unicode="&#xde;" horiz-adv-x="629" 
d="M179 748v-104h186q65 0 117 -26t82 -76.5t30 -121.5t-30 -122t-82 -77t-117 -26h-186v-195h-92v748h92zM178 562v-286h175q63 0 105 37.5t42 106.5q0 68 -42 105t-105 37h-175z" />
    <glyph glyph-name="germandbls" unicode="&#xdf;" horiz-adv-x="628" 
d="M442.5 741q55.5 -44 55.5 -116q0 -38 -14 -62.5t-39 -52.5q-19 -21 -28 -35.5t-9 -32.5q0 -21 15 -37.5t47 -38.5q34 -25 56.5 -46.5t39 -55.5t16.5 -82q0 -90 -59.5 -140t-154.5 -50q-60 0 -101 17l17 70q41 -15 77 -15q59 0 96 32t37 88q0 39 -21 65t-64 59
q-45 35 -67 62t-22 70q0 35 13.5 57t39.5 48q19 18 28.5 32t9.5 33q0 47 -31 74t-86 27q-57 0 -91.5 -32.5t-34.5 -86.5v-592h-86v595q0 56 26 99t74 67t110 24q95 0 150.5 -44z" />
    <glyph glyph-name="agrave" unicode="&#xe0;" horiz-adv-x="536" 
d="M405.5 467.5q50.5 -51.5 50.5 -146.5v-321h-87v60q-27 -33 -66 -51.5t-86 -18.5q-76 0 -121.5 38.5t-45.5 106.5q0 142 187 152l132 8v24q0 59 -26.5 91.5t-80.5 32.5q-53 0 -82 -31t-29 -75l-87 4q0 45 24 86t68.5 66.5t104.5 25.5q94 0 144.5 -51.5zM248 219
q-53 -4 -82 -23t-29 -59q0 -39 25 -56.5t68 -17.5q62 0 101 35t39 107v21zM105 786h99l102 -191h-68z" />
    <glyph glyph-name="aacute" unicode="&#xe1;" horiz-adv-x="536" 
d="M405.5 467.5q50.5 -51.5 50.5 -146.5v-321h-87v60q-27 -33 -66 -51.5t-86 -18.5q-76 0 -121.5 38.5t-45.5 106.5q0 142 187 152l132 8v24q0 59 -26.5 91.5t-80.5 32.5q-53 0 -82 -31t-29 -75l-87 4q0 45 24 86t68.5 66.5t104.5 25.5q94 0 144.5 -51.5zM248 219
q-53 -4 -82 -23t-29 -59q0 -39 25 -56.5t68 -17.5q62 0 101 35t39 107v21zM342 786h97l-132 -191h-69z" />
    <glyph glyph-name="acircumflex" unicode="&#xe2;" horiz-adv-x="536" 
d="M405.5 467.5q50.5 -51.5 50.5 -146.5v-321h-87v60q-27 -33 -66 -51.5t-86 -18.5q-76 0 -121.5 38.5t-45.5 106.5q0 142 187 152l132 8v24q0 59 -26.5 91.5t-80.5 32.5q-53 0 -82 -31t-29 -75l-87 4q0 45 24 86t68.5 66.5t104.5 25.5q94 0 144.5 -51.5zM248 219
q-53 -4 -82 -23t-29 -59q0 -39 25 -56.5t68 -17.5q62 0 101 35t39 107v21zM233 765h82l120 -169h-74l-87 110l-87 -110h-74z" />
    <glyph glyph-name="atilde" unicode="&#xe3;" horiz-adv-x="536" 
d="M405.5 467.5q50.5 -51.5 50.5 -146.5v-321h-87v60q-27 -33 -66 -51.5t-86 -18.5q-76 0 -121.5 38.5t-45.5 106.5q0 142 187 152l132 8v24q0 59 -26.5 91.5t-80.5 32.5q-53 0 -82 -31t-29 -75l-87 4q0 45 24 86t68.5 66.5t104.5 25.5q94 0 144.5 -51.5zM248 219
q-53 -4 -82 -23t-29 -59q0 -39 25 -56.5t68 -17.5q62 0 101 35t39 107v21zM239 727.5q17 -8.5 38 -24.5q18 -14 31 -21t28 -7q24 0 36 14.5t13 39.5h51q2 -49 -23 -84t-68 -35q-22 0 -39 8.5t-38 24.5q-18 14 -31 20.5t-28 6.5q-23 0 -36 -15t-13 -38h-50q-3 49 22 84t68 35
q22 0 39 -8.5z" />
    <glyph glyph-name="adieresis" unicode="&#xe4;" horiz-adv-x="536" 
d="M405.5 467.5q50.5 -51.5 50.5 -146.5v-321h-87v60q-27 -33 -66 -51.5t-86 -18.5q-76 0 -121.5 38.5t-45.5 106.5q0 142 187 152l132 8v24q0 59 -26.5 91.5t-80.5 32.5q-53 0 -82 -31t-29 -75l-87 4q0 45 24 86t68.5 66.5t104.5 25.5q94 0 144.5 -51.5zM248 219
q-53 -4 -82 -23t-29 -59q0 -39 25 -56.5t68 -17.5q62 0 101 35t39 107v21zM222.5 729q17.5 -17 17.5 -41t-17.5 -40.5t-41.5 -16.5q-25 0 -41.5 16t-16.5 41q0 24 16.5 41t41.5 17q24 0 41.5 -17zM409.5 729q16.5 -17 16.5 -41q0 -25 -16 -41t-41 -16q-24 0 -41.5 16.5
t-17.5 40.5t17.5 41t41.5 17t40.5 -17z" />
    <glyph glyph-name="aring" unicode="&#xe5;" horiz-adv-x="536" 
d="M405.5 467.5q50.5 -51.5 50.5 -146.5v-321h-87v60q-27 -33 -66 -51.5t-86 -18.5q-76 0 -121.5 38.5t-45.5 106.5q0 142 187 152l132 8v24q0 59 -26.5 91.5t-80.5 32.5q-53 0 -82 -31t-29 -75l-87 4q0 45 24 86t68.5 66.5t104.5 25.5q94 0 144.5 -51.5zM248 219
q-53 -4 -82 -23t-29 -59q0 -39 25 -56.5t68 -17.5q62 0 101 35t39 107v21zM354 768q33 -30 33 -76t-33 -76.5t-80 -30.5q-49 0 -82 30.5t-33 76.5t33 76t82 30q47 0 80 -30zM229.5 732.5q-16.5 -15.5 -16.5 -40.5q0 -26 16.5 -41.5t43.5 -15.5q26 0 43 16t17 41t-17 40.5
t-43 15.5q-27 0 -43.5 -15.5z" />
    <glyph glyph-name="ae" unicode="&#xe6;" horiz-adv-x="875" 
d="M825 224l-385 -1q3 -73 46 -115.5t109 -42.5q54 0 90.5 24t47.5 67l87 -5q-16 -70 -77 -115.5t-145 -45.5q-62 0 -113.5 25t-84.5 71q-29 -46 -76 -71t-109 -25q-75 0 -120 39t-45 107q0 143 192 151l119 6v20q0 62 -26 96.5t-77 34.5q-52 0 -79.5 -31t-27.5 -76l-87 4
q0 45 23 86t67 66.5t102 25.5q108 0 154 -82q33 40 80.5 61t105.5 21q70 0 122 -31t79.5 -87t27.5 -131v-46zM486.5 404q-42.5 -40 -46.5 -112l299 1q-2 69 -39 110t-106 41q-65 0 -107.5 -40zM361 223l-108 -5q-58 -3 -87 -21.5t-29 -58.5q0 -38 24 -56t65 -18
q58 0 96.5 33.5t38.5 107.5v18z" />
    <glyph glyph-name="ccedilla" unicode="&#xe7;" horiz-adv-x="572" 
d="M531 173q-13 -82 -72 -131t-148 -52l-10 -43q51 -4 81 -28t30 -67q0 -48 -37 -74.5t-89 -26.5q-56 0 -97 22l16 52q32 -20 73 -20q28 0 48.5 12t20.5 35q0 51 -77 51q-12 0 -30 -4l25 93q-96 12 -155.5 81t-59.5 182q0 82 32.5 141.5t89.5 91t129 31.5q91 0 154.5 -51.5
t74.5 -139.5l-84 -7q-7 57 -46.5 90t-98.5 33q-73 0 -118 -50t-45 -139t45.5 -139.5t117.5 -50.5q60 0 98.5 31t47.5 85z" />
    <glyph glyph-name="egrave" unicode="&#xe8;" 
d="M535 222h-394q4 -73 48 -115t112 -42q56 0 93 24t49 67l87 -5q-16 -70 -78 -115.5t-149 -45.5q-73 0 -130.5 32t-90 92t-32.5 141t32 141t89 91.5t130 31.5q109 0 171.5 -68t62.5 -182v-47zM188.5 404q-43.5 -40 -47.5 -113h308q-1 70 -39.5 111.5t-109.5 41.5
q-68 0 -111.5 -40zM130 786h99l102 -191h-68z" />
    <glyph glyph-name="eacute" unicode="&#xe9;" 
d="M535 222h-394q4 -73 48 -115t112 -42q56 0 93 24t49 67l87 -5q-16 -70 -78 -115.5t-149 -45.5q-73 0 -130.5 32t-90 92t-32.5 141t32 141t89 91.5t130 31.5q109 0 171.5 -68t62.5 -182v-47zM188.5 404q-43.5 -40 -47.5 -113h308q-1 70 -39.5 111.5t-109.5 41.5
q-68 0 -111.5 -40zM367 786h97l-132 -191h-69z" />
    <glyph glyph-name="ecircumflex" unicode="&#xea;" 
d="M535 222h-394q4 -73 48 -115t112 -42q56 0 93 24t49 67l87 -5q-16 -70 -78 -115.5t-149 -45.5q-73 0 -130.5 32t-90 92t-32.5 141t32 141t89 91.5t130 31.5q109 0 171.5 -68t62.5 -182v-47zM188.5 404q-43.5 -40 -47.5 -113h308q-1 70 -39.5 111.5t-109.5 41.5
q-68 0 -111.5 -40zM258 765h82l120 -169h-74l-87 110l-87 -110h-74z" />
    <glyph glyph-name="edieresis" unicode="&#xeb;" 
d="M535 222h-394q4 -73 48 -115t112 -42q56 0 93 24t49 67l87 -5q-16 -70 -78 -115.5t-149 -45.5q-73 0 -130.5 32t-90 92t-32.5 141t32 141t89 91.5t130 31.5q109 0 171.5 -68t62.5 -182v-47zM188.5 404q-43.5 -40 -47.5 -113h308q-1 70 -39.5 111.5t-109.5 41.5
q-68 0 -111.5 -40zM247.5 729q17.5 -17 17.5 -41t-17.5 -40.5t-41.5 -16.5q-25 0 -41.5 16t-16.5 41q0 24 16.5 41t41.5 17q24 0 41.5 -17zM434.5 729q16.5 -17 16.5 -41q0 -25 -16 -41t-41 -16q-24 0 -41.5 16.5t-17.5 40.5t17.5 41t41.5 17t40.5 -17z" />
    <glyph glyph-name="igrave" unicode="&#xec;" horiz-adv-x="255" 
d="M84 510h87v-510h-87v510zM-39 786h99l102 -191h-68z" />
    <glyph glyph-name="iacute" unicode="&#xed;" horiz-adv-x="255" 
d="M84 510h87v-510h-87v510zM198 786h97l-132 -191h-69z" />
    <glyph glyph-name="icircumflex" unicode="&#xee;" horiz-adv-x="255" 
d="M84 510h87v-510h-87v510zM89 765h82l120 -169h-74l-87 110l-87 -110h-74z" />
    <glyph glyph-name="idieresis" unicode="&#xef;" horiz-adv-x="255" 
d="M88.5 731q15.5 -15 15.5 -37q0 -21 -15.5 -35.5t-36.5 -14.5q-23 0 -37.5 14t-14.5 36t15 37t37 15q21 0 36.5 -15zM239 731q15 -15 15 -37t-15 -36t-37 -14q-21 0 -36.5 14.5t-15.5 35.5q0 22 15.5 37t36.5 15q22 0 37 -15zM84 510h87v-510h-87v510z" />
    <glyph glyph-name="eth" unicode="&#xf0;" horiz-adv-x="613" 
d="M410 680q73 -64 111 -162.5t38 -216.5q0 -158 -70 -234.5t-187 -76.5q-70 0 -127.5 30.5t-91.5 89t-34 137.5q0 77 34 135.5t91.5 90t126.5 31.5q88 0 150 -51q-29 115 -102 178l-92 -72l-39 40l83 65q-71 40 -168 41v72q134 0 232 -63l100 79l40 -38zM426.5 114
q47.5 49 47.5 134q0 83 -46.5 131.5t-122.5 48.5q-75 0 -123 -49t-48 -132q0 -56 22.5 -97t61 -63t87.5 -22q74 0 121.5 49z" />
    <glyph glyph-name="ntilde" unicode="&#xf1;" horiz-adv-x="603" 
d="M427 493.5q45 -25.5 70 -73t25 -110.5v-310h-86v299q0 63 -35.5 101.5t-93.5 38.5q-60 0 -98 -40.5t-38 -100.5v-298h-87v510h82v-77q20 38 61 62t98 24t102 -25.5zM276 727.5q17 -8.5 38 -24.5q18 -14 31 -21t28 -7q24 0 36 14.5t13 39.5h51q2 -49 -23 -84t-68 -35
q-22 0 -39 8.5t-38 24.5q-18 14 -31 20.5t-28 6.5q-23 0 -36 -15t-13 -38h-50q-3 49 22 84t68 35q22 0 39 -8.5z" />
    <glyph glyph-name="ograve" unicode="&#xf2;" horiz-adv-x="625" 
d="M445.5 486.5q59.5 -32.5 94 -92.5t34.5 -139t-34.5 -139.5t-94 -93t-133.5 -32.5t-133.5 32.5t-94 93t-34.5 139.5t34.5 139t94 92.5t133.5 32.5t133.5 -32.5zM222.5 421.5q-39.5 -22.5 -62.5 -65.5t-23 -101t23 -101t62.5 -66t89.5 -23t89.5 23t62.5 66t23 101t-23 101
t-62.5 65.5t-89.5 22.5t-89.5 -22.5zM143 786h99l102 -191h-68z" />
    <glyph glyph-name="oacute" unicode="&#xf3;" horiz-adv-x="625" 
d="M445.5 486.5q59.5 -32.5 94 -92.5t34.5 -139t-34.5 -139.5t-94 -93t-133.5 -32.5t-133.5 32.5t-94 93t-34.5 139.5t34.5 139t94 92.5t133.5 32.5t133.5 -32.5zM222.5 421.5q-39.5 -22.5 -62.5 -65.5t-23 -101t23 -101t62.5 -66t89.5 -23t89.5 23t62.5 66t23 101t-23 101
t-62.5 65.5t-89.5 22.5t-89.5 -22.5zM380 786h97l-132 -191h-69z" />
    <glyph glyph-name="ocircumflex" unicode="&#xf4;" horiz-adv-x="625" 
d="M445.5 486.5q59.5 -32.5 94 -92.5t34.5 -139t-34.5 -139.5t-94 -93t-133.5 -32.5t-133.5 32.5t-94 93t-34.5 139.5t34.5 139t94 92.5t133.5 32.5t133.5 -32.5zM222.5 421.5q-39.5 -22.5 -62.5 -65.5t-23 -101t23 -101t62.5 -66t89.5 -23t89.5 23t62.5 66t23 101t-23 101
t-62.5 65.5t-89.5 22.5t-89.5 -22.5zM271 765h82l120 -169h-74l-87 110l-87 -110h-74z" />
    <glyph glyph-name="otilde" unicode="&#xf5;" horiz-adv-x="625" 
d="M445.5 486.5q59.5 -32.5 94 -92.5t34.5 -139t-34.5 -139.5t-94 -93t-133.5 -32.5t-133.5 32.5t-94 93t-34.5 139.5t34.5 139t94 92.5t133.5 32.5t133.5 -32.5zM222.5 421.5q-39.5 -22.5 -62.5 -65.5t-23 -101t23 -101t62.5 -66t89.5 -23t89.5 23t62.5 66t23 101t-23 101
t-62.5 65.5t-89.5 22.5t-89.5 -22.5zM277 727.5q17 -8.5 38 -24.5q18 -14 31 -21t28 -7q24 0 36 14.5t13 39.5h51q2 -49 -23 -84t-68 -35q-22 0 -39 8.5t-38 24.5q-18 14 -31 20.5t-28 6.5q-23 0 -36 -15t-13 -38h-50q-3 49 22 84t68 35q22 0 39 -8.5z" />
    <glyph glyph-name="odieresis" unicode="&#xf6;" horiz-adv-x="625" 
d="M445.5 486.5q59.5 -32.5 94 -92.5t34.5 -139t-34.5 -139.5t-94 -93t-133.5 -32.5t-133.5 32.5t-94 93t-34.5 139.5t34.5 139t94 92.5t133.5 32.5t133.5 -32.5zM222.5 421.5q-39.5 -22.5 -62.5 -65.5t-23 -101t23 -101t62.5 -66t89.5 -23t89.5 23t62.5 66t23 101t-23 101
t-62.5 65.5t-89.5 22.5t-89.5 -22.5zM260.5 729q17.5 -17 17.5 -41t-17.5 -40.5t-41.5 -16.5q-25 0 -41.5 16t-16.5 41q0 24 16.5 41t41.5 17q24 0 41.5 -17zM447.5 729q16.5 -17 16.5 -41q0 -25 -16 -41t-41 -16q-24 0 -41.5 16.5t-17.5 40.5t17.5 41t41.5 17t40.5 -17z
" />
    <glyph glyph-name="divide" unicode="&#xf7;" horiz-adv-x="541" 
d="M312.5 625q17.5 -17 17.5 -42t-17.5 -41.5t-42.5 -16.5q-24 0 -41 16.5t-17 41.5t17 42t41 17q25 0 42.5 -17zM29 411h481v-81h-481v81zM312.5 199.5q17.5 -17.5 17.5 -42.5q0 -24 -17.5 -41.5t-42.5 -17.5q-24 0 -41 17.5t-17 41.5q0 25 17 42.5t41 17.5
q25 0 42.5 -17.5z" />
    <glyph glyph-name="oslash" unicode="&#xf8;" horiz-adv-x="625" 
d="M498 448q36 -35 56 -84.5t20 -108.5q0 -79 -34.5 -139.5t-94 -93t-133.5 -32.5q-76 0 -136 34l-43 -57l-48 35l43 57q-37 35 -57.5 85t-20.5 111q0 79 34.5 139t94 92.5t133.5 32.5q79 0 138 -35l40 52l48 -36zM179 125l224 296q-41 23 -91 23t-89.5 -22.5t-62.5 -65.5
t-23 -101q0 -80 42 -130zM401.5 88q39.5 23 62.5 66t23 101q0 76 -39 126l-224 -294q41 -22 88 -22q50 0 89.5 23z" />
    <glyph glyph-name="ugrave" unicode="&#xf9;" 
d="M500 510v-510h-81v76q-16 -35 -55 -60.5t-97 -25.5q-86 0 -136.5 56.5t-50.5 148.5v315h86v-303q0 -63 31.5 -99.5t88.5 -36.5q59 0 93.5 41t34.5 100v298h86zM126 786h99l102 -191h-68z" />
    <glyph glyph-name="uacute" unicode="&#xfa;" 
d="M500 510v-510h-81v76q-16 -35 -55 -60.5t-97 -25.5q-86 0 -136.5 56.5t-50.5 148.5v315h86v-303q0 -63 31.5 -99.5t88.5 -36.5q59 0 93.5 41t34.5 100v298h86zM363 786h97l-132 -191h-69z" />
    <glyph glyph-name="ucircumflex" unicode="&#xfb;" 
d="M500 510v-510h-81v76q-16 -35 -55 -60.5t-97 -25.5q-86 0 -136.5 56.5t-50.5 148.5v315h86v-303q0 -63 31.5 -99.5t88.5 -36.5q59 0 93.5 41t34.5 100v298h86zM254 765h82l120 -169h-74l-87 110l-87 -110h-74z" />
    <glyph glyph-name="udieresis" unicode="&#xfc;" 
d="M500 510v-510h-81v76q-16 -35 -55 -60.5t-97 -25.5q-86 0 -136.5 56.5t-50.5 148.5v315h86v-303q0 -63 31.5 -99.5t88.5 -36.5q59 0 93.5 41t34.5 100v298h86zM243.5 729q17.5 -17 17.5 -41t-17.5 -40.5t-41.5 -16.5q-25 0 -41.5 16t-16.5 41q0 24 16.5 41t41.5 17
q24 0 41.5 -17zM430.5 729q16.5 -17 16.5 -41q0 -25 -16 -41t-41 -16q-24 0 -41.5 16.5t-17.5 40.5t17.5 41t41.5 17t40.5 -17z" />
    <glyph glyph-name="yacute" unicode="&#xfd;" horiz-adv-x="524" 
d="M420 510h92l-322 -765h-95l121 283l-203 482h93l157 -388zM331 786h97l-132 -191h-69z" />
    <glyph glyph-name="thorn" unicode="&#xfe;" horiz-adv-x="642" 
d="M84 -255v1032h87v-346q22 39 68 63.5t108 24.5q70 0 126 -32t88 -92t32 -140q0 -81 -32 -141t-88 -92t-126 -32q-62 0 -108 24t-68 64v-333h-87zM457.5 115q47.5 50 47.5 139q0 90 -47.5 140t-122.5 50q-74 0 -119 -45.5t-45 -129.5v-30q0 -84 45 -129t119 -45
q75 0 122.5 50z" />
    <glyph glyph-name="ydieresis" unicode="&#xff;" horiz-adv-x="524" 
d="M420 510h92l-322 -765h-95l121 283l-203 482h93l157 -388zM211.5 729q17.5 -17 17.5 -41t-17.5 -40.5t-41.5 -16.5q-25 0 -41.5 16t-16.5 41q0 24 16.5 41t41.5 17q24 0 41.5 -17zM398.5 729q16.5 -17 16.5 -41q0 -25 -16 -41t-41 -16q-24 0 -41.5 16.5t-17.5 40.5
t17.5 41t41.5 17t40.5 -17z" />
    <glyph glyph-name="Amacron" unicode="&#x100;" horiz-adv-x="729" 
d="M325 748h78l313 -748h-100l-77 190h-350l-77 -190h-100zM505 271l-140 342l-141 -342h281zM213 909h304v-63h-304v63z" />
    <glyph glyph-name="amacron" unicode="&#x101;" horiz-adv-x="536" 
d="M405.5 467.5q50.5 -51.5 50.5 -146.5v-321h-87v60q-27 -33 -66 -51.5t-86 -18.5q-76 0 -121.5 38.5t-45.5 106.5q0 142 187 152l132 8v24q0 59 -26.5 91.5t-80.5 32.5q-53 0 -82 -31t-29 -75l-87 4q0 45 24 86t68.5 66.5t104.5 25.5q94 0 144.5 -51.5zM248 219
q-53 -4 -82 -23t-29 -59q0 -39 25 -56.5t68 -17.5q62 0 101 35t39 107v21zM132 700h284v-63h-284v63z" />
    <glyph glyph-name="Abreve" unicode="&#x102;" horiz-adv-x="729" 
d="M325 748h78l313 -748h-100l-77 190h-350l-77 -190h-100zM505 271l-140 342l-141 -342h281zM521 955q0 -67 -42.5 -103.5t-114.5 -36.5t-114.5 36.5t-42.5 103.5h69q0 -36 23.5 -56.5t64.5 -20.5q40 0 64.5 20.5t24.5 56.5h68z" />
    <glyph glyph-name="abreve" unicode="&#x103;" horiz-adv-x="536" 
d="M405.5 467.5q50.5 -51.5 50.5 -146.5v-321h-87v60q-27 -33 -66 -51.5t-86 -18.5q-76 0 -121.5 38.5t-45.5 106.5q0 142 187 152l132 8v24q0 59 -26.5 91.5t-80.5 32.5q-53 0 -82 -31t-29 -75l-87 4q0 45 24 86t68.5 66.5t104.5 25.5q94 0 144.5 -51.5zM248 219
q-53 -4 -82 -23t-29 -59q0 -39 25 -56.5t68 -17.5q62 0 101 35t39 107v21zM430 744q0 -70 -42.5 -108t-114.5 -38t-114.5 38t-42.5 108h69q0 -38 23.5 -60t64.5 -22q40 0 64.5 22t24.5 60h68z" />
    <glyph glyph-name="Aogonek" unicode="&#x104;" horiz-adv-x="729" 
d="M681 -197l8 -45q-18 -8 -36.5 -12t-44.5 -4q-54 0 -87.5 26t-33.5 76q0 53 33 92.5t94 68.5l-75 185h-350l-77 -190h-100l313 748h78l313 -748h-41q-63 -36 -93 -70t-30 -80q0 -29 17.5 -44t49.5 -15q37 0 62 12zM365 613l-141 -342h281z" />
    <glyph glyph-name="aogonek" unicode="&#x105;" horiz-adv-x="536" 
d="M435 0q-62 -36 -92 -69.5t-30 -79.5q0 -29 17.5 -44t49.5 -15q37 0 62 12l8 -45q-18 -8 -36.5 -12t-44.5 -4q-54 0 -87.5 26t-33.5 76q0 52 31 90.5t90 67.5v57q-27 -33 -66 -51.5t-86 -18.5q-76 0 -121.5 38.5t-45.5 106.5q0 142 187 152l132 8v24q0 59 -26.5 91.5
t-80.5 32.5q-53 0 -82 -31t-29 -75l-87 4q0 45 24 86t68.5 66.5t104.5 25.5q94 0 144.5 -51.5t50.5 -146.5v-321h-21zM331 98q39 35 39 107v21l-122 -7q-53 -4 -82 -23t-29 -59q0 -39 25 -56.5t68 -17.5q62 0 101 35z" />
    <glyph glyph-name="Cacute" unicode="&#x106;" horiz-adv-x="803" 
d="M229.5 37q-83.5 47 -131 134t-47.5 203t47.5 203t130.5 134t187 47q88 0 162 -33.5t122 -96.5t59 -147l-95 -9q-14 96 -82 150t-167 54q-76 0 -137.5 -36.5t-97.5 -105t-36 -160.5q0 -93 35 -161t96.5 -104.5t140.5 -36.5q98 0 165 50.5t83 142.5l96 -8
q-14 -82 -61.5 -142t-120.5 -92.5t-161 -32.5q-104 0 -187.5 47zM511 946h127l-187 -141h-88z" />
    <glyph glyph-name="cacute" unicode="&#x107;" horiz-adv-x="572" 
d="M455.5 467.5q63.5 -51.5 74.5 -139.5l-84 -7q-7 57 -46.5 90t-98.5 33q-73 0 -118 -50t-45 -139t45.5 -139.5t117.5 -50.5q60 0 98.5 31t47.5 85l84 -8q-14 -85 -76 -134t-154 -49q-72 0 -129 31.5t-89.5 91.5t-32.5 142t32.5 141.5t89.5 91t129 31.5q91 0 154.5 -51.5z
M361 786h97l-132 -191h-69z" />
    <glyph glyph-name="Ccircumflex" unicode="&#x108;" horiz-adv-x="803" 
d="M229.5 37q-83.5 47 -131 134t-47.5 203t47.5 203t130.5 134t187 47q88 0 162 -33.5t122 -96.5t59 -147l-95 -9q-14 96 -82 150t-167 54q-76 0 -137.5 -36.5t-97.5 -105t-36 -160.5q0 -93 35 -161t96.5 -104.5t140.5 -36.5q98 0 165 50.5t83 142.5l96 -8
q-14 -82 -61.5 -142t-120.5 -92.5t-161 -32.5q-104 0 -187.5 47zM367 948h82l119 -143h-75l-85 90l-86 -90h-74z" />
    <glyph glyph-name="ccircumflex" unicode="&#x109;" horiz-adv-x="572" 
d="M455.5 467.5q63.5 -51.5 74.5 -139.5l-84 -7q-7 57 -46.5 90t-98.5 33q-73 0 -118 -50t-45 -139t45.5 -139.5t117.5 -50.5q60 0 98.5 31t47.5 85l84 -8q-14 -85 -76 -134t-154 -49q-72 0 -129 31.5t-89.5 91.5t-32.5 142t32.5 141.5t89.5 91t129 31.5q91 0 154.5 -51.5z
M252 765h82l120 -169h-74l-87 110l-87 -110h-74z" />
    <glyph glyph-name="Cdotaccent" unicode="&#x10a;" horiz-adv-x="803" 
d="M229.5 37q-83.5 47 -131 134t-47.5 203t47.5 203t130.5 134t187 47q88 0 162 -33.5t122 -96.5t59 -147l-95 -9q-14 96 -82 150t-167 54q-76 0 -137.5 -36.5t-97.5 -105t-36 -160.5q0 -93 35 -161t96.5 -104.5t140.5 -36.5q98 0 165 50.5t83 142.5l96 -8
q-14 -82 -61.5 -142t-120.5 -92.5t-161 -32.5q-104 0 -187.5 47zM449 917.5q17 -17.5 17 -40.5q0 -24 -17 -41t-40 -17q-24 0 -41.5 17t-17.5 41q0 23 17.5 40.5t41.5 17.5q23 0 40 -17.5z" />
    <glyph glyph-name="cdotaccent" unicode="&#x10b;" horiz-adv-x="572" 
d="M455.5 467.5q63.5 -51.5 74.5 -139.5l-84 -7q-7 57 -46.5 90t-98.5 33q-73 0 -118 -50t-45 -139t45.5 -139.5t117.5 -50.5q60 0 98.5 31t47.5 85l84 -8q-14 -85 -76 -134t-154 -49q-72 0 -129 31.5t-89.5 91.5t-32.5 142t32.5 141.5t89.5 91t129 31.5q91 0 154.5 -51.5z
M334 721.5q17 -17.5 17 -40.5q0 -24 -17 -41t-40 -17q-24 0 -41.5 17t-17.5 41q0 23 17.5 40.5t41.5 17.5q23 0 40 -17.5z" />
    <glyph glyph-name="Ccaron" unicode="&#x10c;" horiz-adv-x="803" 
d="M229.5 37q-83.5 47 -131 134t-47.5 203t47.5 203t130.5 134t187 47q88 0 162 -33.5t122 -96.5t59 -147l-95 -9q-14 96 -82 150t-167 54q-76 0 -137.5 -36.5t-97.5 -105t-36 -160.5q0 -93 35 -161t96.5 -104.5t140.5 -36.5q98 0 165 50.5t83 142.5l96 -8
q-14 -82 -61.5 -142t-120.5 -92.5t-161 -32.5q-104 0 -187.5 47zM493 948h75l-119 -143h-82l-119 143h74l86 -90z" />
    <glyph glyph-name="ccaron" unicode="&#x10d;" horiz-adv-x="572" 
d="M455.5 467.5q63.5 -51.5 74.5 -139.5l-84 -7q-7 57 -46.5 90t-98.5 33q-73 0 -118 -50t-45 -139t45.5 -139.5t117.5 -50.5q60 0 98.5 31t47.5 85l84 -8q-14 -85 -76 -134t-154 -49q-72 0 -129 31.5t-89.5 91.5t-32.5 142t32.5 141.5t89.5 91t129 31.5q91 0 154.5 -51.5z
M380 762h74l-120 -168h-82l-120 168h74l87 -110z" />
    <glyph glyph-name="Dcaron" unicode="&#x10e;" horiz-adv-x="790" 
d="M380 748q103 0 184.5 -44.5t128 -129.5t46.5 -200t-47 -199.5t-129 -129.5t-185 -45h-291v748h293zM178 670v-592h200q79 0 140 34t95.5 101t34.5 161t-34 161t-94.5 101t-139.5 34h-202zM433 948h75l-119 -143h-82l-119 143h74l86 -90z" />
    <glyph glyph-name="dcaron" unicode="&#x10f;" horiz-adv-x="653" 
d="M715.5 762q12.5 -16 12.5 -43q0 -114 -99 -172v33q46 37 52 95q-21 0 -36 15t-15 36q0 22 14 37t36 15q23 0 35.5 -16zM472 777h86v-777h-82v83q-22 -42 -69 -67.5t-111 -25.5q-70 0 -126 32t-88 92t-32 140q0 81 32 141t88 92t126 32q62 0 108 -23.5t68 -62.5v344z
M472 270q0 84 -45.5 129t-118.5 45q-75 0 -123 -50t-48 -139q0 -90 48 -140t123 -50q73 0 118.5 45.5t45.5 129.5v30z" />
    <glyph glyph-name="Dcroat" unicode="&#x110;" horiz-adv-x="820" 
d="M410 748q103 0 184.5 -44.5t128 -129.5t46.5 -200t-47 -199.5t-129 -129.5t-185 -45h-291v339h-107v70h107v339h293zM408 78q79 0 140 34t95.5 101t34.5 161t-34 161t-94.5 101t-139.5 34h-202v-261h150v-70h-150v-261h200z" />
    <glyph glyph-name="dcroat" unicode="&#x111;" horiz-adv-x="643" 
d="M645 677v-65h-87v-612h-82v83q-22 -42 -69 -67.5t-111 -25.5q-70 0 -126 32t-88 92t-32 140q0 81 32 141t88 92t126 32q62 0 108 -23.5t68 -62.5v179h-143v65h143v100h86v-100h87zM472 270q0 84 -45.5 129t-118.5 45q-75 0 -123 -50t-48 -139q0 -90 48 -140t123 -50
q73 0 118.5 45.5t45.5 129.5v30z" />
    <glyph glyph-name="Emacron" unicode="&#x112;" horiz-adv-x="592" 
d="M87 748h463v-80h-371v-242h327v-79h-327v-266h371v-81h-463v748zM171 909h304v-63h-304v63z" />
    <glyph glyph-name="emacron" unicode="&#x113;" 
d="M535 222h-394q4 -73 48 -115t112 -42q56 0 93 24t49 67l87 -5q-16 -70 -78 -115.5t-149 -45.5q-73 0 -130.5 32t-90 92t-32.5 141t32 141t89 91.5t130 31.5q109 0 171.5 -68t62.5 -182v-47zM188.5 404q-43.5 -40 -47.5 -113h308q-1 70 -39.5 111.5t-109.5 41.5
q-68 0 -111.5 -40zM157 700h284v-63h-284v63z" />
    <glyph glyph-name="Ebreve" unicode="&#x114;" horiz-adv-x="592" 
d="M87 748h463v-80h-371v-242h327v-79h-327v-266h371v-81h-463v748zM479 955q0 -67 -42.5 -103.5t-114.5 -36.5t-114.5 36.5t-42.5 103.5h69q0 -36 23.5 -56.5t64.5 -20.5q40 0 64.5 20.5t24.5 56.5h68z" />
    <glyph glyph-name="ebreve" unicode="&#x115;" 
d="M535 222h-394q4 -73 48 -115t112 -42q56 0 93 24t49 67l87 -5q-16 -70 -78 -115.5t-149 -45.5q-73 0 -130.5 32t-90 92t-32.5 141t32 141t89 91.5t130 31.5q109 0 171.5 -68t62.5 -182v-47zM188.5 404q-43.5 -40 -47.5 -113h308q-1 70 -39.5 111.5t-109.5 41.5
q-68 0 -111.5 -40zM455 744q0 -70 -42.5 -108t-114.5 -38t-114.5 38t-42.5 108h69q0 -38 23.5 -60t64.5 -22q40 0 64.5 22t24.5 60h68z" />
    <glyph glyph-name="Edotaccent" unicode="&#x116;" horiz-adv-x="592" 
d="M87 748h463v-80h-371v-242h327v-79h-327v-266h371v-81h-463v748zM364 917.5q17 -17.5 17 -40.5q0 -24 -17 -41t-40 -17q-24 0 -41.5 17t-17.5 41q0 23 17.5 40.5t41.5 17.5q23 0 40 -17.5z" />
    <glyph glyph-name="edotaccent" unicode="&#x117;" 
d="M535 222h-394q4 -73 48 -115t112 -42q56 0 93 24t49 67l87 -5q-16 -70 -78 -115.5t-149 -45.5q-73 0 -130.5 32t-90 92t-32.5 141t32 141t89 91.5t130 31.5q109 0 171.5 -68t62.5 -182v-47zM188.5 404q-43.5 -40 -47.5 -113h308q-1 70 -39.5 111.5t-109.5 41.5
q-68 0 -111.5 -40zM340 721.5q17 -17.5 17 -40.5q0 -24 -17 -41t-40 -17q-24 0 -41.5 17t-17.5 41q0 23 17.5 40.5t41.5 17.5q23 0 40 -17.5z" />
    <glyph glyph-name="Eogonek" unicode="&#x118;" horiz-adv-x="592" 
d="M553 -242q-18 -8 -36.5 -12t-44.5 -4q-54 0 -87.5 26t-33.5 76q0 97 117 156h-381v748h463v-80h-371v-242h327v-79h-327v-266h371v-81h-11q-63 -36 -93 -70t-30 -80q0 -29 17.5 -44t49.5 -15q37 0 62 12z" />
    <glyph glyph-name="eogonek" unicode="&#x119;" 
d="M535 222h-394q4 -73 48 -115t112 -42q56 0 93 24t49 67l87 -5q-8 -38 -31.5 -69.5t-58.5 -53.5q-53 -34 -79.5 -72.5t-26.5 -89.5q0 -34 17.5 -53t48.5 -19q36 0 62 12l9 -45q-19 -8 -37.5 -12t-43.5 -4q-54 0 -87.5 30t-33.5 85q0 76 71 132q-24 -2 -37 -2
q-73 0 -130.5 32t-90 92t-32.5 141t32 141t89 91.5t130 31.5q109 0 171.5 -68t62.5 -182v-47zM188.5 404q-43.5 -40 -47.5 -113h308q-1 70 -39.5 111.5t-109.5 41.5q-68 0 -111.5 -40z" />
    <glyph glyph-name="Ecaron" unicode="&#x11a;" horiz-adv-x="592" 
d="M87 748h463v-80h-371v-242h327v-79h-327v-266h371v-81h-463v748zM408 948h75l-119 -143h-82l-119 143h74l86 -90z" />
    <glyph glyph-name="ecaron" unicode="&#x11b;" 
d="M535 222h-394q4 -73 48 -115t112 -42q56 0 93 24t49 67l87 -5q-16 -70 -78 -115.5t-149 -45.5q-73 0 -130.5 32t-90 92t-32.5 141t32 141t89 91.5t130 31.5q109 0 171.5 -68t62.5 -182v-47zM188.5 404q-43.5 -40 -47.5 -113h308q-1 70 -39.5 111.5t-109.5 41.5
q-68 0 -111.5 -40zM386 762h74l-120 -168h-82l-120 168h74l87 -110z" />
    <glyph glyph-name="Gcircumflex" unicode="&#x11c;" horiz-adv-x="809" 
d="M417 380h344v-31q0 -110 -42 -191t-120 -124.5t-183 -43.5q-104 0 -187 46t-130.5 133t-47.5 205q0 119 47 205.5t129.5 132.5t187.5 46q86 0 158 -31.5t120 -91.5t62 -142l-94 -15q-14 92 -81 145t-165 53q-80 0 -141.5 -34.5t-96 -102.5t-34.5 -165t34.5 -165
t96 -102.5t141.5 -34.5q105 0 171.5 57t77.5 170h-247v81zM370 948h82l119 -143h-75l-85 90l-86 -90h-74z" />
    <glyph glyph-name="gcircumflex" unicode="&#x11d;" horiz-adv-x="638" 
d="M146.5 -214.5q-63.5 49.5 -79.5 131.5l86 3q9 -51 52.5 -80.5t105.5 -29.5q73 0 117 40.5t44 114.5v111q-22 -39 -68 -62.5t-108 -23.5q-70 0 -126 32t-88 92t-32 141q0 80 32 140t88 92t126 32q64 0 111 -25.5t69 -67.5v84h82v-539q0 -72 -30.5 -125t-85.5 -81.5
t-128 -28.5q-104 0 -167.5 49.5zM426.5 110q45.5 45 45.5 129v30q0 84 -45.5 129.5t-118.5 45.5q-75 0 -123 -50t-48 -140q0 -89 48 -139t123 -50q73 0 118.5 45zM273 765h82l120 -169h-74l-87 110l-87 -110h-74z" />
    <glyph glyph-name="Gbreve" unicode="&#x11e;" horiz-adv-x="809" 
d="M417 380h344v-31q0 -110 -42 -191t-120 -124.5t-183 -43.5q-104 0 -187 46t-130.5 133t-47.5 205q0 119 47 205.5t129.5 132.5t187.5 46q86 0 158 -31.5t120 -91.5t62 -142l-94 -15q-14 92 -81 145t-165 53q-80 0 -141.5 -34.5t-96 -102.5t-34.5 -165t34.5 -165
t96 -102.5t141.5 -34.5q105 0 171.5 57t77.5 170h-247v81zM567 955q0 -67 -42.5 -103.5t-114.5 -36.5t-114.5 36.5t-42.5 103.5h69q0 -36 23.5 -56.5t64.5 -20.5q40 0 64.5 20.5t24.5 56.5h68z" />
    <glyph glyph-name="gbreve" unicode="&#x11f;" horiz-adv-x="638" 
d="M146.5 -214.5q-63.5 49.5 -79.5 131.5l86 3q9 -51 52.5 -80.5t105.5 -29.5q73 0 117 40.5t44 114.5v111q-22 -39 -68 -62.5t-108 -23.5q-70 0 -126 32t-88 92t-32 141q0 80 32 140t88 92t126 32q64 0 111 -25.5t69 -67.5v84h82v-539q0 -72 -30.5 -125t-85.5 -81.5
t-128 -28.5q-104 0 -167.5 49.5zM426.5 110q45.5 45 45.5 129v30q0 84 -45.5 129.5t-118.5 45.5q-75 0 -123 -50t-48 -140q0 -89 48 -139t123 -50q73 0 118.5 45zM470 744q0 -70 -42.5 -108t-114.5 -38t-114.5 38t-42.5 108h69q0 -38 23.5 -60t64.5 -22q40 0 64.5 22
t24.5 60h68z" />
    <glyph glyph-name="Gdotaccent" unicode="&#x120;" horiz-adv-x="809" 
d="M417 380h344v-31q0 -110 -42 -191t-120 -124.5t-183 -43.5q-104 0 -187 46t-130.5 133t-47.5 205q0 119 47 205.5t129.5 132.5t187.5 46q86 0 158 -31.5t120 -91.5t62 -142l-94 -15q-14 92 -81 145t-165 53q-80 0 -141.5 -34.5t-96 -102.5t-34.5 -165t34.5 -165
t96 -102.5t141.5 -34.5q105 0 171.5 57t77.5 170h-247v81zM452 917.5q17 -17.5 17 -40.5q0 -24 -17 -41t-40 -17q-24 0 -41.5 17t-17.5 41q0 23 17.5 40.5t41.5 17.5q23 0 40 -17.5z" />
    <glyph glyph-name="gdotaccent" unicode="&#x121;" horiz-adv-x="638" 
d="M146.5 -214.5q-63.5 49.5 -79.5 131.5l86 3q9 -51 52.5 -80.5t105.5 -29.5q73 0 117 40.5t44 114.5v111q-22 -39 -68 -62.5t-108 -23.5q-70 0 -126 32t-88 92t-32 141q0 80 32 140t88 92t126 32q64 0 111 -25.5t69 -67.5v84h82v-539q0 -72 -30.5 -125t-85.5 -81.5
t-128 -28.5q-104 0 -167.5 49.5zM426.5 110q45.5 45 45.5 129v30q0 84 -45.5 129.5t-118.5 45.5q-75 0 -123 -50t-48 -140q0 -89 48 -139t123 -50q73 0 118.5 45zM355 721.5q17 -17.5 17 -40.5q0 -24 -17 -41t-40 -17q-24 0 -41.5 17t-17.5 41q0 23 17.5 40.5t41.5 17.5
q23 0 40 -17.5z" />
    <glyph glyph-name="uni0122" unicode="&#x122;" horiz-adv-x="809" 
d="M417 380h344v-31q0 -110 -42 -191t-120 -124.5t-183 -43.5q-104 0 -187 46t-130.5 133t-47.5 205q0 119 47 205.5t129.5 132.5t187.5 46q86 0 158 -31.5t120 -91.5t62 -142l-94 -15q-14 92 -81 145t-165 53q-80 0 -141.5 -34.5t-96 -102.5t-34.5 -165t34.5 -165
t96 -102.5t141.5 -34.5q105 0 171.5 57t77.5 170h-247v81zM459.5 -61q14.5 -17 14.5 -46q0 -121 -112 -182v36q52 37 58 100q-23 0 -40 16t-17 38q0 23 16 39t40 16q26 0 40.5 -17z" />
    <glyph glyph-name="uni0123" unicode="&#x123;" horiz-adv-x="638" 
d="M266.5 586q-14.5 17 -14.5 46q0 121 112 182v-36q-52 -37 -58 -100q23 0 40 -16t17 -38q0 -23 -16 -39t-40 -16q-26 0 -40.5 17zM476 510h82v-539q0 -72 -30.5 -125t-85.5 -81.5t-128 -28.5q-104 0 -167.5 49.5t-79.5 131.5l86 3q9 -51 52.5 -80.5t105.5 -29.5
q73 0 117 40.5t44 114.5v111q-22 -39 -68 -62.5t-108 -23.5q-70 0 -126 32t-88 92t-32 141q0 80 32 140t88 92t126 32q64 0 111 -25.5t69 -67.5v84zM472 269q0 84 -45.5 129.5t-118.5 45.5q-75 0 -123 -50t-48 -140q0 -89 48 -139t123 -50q73 0 118.5 45t45.5 129v30z" />
    <glyph glyph-name="Hcircumflex" unicode="&#x124;" horiz-adv-x="747" 
d="M569 748h91v-748h-91v347h-390v-347h-92v748h92v-320h390v320zM333 948h82l119 -143h-75l-85 90l-86 -90h-74z" />
    <glyph glyph-name="hcircumflex" unicode="&#x125;" horiz-adv-x="597" 
d="M171 440q18 33 58.5 56t95.5 23q57 0 102 -25.5t70 -73t25 -110.5v-310h-86v299q0 63 -35.5 101.5t-93.5 38.5q-60 0 -98 -40.5t-38 -100.5v-298h-87v777h87v-337zM88 951h82l119 -143h-75l-85 90l-86 -90h-74z" />
    <glyph glyph-name="Hbar" unicode="&#x126;" horiz-adv-x="757" 
d="M665 620h88v-70h-88v-550h-91v347h-390v-347h-92v550h-87v70h87v128h92v-128h390v128h91v-128zM184 428h390v122h-390v-122z" />
    <glyph glyph-name="hbar" unicode="&#x127;" horiz-adv-x="597" 
d="M427 493.5q45 -25.5 70 -73t25 -110.5v-310h-86v299q0 63 -35.5 101.5t-93.5 38.5q-60 0 -98 -40.5t-38 -100.5v-298h-87v612h-86v65h86v100h87v-100h143v-65h-143v-172q18 33 58.5 56t95.5 23q57 0 102 -25.5z" />
    <glyph glyph-name="Itilde" unicode="&#x128;" horiz-adv-x="266" 
d="M87 748h92v-748h-92v748zM102 936.5q17 -8.5 38 -24.5q18 -14 31 -20.5t28 -6.5q24 0 36 14.5t13 38.5h51q2 -49 -23 -83.5t-68 -34.5q-22 0 -39 8.5t-38 24.5q-18 14 -31 20.5t-28 6.5q-23 0 -36 -15t-13 -38h-50q-3 49 22 83.5t68 34.5q22 0 39 -8.5z" />
    <glyph glyph-name="itilde" unicode="&#x129;" horiz-adv-x="255" 
d="M84 510h87v-510h-87v510zM95 727.5q17 -8.5 38 -24.5q18 -14 31 -21t28 -7q24 0 36 14.5t13 39.5h51q2 -49 -23 -84t-68 -35q-22 0 -39 8.5t-38 24.5q-18 14 -31 20.5t-28 6.5q-23 0 -36 -15t-13 -38h-50q-3 49 22 84t68 35q22 0 39 -8.5z" />
    <glyph glyph-name="Imacron" unicode="&#x12a;" horiz-adv-x="266" 
d="M87 748h92v-748h-92v748zM-16 909h304v-63h-304v63z" />
    <glyph glyph-name="imacron" unicode="&#x12b;" horiz-adv-x="255" 
d="M84 510h87v-510h-87v510zM-12 700h284v-63h-284v63z" />
    <glyph glyph-name="Ibreve" unicode="&#x12c;" horiz-adv-x="266" 
d="M87 748h92v-748h-92v748zM292 955q0 -67 -42.5 -103.5t-114.5 -36.5t-114.5 36.5t-42.5 103.5h69q0 -36 23.5 -56.5t64.5 -20.5q40 0 64.5 20.5t24.5 56.5h68z" />
    <glyph glyph-name="ibreve" unicode="&#x12d;" horiz-adv-x="255" 
d="M84 510h87v-510h-87v510zM286 744q0 -70 -42.5 -108t-114.5 -38t-114.5 38t-42.5 108h69q0 -38 23.5 -60t64.5 -22q40 0 64.5 22t24.5 60h68z" />
    <glyph glyph-name="Iogonek" unicode="&#x12e;" horiz-adv-x="266" 
d="M140 0q-62 -36 -92 -69.5t-30 -79.5q0 -29 17.5 -44t49.5 -15q37 0 62 12l8 -45q-18 -8 -36.5 -12t-44.5 -4q-54 0 -87.5 26t-33.5 76q0 103 134 164v739h92v-748h-39z" />
    <glyph glyph-name="iogonek" unicode="&#x12f;" horiz-adv-x="255" 
d="M89.5 640q-17.5 17 -17.5 41q0 23 17.5 40.5t41.5 17.5q23 0 40 -17.5t17 -40.5q0 -24 -17 -41t-40 -17q-24 0 -41.5 17zM165 -196l8 -45q-18 -8 -36.5 -12t-44.5 -4q-54 0 -87.5 26t-33.5 76q0 96 115 155h-2v510h87v-510h-13q-62 -36 -92 -69.5t-30 -79.5
q0 -29 17.5 -44t49.5 -15q36 0 62 12z" />
    <glyph glyph-name="Idotaccent" unicode="&#x130;" horiz-adv-x="266" 
d="M87 748h92v-748h-92v748zM177 917.5q17 -17.5 17 -40.5q0 -24 -17 -41t-40 -17q-24 0 -41.5 17t-17.5 41q0 23 17.5 40.5t41.5 17.5q23 0 40 -17.5z" />
    <glyph glyph-name="dotlessi" unicode="&#x131;" horiz-adv-x="255" 
d="M84 510h87v-510h-87v510z" />
    <glyph glyph-name="IJ" unicode="&#x132;" horiz-adv-x="829" 
d="M87 748h92v-748h-92v748zM748 237q0 -118 -62 -182.5t-171 -64.5q-106 0 -169.5 62.5t-69.5 170.5l92 15q4 -79 42.5 -122.5t104.5 -43.5q67 0 104 42t37 121v513h92v-511z" />
    <glyph glyph-name="ij" unicode="&#x133;" horiz-adv-x="505" 
d="M168 734.5q17 -16.5 17 -40.5q0 -23 -17 -39.5t-40 -16.5q-24 0 -40.5 16.5t-16.5 39.5q0 24 17 40.5t40 16.5t40 -16.5zM84 510h87v-510h-87v510zM418 734.5q17 -16.5 17 -40.5q0 -23 -17 -39.5t-40 -16.5q-24 0 -40.5 16.5t-16.5 39.5q0 24 16.5 40.5t40.5 16.5
q23 0 40 -16.5zM422 -75q0 -88 -47 -136.5t-127 -48.5q-14 0 -40 2v77q13 -3 30 -3q46 0 71.5 27.5t25.5 78.5v588h87v-585z" />
    <glyph glyph-name="Jcircumflex" unicode="&#x134;" horiz-adv-x="573" 
d="M492 237q0 -118 -62 -182.5t-171 -64.5q-106 0 -169.5 62.5t-69.5 170.5l92 15q4 -79 42.5 -122.5t104.5 -43.5q67 0 104 42t37 121v513h92v-511zM410 948h82l119 -143h-75l-85 90l-86 -90h-74z" />
    <glyph glyph-name="jcircumflex" unicode="&#x135;" horiz-adv-x="260" 
d="M177 -75q0 -88 -47 -136.5t-127 -48.5q-14 0 -40 2v77q13 -3 30 -3q46 0 71.5 27.5t25.5 78.5v588h87v-585zM92 765h82l120 -169h-74l-87 110l-87 -110h-74z" />
    <glyph glyph-name="uni0136" unicode="&#x136;" horiz-adv-x="670" 
d="M498 748h118l-286 -318l327 -430h-114l-274 358l-90 -101v-257h-92v748h92v-355zM392.5 -56q14.5 -17 14.5 -46q0 -121 -112 -182v36q52 37 58 100q-23 0 -40 16t-17 38q0 23 16 39t40 16q26 0 40.5 -17z" />
    <glyph glyph-name="uni0137" unicode="&#x137;" horiz-adv-x="532" 
d="M84 777h87v-492l224 225h106l-215 -222l239 -288h-110l-190 225l-54 -55v-170h-87v777zM331.5 -56q14.5 -17 14.5 -46q0 -121 -112 -182v36q52 37 58 100q-23 0 -40 16t-17 38q0 23 16 39t40 16q26 0 40.5 -17z" />
    <glyph glyph-name="Lacute" unicode="&#x139;" horiz-adv-x="576" 
d="M87 748h92v-667h375v-81h-467v748zM240 946h127l-187 -141h-88z" />
    <glyph glyph-name="lacute" unicode="&#x13a;" horiz-adv-x="255" 
d="M84 777h87v-777h-87v777zM234 960h127l-187 -141h-88z" />
    <glyph glyph-name="uni013B" unicode="&#x13b;" horiz-adv-x="576" 
d="M87 748h92v-667h375v-81h-467v748zM376.5 -56q14.5 -17 14.5 -46q0 -121 -112 -182v36q52 37 58 100q-23 0 -40 16t-17 38q0 23 16 39t40 16q26 0 40.5 -17z" />
    <glyph glyph-name="uni013C" unicode="&#x13c;" horiz-adv-x="255" 
d="M84 777h87v-777h-87v777zM175.5 -56q14.5 -17 14.5 -46q0 -121 -112 -182v36q52 37 58 100q-23 0 -40 16t-17 38q0 23 16 39t40 16q26 0 40.5 -17z" />
    <glyph glyph-name="Lcaron" unicode="&#x13d;" horiz-adv-x="576" 
d="M261 518v33q46 37 52 95q-21 0 -36 15t-15 36q0 22 14 37t36 15q23 0 35.5 -16t12.5 -43q0 -114 -99 -172zM179 748v-667h375v-81h-467v748h92z" />
    <glyph glyph-name="lcaron" unicode="&#x13e;" horiz-adv-x="265" 
d="M329 764q13 -16 13 -44q0 -116 -101 -176v35q47 37 53 96q-22 0 -37 15t-15 37t14.5 37.5t35.5 15.5q24 0 37 -16zM171 0h-87v777h87v-777z" />
    <glyph glyph-name="Ldot" unicode="&#x13f;" horiz-adv-x="576" 
d="M87 748h92v-667h375v-81h-467v748zM469.5 430.5q17.5 -17.5 17.5 -42.5t-17.5 -42t-43.5 -17q-23 0 -40.5 17.5t-17.5 41.5q0 25 17 42.5t41 17.5q26 0 43.5 -17.5z" />
    <glyph glyph-name="ldot" unicode="&#x140;" horiz-adv-x="365" 
d="M84 777h87v-777h-87v777zM351.5 397.5q17.5 -17.5 17.5 -42.5t-17.5 -42t-43.5 -17q-23 0 -40.5 17.5t-17.5 41.5q0 25 17 42.5t41 17.5q26 0 43.5 -17.5z" />
    <glyph glyph-name="Lslash" unicode="&#x141;" horiz-adv-x="588" 
d="M191 377v-296h375v-81h-467v342l-97 -42v75l97 42v331h92v-297l123 55v-74z" />
    <glyph glyph-name="lslash" unicode="&#x142;" horiz-adv-x="277" 
d="M183 462l104 37v-74l-104 -37v-388h-87v362l-105 -38v75l105 38v340h87v-315z" />
    <glyph glyph-name="Nacute" unicode="&#x143;" horiz-adv-x="744" 
d="M565 748h92v-748h-77l-401 578v-578h-92v748h77l401 -579v579zM472 946h127l-187 -141h-88z" />
    <glyph glyph-name="nacute" unicode="&#x144;" horiz-adv-x="603" 
d="M427 493.5q45 -25.5 70 -73t25 -110.5v-310h-86v299q0 63 -35.5 101.5t-93.5 38.5q-60 0 -98 -40.5t-38 -100.5v-298h-87v510h82v-77q20 38 61 62t98 24t102 -25.5zM379 786h97l-132 -191h-69z" />
    <glyph glyph-name="uni0145" unicode="&#x145;" horiz-adv-x="744" 
d="M565 748h92v-748h-77l-401 578v-578h-92v748h77l401 -579v579zM426.5 -56q14.5 -17 14.5 -46q0 -121 -112 -182v36q52 37 58 100q-23 0 -40 16t-17 38q0 23 16 39t40 16q26 0 40.5 -17z" />
    <glyph glyph-name="uni0146" unicode="&#x146;" horiz-adv-x="603" 
d="M427 493.5q45 -25.5 70 -73t25 -110.5v-310h-86v299q0 63 -35.5 101.5t-93.5 38.5q-60 0 -98 -40.5t-38 -100.5v-298h-87v510h82v-77q20 38 61 62t98 24t102 -25.5zM355.5 -56q14.5 -17 14.5 -46q0 -121 -112 -182v36q52 37 58 100q-23 0 -40 16t-17 38q0 23 16 39t40 16
q26 0 40.5 -17z" />
    <glyph glyph-name="Ncaron" unicode="&#x147;" horiz-adv-x="744" 
d="M565 748h92v-748h-77l-401 578v-578h-92v748h77l401 -579v579zM454 948h75l-119 -143h-82l-119 143h74l86 -90z" />
    <glyph glyph-name="ncaron" unicode="&#x148;" horiz-adv-x="603" 
d="M427 493.5q45 -25.5 70 -73t25 -110.5v-310h-86v299q0 63 -35.5 101.5t-93.5 38.5q-60 0 -98 -40.5t-38 -100.5v-298h-87v510h82v-77q20 38 61 62t98 24t102 -25.5zM398 762h74l-120 -168h-82l-120 168h74l87 -110z" />
    <glyph glyph-name="Eng" unicode="&#x14a;" horiz-adv-x="744" 
d="M657 748v-781q0 -66 -28.5 -116.5t-81 -78t-124.5 -27.5v80q67 0 104.5 42.5t37.5 121.5v33l-386 556v-578h-92v748h77l401 -579v579h92z" />
    <glyph glyph-name="eng" unicode="&#x14b;" horiz-adv-x="603" 
d="M522 164h1v-239q0 -88 -47.5 -136.5t-131.5 -48.5v75q41 0 66.5 28t25.5 79v377q0 63 -35.5 101.5t-93.5 38.5q-60 0 -98 -40.5t-38 -100.5v-298h-87v510h82v-77q20 38 61 62t98 24t102 -25.5t70 -73t25 -110.5v-146z" />
    <glyph glyph-name="Omacron" unicode="&#x14c;" horiz-adv-x="844" 
d="M611.5 711q84.5 -47 133 -134t48.5 -203t-48.5 -203t-133 -134t-189.5 -47t-189.5 47t-133 134t-48.5 203t48.5 203t133 134t189.5 47t189.5 -47zM279.5 640q-63.5 -36 -100 -104.5t-36.5 -161.5t36.5 -161t100 -104.5t142.5 -36.5t142 36.5t99.5 104.5t36.5 161
t-36.5 161.5t-99.5 104.5t-142 36t-142.5 -36zM261 909h304v-63h-304v63z" />
    <glyph glyph-name="omacron" unicode="&#x14d;" horiz-adv-x="625" 
d="M445.5 486.5q59.5 -32.5 94 -92.5t34.5 -139t-34.5 -139.5t-94 -93t-133.5 -32.5t-133.5 32.5t-94 93t-34.5 139.5t34.5 139t94 92.5t133.5 32.5t133.5 -32.5zM222.5 421.5q-39.5 -22.5 -62.5 -65.5t-23 -101t23 -101t62.5 -66t89.5 -23t89.5 23t62.5 66t23 101t-23 101
t-62.5 65.5t-89.5 22.5t-89.5 -22.5zM170 700h284v-63h-284v63z" />
    <glyph glyph-name="Obreve" unicode="&#x14e;" horiz-adv-x="844" 
d="M611.5 711q84.5 -47 133 -134t48.5 -203t-48.5 -203t-133 -134t-189.5 -47t-189.5 47t-133 134t-48.5 203t48.5 203t133 134t189.5 47t189.5 -47zM279.5 640q-63.5 -36 -100 -104.5t-36.5 -161.5t36.5 -161t100 -104.5t142.5 -36.5t142 36.5t99.5 104.5t36.5 161
t-36.5 161.5t-99.5 104.5t-142 36t-142.5 -36zM569 955q0 -67 -42.5 -103.5t-114.5 -36.5t-114.5 36.5t-42.5 103.5h69q0 -36 23.5 -56.5t64.5 -20.5q40 0 64.5 20.5t24.5 56.5h68z" />
    <glyph glyph-name="obreve" unicode="&#x14f;" horiz-adv-x="625" 
d="M445.5 486.5q59.5 -32.5 94 -92.5t34.5 -139t-34.5 -139.5t-94 -93t-133.5 -32.5t-133.5 32.5t-94 93t-34.5 139.5t34.5 139t94 92.5t133.5 32.5t133.5 -32.5zM222.5 421.5q-39.5 -22.5 -62.5 -65.5t-23 -101t23 -101t62.5 -66t89.5 -23t89.5 23t62.5 66t23 101t-23 101
t-62.5 65.5t-89.5 22.5t-89.5 -22.5zM468 744q0 -70 -42.5 -108t-114.5 -38t-114.5 38t-42.5 108h69q0 -38 23.5 -60t64.5 -22q40 0 64.5 22t24.5 60h68z" />
    <glyph glyph-name="Ohungarumlaut" unicode="&#x150;" horiz-adv-x="844" 
d="M611.5 711q84.5 -47 133 -134t48.5 -203t-48.5 -203t-133 -134t-189.5 -47t-189.5 47t-133 134t-48.5 203t48.5 203t133 134t189.5 47t189.5 -47zM279.5 640q-63.5 -36 -100 -104.5t-36.5 -161.5t36.5 -161t100 -104.5t142.5 -36.5t142 36.5t99.5 104.5t36.5 161
t-36.5 161.5t-99.5 104.5t-142 36t-142.5 -36zM348 956h82l-74 -148h-69zM518 956h82l-74 -148h-69z" />
    <glyph glyph-name="ohungarumlaut" unicode="&#x151;" horiz-adv-x="625" 
d="M445.5 486.5q59.5 -32.5 94 -92.5t34.5 -139t-34.5 -139.5t-94 -93t-133.5 -32.5t-133.5 32.5t-94 93t-34.5 139.5t34.5 139t94 92.5t133.5 32.5t133.5 -32.5zM222.5 421.5q-39.5 -22.5 -62.5 -65.5t-23 -101t23 -101t62.5 -66t89.5 -23t89.5 23t62.5 66t23 101t-23 101
t-62.5 65.5t-89.5 22.5t-89.5 -22.5zM250 763h82l-76 -158h-68zM420 763h83l-77 -158h-68z" />
    <glyph glyph-name="OE" unicode="&#x152;" horiz-adv-x="1195" 
d="M1153 668h-371v-242h327v-79h-327v-266h371v-81h-463v114q-49 -60 -119.5 -92t-153.5 -32q-104 0 -187 47t-131 134t-48 203t48 203t131 134t187 47q83 0 153.5 -32t119.5 -92v114h463v-80zM556.5 108.5q62.5 36.5 98 104.5t35.5 161t-35.5 161.5t-97.5 104.5t-140 36
t-140 -36t-98 -104.5t-36 -161.5t36 -161t98 -104.5t140 -36.5q77 0 139.5 36.5z" />
    <glyph glyph-name="oe" unicode="&#x153;" horiz-adv-x="996" 
d="M946 222h-385q4 -72 46.5 -114.5t108.5 -42.5q54 0 90.5 24t48.5 67l86 -5q-16 -70 -77 -115.5t-145 -45.5q-66 0 -119 27.5t-84 78.5q-33 -50 -88 -78t-121 -28q-73 0 -131.5 32.5t-92 93t-33.5 139.5t33.5 139t92 92.5t131.5 32.5q67 0 121.5 -27.5t86.5 -77.5
q31 51 83.5 78t118.5 27q106 0 167.5 -68t61.5 -182v-47zM394.5 88q38.5 23 61 66t22.5 101t-22.5 101t-61 65.5t-86.5 22.5q-49 0 -88 -22.5t-61 -65.5t-22 -101t22.5 -101t61 -66t87.5 -23q48 0 86.5 23zM607 404q-42 -40 -46 -113h299q-1 70 -38.5 111.5t-106.5 41.5
q-66 0 -108 -40z" />
    <glyph glyph-name="Racute" unicode="&#x154;" horiz-adv-x="680" 
d="M645 0h-103l-167 299h-196v-299h-92v748h289q66 0 118 -25.5t82 -76t30 -122.5q0 -80 -36.5 -133.5t-99.5 -76.5zM178 381h187q64 0 105.5 36.5t41.5 106.5t-41.5 107t-105.5 37h-187v-287zM414 946h127l-187 -141h-88z" />
    <glyph glyph-name="racute" unicode="&#x155;" horiz-adv-x="354" 
d="M338 433q-48 0 -86 -18.5t-59.5 -51t-21.5 -71.5v-292h-87v510h84v-77q19 34 63.5 58.5t106.5 24.5v-83zM266 786h97l-132 -191h-69z" />
    <glyph glyph-name="uni0156" unicode="&#x156;" horiz-adv-x="680" 
d="M645 0h-103l-167 299h-196v-299h-92v748h289q66 0 118 -25.5t82 -76t30 -122.5q0 -80 -36.5 -133.5t-99.5 -76.5zM178 381h187q64 0 105.5 36.5t41.5 106.5t-41.5 107t-105.5 37h-187v-287zM398.5 -56q14.5 -17 14.5 -46q0 -121 -112 -182v36q52 37 58 100q-23 0 -40 16
t-17 38q0 23 16 39t40 16q26 0 40.5 -17z" />
    <glyph glyph-name="uni0157" unicode="&#x157;" horiz-adv-x="354" 
d="M338 433q-48 0 -86 -18.5t-59.5 -51t-21.5 -71.5v-292h-87v510h84v-77q19 34 63.5 58.5t106.5 24.5v-83zM177.5 -56q14.5 -17 14.5 -46q0 -121 -112 -182v36q52 37 58 100q-23 0 -40 16t-17 38q0 23 16 39t40 16q26 0 40.5 -17z" />
    <glyph glyph-name="Rcaron" unicode="&#x158;" horiz-adv-x="680" 
d="M645 0h-103l-167 299h-196v-299h-92v748h289q66 0 118 -25.5t82 -76t30 -122.5q0 -80 -36.5 -133.5t-99.5 -76.5zM178 381h187q64 0 105.5 36.5t41.5 106.5t-41.5 107t-105.5 37h-187v-287zM396 948h75l-119 -143h-82l-119 143h74l86 -90z" />
    <glyph glyph-name="rcaron" unicode="&#x159;" horiz-adv-x="354" 
d="M338 433q-48 0 -86 -18.5t-59.5 -51t-21.5 -71.5v-292h-87v510h84v-77q19 34 63.5 58.5t106.5 24.5v-83zM285 762h74l-120 -168h-82l-120 168h74l87 -110z" />
    <glyph glyph-name="Sacute" unicode="&#x15a;" horiz-adv-x="647" 
d="M503.5 702.5q70.5 -55.5 74.5 -152.5l-92 -5q-4 62 -48 97.5t-115 35.5q-78 0 -120 -36t-42 -93q0 -42 21 -66.5t56.5 -37t104.5 -27.5q89 -21 143.5 -45t84 -64t29.5 -104q0 -106 -74.5 -160.5t-190.5 -54.5q-122 0 -200.5 57.5t-84.5 160.5l93 5q5 -65 58.5 -104
t133.5 -39q78 0 125.5 32t47.5 97q0 43 -22.5 67.5t-60.5 37.5t-116 31q-80 20 -130 41.5t-80.5 62t-30.5 107.5q0 59 28.5 107t85.5 76.5t139 28.5q112 0 182.5 -55.5zM425 946h127l-187 -141h-88z" />
    <glyph glyph-name="sacute" unicode="&#x15b;" horiz-adv-x="493" 
d="M375.5 475.5q47.5 -42.5 55.5 -110.5l-86 -5q-4 39 -30 61.5t-73 22.5q-48 0 -73 -19.5t-25 -54.5q0 -23 11.5 -35.5t29.5 -19t56 -15.5q8 -1 24 -5q61 -14 98.5 -31t58 -44.5t20.5 -71.5q0 -75 -52 -116.5t-141 -41.5q-86 0 -139 41t-62 114l85 6q7 -42 37 -64t81 -22
q48 0 77 19.5t29 56.5q0 26 -12 40.5t-37.5 24t-77.5 21.5q-62 14 -96 27.5t-55 40.5t-21 74q0 69 49.5 109t139.5 40q81 0 128.5 -42.5zM310 786h97l-132 -191h-69z" />
    <glyph glyph-name="Scircumflex" unicode="&#x15c;" horiz-adv-x="647" 
d="M503.5 702.5q70.5 -55.5 74.5 -152.5l-92 -5q-4 62 -48 97.5t-115 35.5q-78 0 -120 -36t-42 -93q0 -42 21 -66.5t56.5 -37t104.5 -27.5q89 -21 143.5 -45t84 -64t29.5 -104q0 -106 -74.5 -160.5t-190.5 -54.5q-122 0 -200.5 57.5t-84.5 160.5l93 5q5 -65 58.5 -104
t133.5 -39q78 0 125.5 32t47.5 97q0 43 -22.5 67.5t-60.5 37.5t-116 31q-80 20 -130 41.5t-80.5 62t-30.5 107.5q0 59 28.5 107t85.5 76.5t139 28.5q112 0 182.5 -55.5zM281 948h82l119 -143h-75l-85 90l-86 -90h-74z" />
    <glyph glyph-name="scircumflex" unicode="&#x15d;" horiz-adv-x="493" 
d="M375.5 475.5q47.5 -42.5 55.5 -110.5l-86 -5q-4 39 -30 61.5t-73 22.5q-48 0 -73 -19.5t-25 -54.5q0 -23 11.5 -35.5t29.5 -19t56 -15.5q8 -1 24 -5q61 -14 98.5 -31t58 -44.5t20.5 -71.5q0 -75 -52 -116.5t-141 -41.5q-86 0 -139 41t-62 114l85 6q7 -42 37 -64t81 -22
q48 0 77 19.5t29 56.5q0 26 -12 40.5t-37.5 24t-77.5 21.5q-62 14 -96 27.5t-55 40.5t-21 74q0 69 49.5 109t139.5 40q81 0 128.5 -42.5zM201 765h82l120 -169h-74l-87 110l-87 -110h-74z" />
    <glyph glyph-name="Scedilla" unicode="&#x15e;" horiz-adv-x="647" 
d="M532.5 50q-67.5 -54 -175.5 -59l-11 -45q51 -4 81 -28t30 -67q0 -48 -37 -74.5t-89 -26.5q-56 0 -97 22l16 52q32 -20 73 -20q28 0 48.5 12t20.5 35q0 51 -77 51q-12 0 -30 -4l25 93q-112 6 -183 63t-77 154l93 5q5 -65 58.5 -104t133.5 -39q78 0 125.5 32t47.5 97
q0 43 -22.5 67.5t-60.5 37.5t-116 31q-80 20 -130 41.5t-80.5 62t-30.5 107.5q0 59 28.5 107t85.5 76.5t139 28.5q112 0 182.5 -55.5t74.5 -152.5l-92 -5q-4 62 -48 97.5t-115 35.5q-78 0 -120 -36t-42 -93q0 -42 21 -66.5t56.5 -37t104.5 -27.5q89 -21 143.5 -45t84 -64
t29.5 -104q0 -101 -67.5 -155z" />
    <glyph glyph-name="scedilla" unicode="&#x15f;" horiz-adv-x="493" 
d="M393.5 34.5q-48.5 -41.5 -131.5 -44.5l-11 -44q51 -4 81 -28t30 -67q0 -48 -37 -74.5t-89 -26.5q-56 0 -97 22l16 52q32 -20 73 -20q28 0 48.5 12t20.5 35q0 51 -77 51q-12 0 -30 -4l25 94q-71 8 -115 47.5t-52 105.5l85 6q7 -42 37 -64t81 -22q48 0 77 19.5t29 56.5
q0 26 -12 40.5t-37.5 24t-77.5 21.5q-62 14 -96 27.5t-55 40.5t-21 74q0 67 48 108t135 41q84 0 133 -42t57 -111l-86 -5q-4 39 -30 61.5t-73 22.5q-48 0 -73 -19.5t-25 -54.5q0 -23 11.5 -35.5t29.5 -19t56 -15.5q8 -1 24 -5q61 -14 98.5 -31t58 -44.5t20.5 -71.5
q0 -72 -48.5 -113.5z" />
    <glyph glyph-name="Scaron" unicode="&#x160;" horiz-adv-x="647" 
d="M503.5 702.5q70.5 -55.5 74.5 -152.5l-92 -5q-4 62 -48 97.5t-115 35.5q-78 0 -120 -36t-42 -93q0 -42 21 -66.5t56.5 -37t104.5 -27.5q89 -21 143.5 -45t84 -64t29.5 -104q0 -106 -74.5 -160.5t-190.5 -54.5q-122 0 -200.5 57.5t-84.5 160.5l93 5q5 -65 58.5 -104
t133.5 -39q78 0 125.5 32t47.5 97q0 43 -22.5 67.5t-60.5 37.5t-116 31q-80 20 -130 41.5t-80.5 62t-30.5 107.5q0 59 28.5 107t85.5 76.5t139 28.5q112 0 182.5 -55.5zM407 948h75l-119 -143h-82l-119 143h74l86 -90z" />
    <glyph glyph-name="scaron" unicode="&#x161;" horiz-adv-x="493" 
d="M375.5 475.5q47.5 -42.5 55.5 -110.5l-86 -5q-4 39 -30 61.5t-73 22.5q-48 0 -73 -19.5t-25 -54.5q0 -23 11.5 -35.5t29.5 -19t56 -15.5q8 -1 24 -5q61 -14 98.5 -31t58 -44.5t20.5 -71.5q0 -75 -52 -116.5t-141 -41.5q-86 0 -139 41t-62 114l85 6q7 -42 37 -64t81 -22
q48 0 77 19.5t29 56.5q0 26 -12 40.5t-37.5 24t-77.5 21.5q-62 14 -96 27.5t-55 40.5t-21 74q0 69 49.5 109t139.5 40q81 0 128.5 -42.5zM329 762h74l-120 -168h-82l-120 168h74l87 -110z" />
    <glyph glyph-name="uni0162" unicode="&#x162;" horiz-adv-x="693" 
d="M392 0h-20l-12 -49q51 -4 81 -28t30 -67q0 -48 -37 -74.5t-89 -26.5q-56 0 -97 22l16 52q32 -20 73 -20q28 0 48.5 12t20.5 35q0 51 -77 51q-12 0 -30 -4l26 97h-24v668h-279v80h648v-80h-278v-668z" />
    <glyph glyph-name="uni0163" unicode="&#x163;" horiz-adv-x="351" 
d="M222 -57q51 -4 81 -28t30 -67q0 -48 -37 -74.5t-89 -26.5q-56 0 -97 22l16 52q32 -20 73 -20q28 0 48.5 12t20.5 35q0 51 -77 51q-12 0 -30 -4l30 110q-42 16 -65 52.5t-22 95.5l1 282h-96v75h96l1 176h87l-1 -176h137v-75h-137l-2 -265q0 -52 24.5 -75.5t65.5 -23.5
q20 0 50 5v-77q-34 -6 -69 -6q-18 0 -27 1z" />
    <glyph glyph-name="Tcaron" unicode="&#x164;" horiz-adv-x="693" 
d="M22 748h648v-80h-278v-668h-91v668h-279v80zM433 948h75l-119 -143h-82l-119 143h74l86 -90z" />
    <glyph glyph-name="tcaron" unicode="&#x165;" horiz-adv-x="355" 
d="M263 572v32q47 35 53 93q-22 0 -37 15t-15 35q0 22 14.5 37t35.5 15q24 0 37 -16t13 -42q0 -114 -101 -169zM190 170q0 -52 24.5 -75.5t65.5 -23.5q20 0 50 5v-77q-34 -6 -69 -6q-73 0 -115.5 39.5t-41.5 120.5l1 282h-96v75h96l1 176h87l-1 -176h137v-75h-137z" />
    <glyph glyph-name="Tbar" unicode="&#x166;" horiz-adv-x="691" 
d="M670 748v-80h-278v-264h140v-71h-140v-333h-91v333h-142v71h142v264h-279v80h648z" />
    <glyph glyph-name="tbar" unicode="&#x167;" horiz-adv-x="351" 
d="M330 76v-77q-34 -6 -69 -6q-73 0 -115.5 39.5t-41.5 120.5v85h-95v63h96v134h-96v75h96l1 176h87l-1 -176h137v-75h-137l-1 -134h138v-63h-139v-68q0 -52 24.5 -75.5t65.5 -23.5q20 0 50 5z" />
    <glyph glyph-name="Utilde" unicode="&#x168;" horiz-adv-x="758" 
d="M677 281q0 -140 -80 -215.5t-218 -75.5q-139 0 -218.5 75.5t-79.5 215.5v467h91v-466q0 -103 54.5 -156.5t152.5 -53.5q97 0 152 54t55 156v466h91v-467zM345 936.5q17 -8.5 38 -24.5q18 -14 31 -20.5t28 -6.5q24 0 36 14.5t13 38.5h51q2 -49 -23 -83.5t-68 -34.5
q-22 0 -39 8.5t-38 24.5q-18 14 -31 20.5t-28 6.5q-23 0 -36 -15t-13 -38h-50q-3 49 22 83.5t68 34.5q22 0 39 -8.5z" />
    <glyph glyph-name="utilde" unicode="&#x169;" 
d="M500 510v-510h-81v76q-16 -35 -55 -60.5t-97 -25.5q-86 0 -136.5 56.5t-50.5 148.5v315h86v-303q0 -63 31.5 -99.5t88.5 -36.5q59 0 93.5 41t34.5 100v298h86zM260 727.5q17 -8.5 38 -24.5q18 -14 31 -21t28 -7q24 0 36 14.5t13 39.5h51q2 -49 -23 -84t-68 -35
q-22 0 -39 8.5t-38 24.5q-18 14 -31 20.5t-28 6.5q-23 0 -36 -15t-13 -38h-50q-3 49 22 84t68 35q22 0 39 -8.5z" />
    <glyph glyph-name="Umacron" unicode="&#x16a;" horiz-adv-x="758" 
d="M677 281q0 -140 -80 -215.5t-218 -75.5q-139 0 -218.5 75.5t-79.5 215.5v467h91v-466q0 -103 54.5 -156.5t152.5 -53.5q97 0 152 54t55 156v466h91v-467zM227 909h304v-63h-304v63z" />
    <glyph glyph-name="umacron" unicode="&#x16b;" 
d="M500 510v-510h-81v76q-16 -35 -55 -60.5t-97 -25.5q-86 0 -136.5 56.5t-50.5 148.5v315h86v-303q0 -63 31.5 -99.5t88.5 -36.5q59 0 93.5 41t34.5 100v298h86zM153 700h284v-63h-284v63z" />
    <glyph glyph-name="Ubreve" unicode="&#x16c;" horiz-adv-x="758" 
d="M677 281q0 -140 -80 -215.5t-218 -75.5q-139 0 -218.5 75.5t-79.5 215.5v467h91v-466q0 -103 54.5 -156.5t152.5 -53.5q97 0 152 54t55 156v466h91v-467zM535 955q0 -67 -42.5 -103.5t-114.5 -36.5t-114.5 36.5t-42.5 103.5h69q0 -36 23.5 -56.5t64.5 -20.5
q40 0 64.5 20.5t24.5 56.5h68z" />
    <glyph glyph-name="ubreve" unicode="&#x16d;" 
d="M500 510v-510h-81v76q-16 -35 -55 -60.5t-97 -25.5q-86 0 -136.5 56.5t-50.5 148.5v315h86v-303q0 -63 31.5 -99.5t88.5 -36.5q59 0 93.5 41t34.5 100v298h86zM451 744q0 -70 -42.5 -108t-114.5 -38t-114.5 38t-42.5 108h69q0 -38 23.5 -60t64.5 -22q40 0 64.5 22
t24.5 60h68z" />
    <glyph glyph-name="Uring" unicode="&#x16e;" horiz-adv-x="758" 
d="M677 281q0 -140 -80 -215.5t-218 -75.5q-139 0 -218.5 75.5t-79.5 215.5v467h91v-466q0 -103 54.5 -156.5t152.5 -53.5q97 0 152 54t55 156v466h91v-467zM450.5 971q29.5 -28 29.5 -70t-29.5 -70t-71.5 -28q-45 0 -74.5 27.5t-29.5 70.5t29.5 70.5t74.5 27.5
q42 0 71.5 -28zM338.5 939.5q-15.5 -14.5 -15.5 -38.5t15.5 -38.5t40.5 -14.5q24 0 39 14.5t15 38.5t-15 38.5t-39 14.5q-25 0 -40.5 -14.5z" />
    <glyph glyph-name="uring" unicode="&#x16f;" 
d="M500 510v-510h-81v76q-16 -35 -55 -60.5t-97 -25.5q-86 0 -136.5 56.5t-50.5 148.5v315h86v-303q0 -63 31.5 -99.5t88.5 -36.5q59 0 93.5 41t34.5 100v298h86zM375 768q33 -30 33 -76t-33 -76.5t-80 -30.5q-49 0 -82 30.5t-33 76.5t33 76t82 30q47 0 80 -30zM250.5 732.5
q-16.5 -15.5 -16.5 -40.5q0 -26 16.5 -41.5t43.5 -15.5q26 0 43 16t17 41t-17 40.5t-43 15.5q-27 0 -43.5 -15.5z" />
    <glyph glyph-name="Uhungarumlaut" unicode="&#x170;" horiz-adv-x="758" 
d="M677 281q0 -140 -80 -215.5t-218 -75.5q-139 0 -218.5 75.5t-79.5 215.5v467h91v-466q0 -103 54.5 -156.5t152.5 -53.5q97 0 152 54t55 156v466h91v-467zM314 956h82l-74 -148h-69zM484 956h82l-74 -148h-69z" />
    <glyph glyph-name="uhungarumlaut" unicode="&#x171;" 
d="M500 510v-510h-81v76q-16 -35 -55 -60.5t-97 -25.5q-86 0 -136.5 56.5t-50.5 148.5v315h86v-303q0 -63 31.5 -99.5t88.5 -36.5q59 0 93.5 41t34.5 100v298h86zM233 763h82l-76 -158h-68zM403 763h83l-77 -158h-68z" />
    <glyph glyph-name="Uogonek" unicode="&#x172;" horiz-adv-x="758" 
d="M586 748h91v-467q0 -86 -31.5 -148.5t-90.5 -98.5q-61 -37 -90.5 -75.5t-29.5 -92.5q0 -33 18 -52.5t48 -19.5q38 0 62 12l9 -45q-19 -8 -37.5 -12t-43.5 -4q-54 0 -87.5 29.5t-33.5 85.5q0 77 61 133q-25 -3 -52 -3q-139 0 -218.5 75.5t-79.5 215.5v467h91v-466
q0 -103 54.5 -156.5t152.5 -53.5q97 0 152 54t55 156v466z" />
    <glyph glyph-name="uogonek" unicode="&#x173;" 
d="M482 0q-63 -36 -93 -70t-30 -80q0 -29 17.5 -44t49.5 -15q36 0 62 12l8 -45q-18 -8 -36.5 -12t-44.5 -4q-54 0 -87.5 26t-33.5 76q0 99 125 160v72q-16 -35 -55 -60.5t-97 -25.5q-86 0 -136.5 56.5t-50.5 148.5v315h86v-303q0 -63 31.5 -99.5t88.5 -36.5q59 0 93.5 41
t34.5 100v298h86v-510h-18z" />
    <glyph glyph-name="Wcircumflex" unicode="&#x174;" horiz-adv-x="1048" 
d="M932 748h96l-231 -748h-77l-196 580l-195 -580h-77l-232 748h97l175 -587l195 587h75l196 -587zM483 948h82l119 -143h-75l-85 90l-86 -90h-74z" />
    <glyph glyph-name="wcircumflex" unicode="&#x175;" horiz-adv-x="770" 
d="M671 510h89l-176 -510h-69l-130 366l-131 -366h-68l-176 510h89l124 -375l131 375h61l132 -375zM344 765h82l120 -169h-74l-87 110l-87 -110h-74z" />
    <glyph glyph-name="Ycircumflex" unicode="&#x176;" horiz-adv-x="686" 
d="M566 748h106l-283 -437v-311h-91v311l-284 437h106l223 -347zM302 948h82l119 -143h-75l-85 90l-86 -90h-74z" />
    <glyph glyph-name="ycircumflex" unicode="&#x177;" horiz-adv-x="524" 
d="M420 510h92l-322 -765h-95l121 283l-203 482h93l157 -388zM222 765h82l120 -169h-74l-87 110l-87 -110h-74z" />
    <glyph glyph-name="Ydieresis" unicode="&#x178;" horiz-adv-x="686" 
d="M566 748h106l-283 -437v-311h-91v311l-284 437h106l223 -347zM291.5 918q17.5 -17 17.5 -41t-17.5 -40.5t-41.5 -16.5q-25 0 -41.5 16t-16.5 41q0 24 16.5 41t41.5 17q24 0 41.5 -17zM478.5 918q16.5 -17 16.5 -41q0 -25 -16 -41t-41 -16q-24 0 -41.5 16.5t-17.5 40.5
t17.5 41t41.5 17t40.5 -17z" />
    <glyph glyph-name="Zacute" unicode="&#x179;" horiz-adv-x="612" 
d="M47 748h525v-69l-422 -598h430v-81h-547v69l421 599h-407v80zM409 946h127l-187 -141h-88z" />
    <glyph glyph-name="zacute" unicode="&#x17a;" horiz-adv-x="442" 
d="M36 510h366v-58l-263 -380h275v-72h-384v57l263 381h-257v72zM292 786h97l-132 -191h-69z" />
    <glyph glyph-name="Zdotaccent" unicode="&#x17b;" horiz-adv-x="612" 
d="M47 748h525v-69l-422 -598h430v-81h-547v69l421 599h-407v80zM347 917.5q17 -17.5 17 -40.5q0 -24 -17 -41t-40 -17q-24 0 -41.5 17t-17.5 41q0 23 17.5 40.5t41.5 17.5q23 0 40 -17.5z" />
    <glyph glyph-name="zdotaccent" unicode="&#x17c;" horiz-adv-x="442" 
d="M36 510h366v-58l-263 -380h275v-72h-384v57l263 381h-257v72zM265 721.5q17 -17.5 17 -40.5q0 -24 -17 -41t-40 -17q-24 0 -41.5 17t-17.5 41q0 23 17.5 40.5t41.5 17.5q23 0 40 -17.5z" />
    <glyph glyph-name="Zcaron" unicode="&#x17d;" horiz-adv-x="612" 
d="M47 748h525v-69l-422 -598h430v-81h-547v69l421 599h-407v80zM391 948h75l-119 -143h-82l-119 143h74l86 -90z" />
    <glyph glyph-name="zcaron" unicode="&#x17e;" horiz-adv-x="442" 
d="M36 510h366v-58l-263 -380h275v-72h-384v57l263 381h-257v72zM311 762h74l-120 -168h-82l-120 168h74l87 -110z" />
    <glyph glyph-name="uni018F" unicode="&#x18f;" horiz-adv-x="814" 
d="M219 35q-77 45 -117.5 127t-40.5 190v57h609q-4 127 -76.5 197.5t-193.5 70.5q-85 0 -146 -40.5t-91 -115.5l-93 8q33 104 124 166.5t217 62.5q105 0 184.5 -45.5t123.5 -132.5t44 -207q0 -119 -46.5 -205.5t-129 -132t-186.5 -45.5q-105 0 -182 45zM535 102q59 30 95 88
t40 140h-517q2 -116 66 -187t183 -71q74 0 133 30z" />
    <glyph glyph-name="florin" unicode="&#x192;" horiz-adv-x="480" 
d="M475 742l-36 -71q-36 38 -89 38q-38 0 -60.5 -21.5t-30.5 -69.5l-19 -108h151v-73h-164l-102 -579h-88l102 579h-109v73h122l22 123q13 78 56.5 115.5t110.5 37.5q79 0 134 -44z" />
    <glyph glyph-name="Aringacute" unicode="&#x1fa;" horiz-adv-x="728" 
d="M296.5 799.5q-29.5 27.5 -29.5 70.5q0 27 12.5 48.5t34.5 34.5l131 110h111l-150 -101q30 -10 48 -34.5t18 -57.5q0 -42 -29.5 -70t-71.5 -28q-45 0 -74.5 27.5zM410 908.5q-15 14.5 -39 14.5q-25 0 -40.5 -14.5t-15.5 -38.5t15.5 -38.5t40.5 -14.5q24 0 39 14.5t15 38.5
t-15 38.5zM325 748h78l313 -748h-100l-77 190h-350l-77 -190h-100zM365 613l-141 -342h281z" />
    <glyph glyph-name="aringacute" unicode="&#x1fb;" horiz-adv-x="536" 
d="M196.5 609.5q-29.5 27.5 -29.5 70.5q0 46 35 75l143 118h111l-152 -100q31 -10 49.5 -35t18.5 -58q0 -42 -29.5 -70t-71.5 -28q-45 0 -74.5 27.5zM310 718.5q-15 14.5 -39 14.5q-25 0 -40.5 -14.5t-15.5 -38.5t15.5 -38.5t40.5 -14.5q24 0 39 14.5t15 38.5t-15 38.5z
M405.5 467.5q50.5 -51.5 50.5 -146.5v-321h-87v60q-27 -33 -66 -51.5t-86 -18.5q-76 0 -121.5 38.5t-45.5 106.5q0 142 187 152l132 8v24q0 59 -26.5 91.5t-80.5 32.5q-53 0 -82 -31t-29 -75l-87 4q0 45 24 86t68.5 66.5t104.5 25.5q94 0 144.5 -51.5zM370 226l-122 -7
q-53 -4 -82 -23t-29 -59q0 -39 25 -56.5t68 -17.5q62 0 101 35t39 107v21z" />
    <glyph glyph-name="AEacute" unicode="&#x1fc;" horiz-adv-x="1020" 
d="M978 748v-80h-371v-242h327v-79h-327v-266h371v-81h-463v190h-275l-123 -190h-111l499 748h473zM515 607l-221 -336h221v336zM752 946h127l-187 -141h-88z" />
    <glyph glyph-name="aeacute" unicode="&#x1fd;" horiz-adv-x="875" 
d="M825 224l-385 -1q3 -73 46 -115.5t109 -42.5q54 0 90.5 24t47.5 67l87 -5q-16 -70 -77 -115.5t-145 -45.5q-62 0 -113.5 25t-84.5 71q-29 -46 -76 -71t-109 -25q-75 0 -120 39t-45 107q0 143 192 151l119 6v20q0 62 -26 96.5t-77 34.5q-52 0 -79.5 -31t-27.5 -76l-87 4
q0 45 23 86t67 66.5t102 25.5q108 0 154 -82q33 40 80.5 61t105.5 21q70 0 122 -31t79.5 -87t27.5 -131v-46zM486.5 404q-42.5 -40 -46.5 -112l299 1q-2 69 -39 110t-106 41q-65 0 -107.5 -40zM361 223l-108 -5q-58 -3 -87 -21.5t-29 -58.5q0 -38 24 -56t65 -18
q58 0 96.5 33.5t38.5 107.5v18zM494 786h97l-132 -191h-69z" />
    <glyph glyph-name="Oslashacute" unicode="&#x1fe;" horiz-adv-x="844" 
d="M683 658q53 -51 81.5 -123.5t28.5 -160.5q0 -116 -48.5 -203t-133 -134t-189.5 -47q-117 0 -206 57l-63 -82l-56 43l63 82q-52 51 -80.5 123.5t-28.5 160.5q0 116 48.5 203t133 134t189.5 47q115 0 205 -56l64 83l57 -43zM161.5 255q18.5 -54 52.5 -93l361 471
q-66 43 -153 43q-79 0 -142.5 -36t-100 -104.5t-36.5 -161.5q0 -65 18.5 -119zM564 108.5q63 36.5 99.5 104.5t36.5 161q0 129 -71 213l-361 -472q68 -43 154 -43q79 0 142 36.5zM516 946h127l-187 -141h-88z" />
    <glyph glyph-name="oslashacute" unicode="&#x1ff;" horiz-adv-x="625" 
d="M498 448q36 -35 56 -84.5t20 -108.5q0 -79 -34.5 -139.5t-94 -93t-133.5 -32.5q-76 0 -136 34l-43 -57l-48 35l43 57q-37 35 -57.5 85t-20.5 111q0 79 34.5 139t94 92.5t133.5 32.5q79 0 138 -35l40 52l48 -36zM179 125l224 296q-41 23 -91 23t-89.5 -22.5t-62.5 -65.5
t-23 -101q0 -80 42 -130zM401.5 88q39.5 23 62.5 66t23 101q0 76 -39 126l-224 -294q41 -22 88 -22q50 0 89.5 23zM380 786h97l-132 -191h-69z" />
    <glyph glyph-name="uni0218" unicode="&#x218;" horiz-adv-x="647" 
d="M503.5 702.5q70.5 -55.5 74.5 -152.5l-92 -5q-4 62 -48 97.5t-115 35.5q-78 0 -120 -36t-42 -93q0 -42 21 -66.5t56.5 -37t104.5 -27.5q89 -21 143.5 -45t84 -64t29.5 -104q0 -106 -74.5 -160.5t-190.5 -54.5q-122 0 -200.5 57.5t-84.5 160.5l93 5q5 -65 58.5 -104
t133.5 -39q78 0 125.5 32t47.5 97q0 43 -22.5 67.5t-60.5 37.5t-116 31q-80 20 -130 41.5t-80.5 62t-30.5 107.5q0 59 28.5 107t85.5 76.5t139 28.5q112 0 182.5 -55.5zM380.5 -61q14.5 -17 14.5 -46q0 -121 -112 -182v36q52 37 58 100q-23 0 -40 16t-17 38q0 23 16 39
t40 16q26 0 40.5 -17z" />
    <glyph glyph-name="uni0219" unicode="&#x219;" horiz-adv-x="493" 
d="M375.5 475.5q47.5 -42.5 55.5 -110.5l-86 -5q-4 39 -30 61.5t-73 22.5q-48 0 -73 -19.5t-25 -54.5q0 -23 11.5 -35.5t29.5 -19t56 -15.5q8 -1 24 -5q61 -14 98.5 -31t58 -44.5t20.5 -71.5q0 -75 -52 -116.5t-141 -41.5q-86 0 -139 41t-62 114l85 6q7 -42 37 -64t81 -22
q48 0 77 19.5t29 56.5q0 26 -12 40.5t-37.5 24t-77.5 21.5q-62 14 -96 27.5t-55 40.5t-21 74q0 69 49.5 109t139.5 40q81 0 128.5 -42.5zM285.5 -61q14.5 -17 14.5 -46q0 -121 -112 -182v36q52 37 58 100q-23 0 -40 16t-17 38q0 23 16 39t40 16q26 0 40.5 -17z" />
    <glyph glyph-name="uni021A" unicode="&#x21a;" horiz-adv-x="693" 
d="M22 748h648v-80h-278v-668h-91v668h-279v80zM394.5 -56q14.5 -17 14.5 -46q0 -121 -112 -182v36q52 37 58 100q-23 0 -40 16t-17 38q0 23 16 39t40 16q26 0 40.5 -17z" />
    <glyph glyph-name="uni021B" unicode="&#x21b;" horiz-adv-x="351" 
d="M330 76v-77q-34 -6 -69 -6q-73 0 -115.5 39.5t-41.5 120.5l1 282h-96v75h96l1 176h87l-1 -176h137v-75h-137l-2 -265q0 -52 24.5 -75.5t65.5 -23.5q20 0 50 5zM256.5 -64q14.5 -17 14.5 -46q0 -121 -112 -182v36q52 37 58 100q-23 0 -40 16t-17 38q0 23 16 39t40 16
q26 0 40.5 -17z" />
    <glyph glyph-name="uni0237" unicode="&#x237;" horiz-adv-x="260" 
d="M177 -75q0 -88 -47 -136.5t-127 -48.5q-14 0 -40 2v77q13 -3 30 -3q46 0 71.5 27.5t25.5 78.5v588h87v-585z" />
    <glyph glyph-name="uni0259" unicode="&#x259;" 
d="M412.5 488q57.5 -32 90 -92t32.5 -141t-32 -141t-89 -91.5t-130 -31.5q-109 0 -171.5 68t-62.5 182v47h394q-4 73 -48 115t-112 42q-56 0 -93 -24t-49 -67l-87 5q16 70 78 115.5t149 45.5q73 0 130.5 -32zM396.5 106q43.5 40 47.5 113h-308q1 -70 39.5 -111.5
t109.5 -41.5q68 0 111.5 40z" />
    <glyph glyph-name="h.sups" unicode="&#x2b0;" horiz-adv-x="477" 
d="M142 697q15 24 46 41.5t75 17.5q70 0 114 -44t44 -118v-254h-78v237q0 49 -27 78t-71 29q-46 0 -74.5 -31t-28.5 -77v-236h-77v622h77v-265z" />
    <glyph glyph-name="j.sups" unicode="&#x2b2;" horiz-adv-x="208" 
d="M138.5 929.5q14.5 -14.5 14.5 -35.5t-14.5 -35t-35.5 -14t-35 14t-14 35t14 35.5t35 14.5t35.5 -14.5zM143 283q0 -71 -38.5 -111.5t-105.5 -40.5q-14 0 -34 2v68q14 -2 24 -2q36 0 56.5 21.5t20.5 60.5v467h77v-465z" />
    <glyph glyph-name="r.sups" unicode="&#x2b3;" horiz-adv-x="282" 
d="M273 679q-57 0 -94 -31.5t-37 -77.5v-230h-77v408h74v-50q16 23 50.5 39t83.5 16v-74z" />
    <glyph glyph-name="w.sups" unicode="&#x2b7;" horiz-adv-x="655" 
d="M566 748h84l-156 -408h-59l-107 288l-108 -288h-59l-156 408h85l106 -283l105 283h54l106 -283z" />
    <glyph glyph-name="y.sups" unicode="&#x2b8;" horiz-adv-x="425" 
d="M331 748h85l-260 -612h-84l98 232l-161 380h85l119 -288z" />
    <glyph glyph-name="uni02BB" unicode="&#x2bb;" horiz-adv-x="198" 
d="M154 715q-51 -42 -57 -105q23 0 39.5 -17t16.5 -40q0 -24 -16 -41t-39 -17q-26 0 -40 18t-14 48q0 127 110 191v-37z" />
    <glyph glyph-name="uni02BC" unicode="&#x2bc;" horiz-adv-x="198" 
d="M140 735q14 -18 14 -48q0 -127 -110 -191v37q51 42 57 105q-23 0 -39.5 17t-16.5 40q0 24 16 41t39 17q26 0 40 -18z" />
    <glyph glyph-name="circumflex" unicode="&#x2c6;" horiz-adv-x="347" 
d="M133 765h82l120 -169h-74l-87 110l-87 -110h-74z" />
    <glyph glyph-name="caron" unicode="&#x2c7;" horiz-adv-x="347" 
d="M261 762h74l-120 -168h-82l-120 168h74l87 -110z" />
    <glyph glyph-name="breve" unicode="&#x2d8;" horiz-adv-x="347" 
d="M330 744q0 -70 -42.5 -108t-114.5 -38t-114.5 38t-42.5 108h69q0 -38 23.5 -60t64.5 -22q40 0 64.5 22t24.5 60h68z" />
    <glyph glyph-name="dotaccent" unicode="&#x2d9;" horiz-adv-x="149" 
d="M115 721.5q17 -17.5 17 -40.5q0 -24 -17 -41t-40 -17q-24 0 -41.5 17t-17.5 41q0 23 17.5 40.5t41.5 17.5q23 0 40 -17.5z" />
    <glyph glyph-name="ring" unicode="&#x2da;" horiz-adv-x="259" 
d="M211 768q33 -30 33 -76t-33 -76.5t-80 -30.5q-49 0 -82 30.5t-33 76.5t33 76t82 30q47 0 80 -30zM86.5 732.5q-16.5 -15.5 -16.5 -40.5q0 -26 16.5 -41.5t43.5 -15.5q26 0 43 16t17 41t-17 40.5t-43 15.5q-27 0 -43.5 -15.5z" />
    <glyph glyph-name="ogonek" unicode="&#x2db;" horiz-adv-x="226" 
d="M184 4q-64 -36 -94.5 -70t-30.5 -81q0 -29 17.5 -44t49.5 -15q37 0 62 12l8 -45q-18 -8 -36.5 -12t-44.5 -4q-54 0 -87.5 26t-33.5 76q0 63 46 107t130 74z" />
    <glyph glyph-name="tilde" unicode="&#x2dc;" horiz-adv-x="355" 
d="M144 727.5q17 -8.5 38 -24.5q18 -14 31 -21t28 -7q24 0 36 14.5t13 39.5h51q2 -49 -23 -84t-68 -35q-22 0 -39 8.5t-38 24.5q-18 14 -31 20.5t-28 6.5q-23 0 -36 -15t-13 -38h-50q-3 49 22 84t68 35q22 0 39 -8.5z" />
    <glyph glyph-name="hungarumlaut" unicode="&#x2dd;" horiz-adv-x="343" 
d="M77 763h82l-76 -158h-68zM247 763h83l-77 -158h-68z" />
    <glyph glyph-name="l.sups" unicode="&#x2e1;" horiz-adv-x="206" 
d="M65 962h77v-622h-77v622z" />
    <glyph glyph-name="s.sups" unicode="&#x2e2;" horiz-adv-x="394" 
d="M299 721.5q39 -34.5 46 -92.5l-77 -5q-3 31 -22.5 48t-53.5 17q-36 0 -55 -14.5t-19 -40.5q0 -24 16.5 -33.5t57.5 -17.5l21 -5q74 -18 107.5 -42t33.5 -76q0 -60 -42.5 -94t-115.5 -34q-70 0 -113 33.5t-50 93.5l77 6q4 -33 26.5 -50t59.5 -17t58.5 14.5t21.5 44.5
q0 18 -9.5 28.5t-28.5 17t-59 16.5q-49 11 -77 22t-44.5 33t-16.5 60q0 56 39.5 89t111.5 33q68 0 107 -34.5z" />
    <glyph glyph-name="x.sups" unicode="&#x2e3;" horiz-adv-x="411" 
d="M304 748h92l-135 -199l142 -209h-92l-105 151l-103 -151h-94l142 208l-136 200h93l98 -144z" />
    <glyph glyph-name="acutecomb" unicode="&#x301;" horiz-adv-x="0" 
d="M-112 786h97l-132 -191h-69z" />
    <glyph glyph-name="uni0326" unicode="&#x326;" horiz-adv-x="0" 
d="M-49.5 -56q14.5 -17 14.5 -46q0 -121 -112 -182v36q52 37 58 100q-23 0 -40 16t-17 38q0 23 16 39t40 16q26 0 40.5 -17z" />
    <glyph glyph-name="uni03A9" unicode="&#x3a9;" horiz-adv-x="778" 
d="M562.5 674q73.5 -45 112 -123.5t38.5 -176.5q0 -94 -43 -175.5t-97 -130.5h185v-68h-279v61q38 27 75.5 75t61.5 109.5t24 125.5q0 81 -29.5 145t-86.5 100t-135 36q-79 0 -135.5 -36t-86.5 -100t-30 -145q0 -64 24.5 -125.5t61.5 -109.5t76 -75v-61h-280v68h185
q-53 49 -96 130t-43 176q0 98 38.5 176.5t111.5 123.5t174 45q100 0 173.5 -45z" />
    <glyph glyph-name="uni03BC" unicode="&#x3bc;" horiz-adv-x="589" 
d="M419 510h86v-510h-81v76q-16 -35 -55 -60.5t-97 -25.5q-57 0 -101 27v-272h-87v756h1v9h86v-303q0 -63 31.5 -99.5t88.5 -36.5q59 0 93.5 41t34.5 100v298z" />
    <glyph glyph-name="pi" unicode="&#x3c0;" horiz-adv-x="654" 
d="M628 485q-20 -48 -53 -76t-87 -28h-21l-32 -261q-1 -6 -1 -16q0 -39 39 -39q26 0 53 22l39 -51q-23 -22 -47.5 -33t-56.5 -11q-49 0 -73 26t-24 74q0 16 1 24l32 265h-124l-27 -219q-8 -53 -19.5 -90t-28.5 -72h-81q24 49 36.5 86.5t20.5 90.5l25 204h-37q-52 0 -95 -43
l-40 59q33 30 66 45.5t86 15.5h266q47 0 72.5 16t43.5 50z" />
    <glyph glyph-name="uni0400" unicode="&#x400;" horiz-adv-x="592" 
d="M87 748h463v-80h-371v-242h327v-79h-327v-266h371v-81h-463v748zM89 948h127l148 -141h-89z" />
    <glyph glyph-name="uni0401" unicode="&#x401;" horiz-adv-x="592" 
d="M87 748h463v-80h-371v-242h327v-79h-327v-266h371v-81h-463v748zM271.5 918q17.5 -17 17.5 -41t-17.5 -40.5t-41.5 -16.5q-25 0 -41.5 16t-16.5 41q0 24 16.5 41t41.5 17q24 0 41.5 -17zM458.5 918q16.5 -17 16.5 -41q0 -25 -16 -41t-41 -16q-24 0 -41.5 16.5t-17.5 40.5
t17.5 41t41.5 17t40.5 -17z" />
    <glyph glyph-name="uni0402" unicode="&#x402;" horiz-adv-x="850" 
d="M485 1v83q21 -7 38 -10t43 -3q76 0 115.5 42.5t39.5 112.5q0 79 -48.5 122.5t-131.5 43.5q-55 0 -102.5 -16t-79.5 -40v-336h-91v667h-246v81h616v-81h-279v-245q38 22 88.5 35t106.5 13q118 0 188.5 -62t70.5 -177q0 -112 -66 -176.5t-182 -64.5q-41 0 -80 11z" />
    <glyph glyph-name="uni0403" unicode="&#x403;" horiz-adv-x="555" 
d="M179 667v-667h-92v748h445v-81h-353zM413 946h127l-187 -141h-88z" />
    <glyph glyph-name="uni0404" unicode="&#x404;" horiz-adv-x="803" 
d="M760 257q-14 -82 -61.5 -142t-120.5 -92.5t-161 -32.5q-104 0 -187.5 47t-131 134t-47.5 203t47.5 203t130.5 134t187 47q88 0 162 -33.5t122 -96.5t59 -147l-95 -9q-14 96 -82 150t-167 54q-69 0 -126 -30t-94.5 -86.5t-47.5 -133.5h344v-79h-346q5 -85 41 -147
t95.5 -95t134.5 -33q98 0 165 50.5t83 142.5z" />
    <glyph glyph-name="uni0405" unicode="&#x405;" horiz-adv-x="647" 
d="M503.5 702.5q70.5 -55.5 74.5 -152.5l-92 -5q-4 62 -48 97.5t-115 35.5q-78 0 -120 -36t-42 -93q0 -42 21 -66.5t56.5 -37t104.5 -27.5q89 -21 143.5 -45t84 -64t29.5 -104q0 -106 -74.5 -160.5t-190.5 -54.5q-122 0 -200.5 57.5t-84.5 160.5l93 5q5 -65 58.5 -104
t133.5 -39q78 0 125.5 32t47.5 97q0 43 -22.5 67.5t-60.5 37.5t-116 31q-80 20 -130 41.5t-80.5 62t-30.5 107.5q0 59 28.5 107t85.5 76.5t139 28.5q112 0 182.5 -55.5z" />
    <glyph glyph-name="uni0406" unicode="&#x406;" horiz-adv-x="266" 
d="M87 748h92v-748h-92v748z" />
    <glyph glyph-name="uni0407" unicode="&#x407;" horiz-adv-x="266" 
d="M96.5 915q12.5 -15 12.5 -36q0 -22 -12.5 -37t-30.5 -15t-30 15t-12 37q0 21 12 36t30 15t30.5 -15zM238 915q12 -15 12 -36q0 -22 -12 -37t-30 -15t-31 15t-13 37q0 21 13 36t31 15t30 -15zM87 748h92v-748h-92v748z" />
    <glyph glyph-name="uni0408" unicode="&#x408;" horiz-adv-x="573" 
d="M492 237q0 -118 -62 -182.5t-171 -64.5q-106 0 -169.5 62.5t-69.5 170.5l92 15q4 -79 42.5 -122.5t104.5 -43.5q67 0 104 42t37 121v513h92v-511z" />
    <glyph glyph-name="uni0409" unicode="&#x409;" horiz-adv-x="1091" 
d="M28 0v83q25 -5 41 -5q46 0 72 28t38 74.5t18 116.5l39 451h411v-295h182q66 0 117.5 -26t81.5 -77t30 -123q0 -73 -30 -124t-81.5 -77t-117.5 -26h-273v668h-235l-40 -416q-14 -146 -68.5 -202t-132.5 -56q-32 0 -52 6zM818 81q64 0 105.5 37.5t41.5 108.5
q0 70 -41.5 107.5t-105.5 37.5h-171v-291h171z" />
    <glyph glyph-name="uni040A" unicode="&#x40a;" horiz-adv-x="1084" 
d="M87 0v748h91v-310h371v310h91v-310h182q66 0 117.5 -25t81.5 -74.5t30 -119.5t-30 -119.5t-81.5 -74.5t-117.5 -25h-273v357h-371v-357h-91zM811 79q64 0 105.5 35.5t41.5 103.5t-41.5 103.5t-105.5 35.5h-171v-278h171z" />
    <glyph glyph-name="uni040B" unicode="&#x40b;" horiz-adv-x="868" 
d="M268 0v668h-246v80h615v-80h-278v-215q32 9 93 17.5t112 8.5q223 0 223 -211v-268h-92v233q0 51 -10.5 87t-43.5 58t-95 22q-53 0 -102.5 -7t-84.5 -17v-376h-91z" />
    <glyph glyph-name="uni040C" unicode="&#x40c;" horiz-adv-x="667" 
d="M178 0h-91v748h91v-350l317 350h116l-331 -363l374 -385h-126l-350 362v-362zM445 946h127l-187 -141h-88z" />
    <glyph glyph-name="uni040D" unicode="&#x40d;" horiz-adv-x="744" 
d="M141 948h127l148 -141h-89zM87 0v748h92v-579l401 579h77v-748h-92v578l-401 -578h-77z" />
    <glyph glyph-name="uni040E" unicode="&#x40e;" horiz-adv-x="687" 
d="M85 13l25 88q52 -19 86 -19q33 0 58 18.5t47 58.5l17 32l-302 557h104l248 -461l207 461h99l-258 -559q-35 -75 -59.5 -110t-50.5 -54q-41 -31 -112 -31q-54 0 -109 19zM501 955q0 -67 -42.5 -103.5t-114.5 -36.5t-114.5 36.5t-42.5 103.5h73q0 -38 22.5 -59.5
t61.5 -21.5q38 0 61 22t23 59h73z" />
    <glyph glyph-name="uni040F" unicode="&#x40f;" horiz-adv-x="737" 
d="M559 748h91v-748h-238v-170h-85v170h-240v748h91v-667h381v667z" />
    <glyph glyph-name="uni0410" unicode="&#x410;" horiz-adv-x="729" 
d="M325 748h78l313 -748h-100l-77 190h-350l-77 -190h-100zM505 271l-140 342l-141 -342h281z" />
    <glyph glyph-name="uni0411" unicode="&#x411;" horiz-adv-x="651" 
d="M87 0v748h471v-81h-380v-214h202q66 0 118 -26t82 -77t30 -123q0 -73 -30 -124t-82 -77t-118 -26h-293zM370 81q63 0 105 37.5t42 108.5q0 70 -42 107.5t-105 37.5h-192v-291h192z" />
    <glyph glyph-name="uni0412" unicode="&#x412;" horiz-adv-x="670" 
d="M367 748q100 0 161.5 -51.5t61.5 -147.5q0 -59 -23.5 -99.5t-61.5 -59.5q51 -17 84 -64t33 -119q0 -101 -63.5 -154t-165.5 -53h-306v748h280zM178 668v-245h203q54 0 85 29t31 91q0 61 -38.5 93t-102.5 32h-178zM178 344v-263h204q65 0 106 32.5t41 98.5q0 67 -40 99.5
t-99 32.5h-212z" />
    <glyph glyph-name="uni0413" unicode="&#x413;" horiz-adv-x="555" 
d="M179 667v-667h-92v748h445v-81h-353z" />
    <glyph glyph-name="uni0414" unicode="&#x414;" horiz-adv-x="762" 
d="M627 81h99v-251h-85v172l-541 -1v-171h-85v251h47q43 33 77 125.5t43 231.5l21 310h424v-667zM268 429q-11 -132 -36.5 -215t-63.5 -134l369 1v586h-249z" />
    <glyph glyph-name="uni0415" unicode="&#x415;" horiz-adv-x="592" 
d="M87 748h463v-80h-371v-242h327v-79h-327v-266h371v-81h-463v748z" />
    <glyph glyph-name="uni0416" unicode="&#x416;" horiz-adv-x="998" 
d="M131 0h-118l340 382l-308 366h113l296 -352v352h91v-351l295 351h113l-308 -366l340 -382h-118l-322 364v-364h-91v366z" />
    <glyph glyph-name="uni0417" unicode="&#x417;" horiz-adv-x="651" 
d="M118 49.5q-72 58.5 -78 165.5l91 5q14 -149 200 -149q86 0 132 38.5t46 106.5q0 66 -40 100t-116 34h-130v79h119q70 0 106.5 33.5t36.5 88.5q0 60 -39.5 93t-117.5 33q-76 0 -119 -35.5t-51 -100.5l-94 5q10 99 79 155t186 56q127 0 189.5 -52.5t62.5 -142.5
q0 -110 -99 -165q51 -18 86 -64t35 -113q0 -109 -73.5 -169t-204.5 -60q-135 0 -207 58.5z" />
    <glyph glyph-name="uni0418" unicode="&#x418;" horiz-adv-x="744" 
d="M87 0v748h92v-579l401 579h77v-748h-92v578l-401 -578h-77z" />
    <glyph glyph-name="uni0419" unicode="&#x419;" horiz-adv-x="744" 
d="M87 0v748h92v-579l401 579h77v-748h-92v578l-401 -578h-77zM531 955q0 -67 -42.5 -103.5t-114.5 -36.5t-114.5 36.5t-42.5 103.5h73q0 -38 22.5 -59.5t61.5 -21.5q38 0 61 22t23 59h73z" />
    <glyph glyph-name="uni041A" unicode="&#x41a;" horiz-adv-x="667" 
d="M178 0h-91v748h91v-350l317 350h116l-331 -363l374 -385h-126l-350 362v-362z" />
    <glyph glyph-name="uni041B" unicode="&#x41b;" horiz-adv-x="747" 
d="M28 0v83q25 -5 41 -5q46 0 72 28t38 74.5t18 116.5l39 451h424v-748h-91v667h-248l-40 -415q-14 -146 -68.5 -202t-132.5 -56q-32 0 -52 6z" />
    <glyph glyph-name="uni041C" unicode="&#x41c;" horiz-adv-x="955" 
d="M789 748h79v-748h-91v546l-268 -541h-60l-270 541v-546h-92v748h80l311 -612z" />
    <glyph glyph-name="uni041D" unicode="&#x41d;" horiz-adv-x="747" 
d="M569 748h91v-748h-91v347h-390v-347h-92v748h92v-320h390v320z" />
    <glyph glyph-name="uni041E" unicode="&#x41e;" horiz-adv-x="844" 
d="M611.5 711q84.5 -47 133 -134t48.5 -203t-48.5 -203t-133 -134t-189.5 -47t-189.5 47t-133 134t-48.5 203t48.5 203t133 134t189.5 47t189.5 -47zM279.5 640q-63.5 -36 -100 -104.5t-36.5 -161.5t36.5 -161t100 -104.5t142.5 -36.5t142 36.5t99.5 104.5t36.5 161
t-36.5 161.5t-99.5 104.5t-142 36t-142.5 -36z" />
    <glyph glyph-name="uni041F" unicode="&#x41f;" horiz-adv-x="737" 
d="M178 0h-91v748h563v-748h-91v668h-381v-668z" />
    <glyph glyph-name="uni0420" unicode="&#x420;" horiz-adv-x="643" 
d="M380 748q66 0 118 -26t82 -77t30 -124q0 -72 -30 -123t-82 -77t-118 -26h-201v-295h-92v748h293zM178 668v-292h191q64 0 105.5 37.5t41.5 107.5q0 72 -41.5 109.5t-105.5 37.5h-191z" />
    <glyph glyph-name="uni0421" unicode="&#x421;" horiz-adv-x="803" 
d="M229.5 37q-83.5 47 -131 134t-47.5 203t47.5 203t130.5 134t187 47q88 0 162 -33.5t122 -96.5t59 -147l-95 -9q-14 96 -82 150t-167 54q-76 0 -137.5 -36.5t-97.5 -105t-36 -160.5q0 -93 35 -161t96.5 -104.5t140.5 -36.5q98 0 165 50.5t83 142.5l96 -8
q-14 -82 -61.5 -142t-120.5 -92.5t-161 -32.5q-104 0 -187.5 47z" />
    <glyph glyph-name="uni0422" unicode="&#x422;" horiz-adv-x="693" 
d="M22 748h648v-80h-278v-668h-91v668h-279v80z" />
    <glyph glyph-name="uni0423" unicode="&#x423;" horiz-adv-x="687" 
d="M85 13l25 88q52 -19 86 -19q33 0 58 18.5t47 58.5l17 32l-302 557h104l248 -461l207 461h99l-258 -559q-35 -75 -59.5 -110t-50.5 -54q-41 -31 -112 -31q-54 0 -109 19z" />
    <glyph glyph-name="uni0424" unicode="&#x424;" horiz-adv-x="954" 
d="M431 63q-177 2 -278.5 83t-101.5 228q0 98 46 168.5t131.5 108t202.5 39.5v98h91v-98q117 -2 203 -39.5t132 -108t46 -168.5q0 -147 -101.5 -228t-279.5 -83v-103h-91v103zM522 142q137 2 212.5 61t75.5 171q0 113 -75.5 174t-212.5 63v-469zM431 610
q-137 -2 -212.5 -62.5t-75.5 -173.5q0 -112 75.5 -171t212.5 -60v467z" />
    <glyph glyph-name="uni0425" unicode="&#x425;" horiz-adv-x="685" 
d="M547 748h105l-242 -368l253 -380h-106l-214 326l-215 -326h-106l254 380l-242 368h105l204 -313z" />
    <glyph glyph-name="uni0426" unicode="&#x426;" horiz-adv-x="785" 
d="M749 -170h-85v170h-577v748h91v-667h381v667h91v-667h99v-251z" />
    <glyph glyph-name="uni0427" unicode="&#x427;" horiz-adv-x="655" 
d="M477 329q-33 -9 -81 -14t-93 -5q-103 0 -158.5 27.5t-75.5 74.5t-20 116v220h92v-189q0 -55 10.5 -90t49.5 -57.5t119 -22.5q87 0 157 20v339h91v-748h-91v329z" />
    <glyph glyph-name="uni0428" unicode="&#x428;" horiz-adv-x="1089" 
d="M1002 0h-915v748h91v-667h321v667h91v-667h320v667h92v-748z" />
    <glyph glyph-name="uni0429" unicode="&#x429;" horiz-adv-x="1137" 
d="M1002 748v-667h99v-251h-85v170h-929v748h91v-667h321v667h91v-667h320v667h92z" />
    <glyph glyph-name="uni042A" unicode="&#x42a;" horiz-adv-x="806" 
d="M543 453q66 0 118 -26t82 -77t30 -123q0 -73 -30 -124t-82 -77t-118 -26h-293v668h-228v80h320v-295h201zM532 80q64 0 105.5 37.5t41.5 109.5q0 70 -41.5 107.5t-105.5 37.5h-190v-292h190z" />
    <glyph glyph-name="uni042B" unicode="&#x42b;" horiz-adv-x="895" 
d="M87 0v748h92v-295h201q66 0 118 -26t82 -77t30 -123q0 -73 -30 -124t-82 -77t-118 -26h-293zM369 80q64 0 105.5 37.5t41.5 109.5q0 70 -41.5 107.5t-105.5 37.5h-191v-292h191zM716 748h92v-748h-92v748z" />
    <glyph glyph-name="uni042C" unicode="&#x42c;" horiz-adv-x="643" 
d="M87 0v748h92v-295h201q66 0 118 -26t82 -77t30 -123q0 -73 -30 -124t-82 -77t-118 -26h-293zM369 80q64 0 105.5 37.5t41.5 109.5q0 70 -41.5 107.5t-105.5 37.5h-191v-292h191z" />
    <glyph glyph-name="uni042D" unicode="&#x42d;" horiz-adv-x="803" 
d="M574 711q83 -47 130.5 -134t47.5 -203t-47.5 -203t-131 -134t-187.5 -47q-88 0 -161 32.5t-120.5 92.5t-61.5 142l96 8q16 -92 83 -142.5t165 -50.5q75 0 134.5 33t95.5 95t41 147h-346v79h344q-10 77 -47.5 133.5t-94.5 86.5t-126 30q-99 0 -167 -54t-82 -150l-95 9
q11 84 59 147t122 96.5t162 33.5q104 0 187 -47z" />
    <glyph glyph-name="uni042E" unicode="&#x42e;" horiz-adv-x="1053" 
d="M830 711.5q80 -46.5 126 -133.5t46 -204q0 -116 -46 -203t-126 -134t-179 -47q-95 0 -173 43.5t-125 124t-52 189.5h-123v-347h-91v748h91v-320h125q10 101 58 176t123 114.5t167 39.5q99 0 179 -46.5zM782.5 108.5q58.5 36.5 92.5 104.5t34 161t-34 161.5t-92.5 104.5
t-131.5 36q-74 0 -132.5 -36t-92.5 -104.5t-34 -161.5t34 -161t93 -104.5t132 -36.5t131.5 36.5z" />
    <glyph glyph-name="uni042F" unicode="&#x42f;" horiz-adv-x="680" 
d="M593 748v-748h-92v298h-131l-219 -298h-116l233 305q-96 13 -144.5 72.5t-48.5 146.5q0 72 30 122.5t81.5 76t117.5 25.5h289zM502 380v287h-187q-63 0 -105 -36.5t-42 -106.5t44.5 -107t114.5 -37h175z" />
    <glyph glyph-name="uni0430" unicode="&#x430;" horiz-adv-x="536" 
d="M405.5 467.5q50.5 -51.5 50.5 -146.5v-321h-87v60q-27 -33 -66 -51.5t-86 -18.5q-76 0 -121.5 38.5t-45.5 106.5q0 142 187 152l132 8v24q0 59 -26.5 91.5t-80.5 32.5q-53 0 -82 -31t-29 -75l-87 4q0 45 24 86t68.5 66.5t104.5 25.5q94 0 144.5 -51.5zM248 219
q-53 -4 -82 -23t-29 -59q0 -39 25 -56.5t68 -17.5q62 0 101 35t39 107v21z" />
    <glyph glyph-name="uni0431" unicode="&#x431;" horiz-adv-x="625" 
d="M453.5 482q56.5 -32 88.5 -90.5t32 -136.5q0 -80 -34 -139.5t-93 -92t-132 -32.5q-79 0 -134 29t-87 82q-25 42 -34.5 95t-9.5 132q0 139 27.5 219.5t94.5 124.5t192 64q68 13 100 20.5t55 19.5v-83q-16 -10 -42.5 -16t-97.5 -20q-7 -1 -28 -5q-75 -14 -117.5 -37.5
t-65.5 -69t-29 -124.5q31 47 80.5 69.5t105.5 22.5q72 0 128.5 -32zM403 87.5q39 22.5 61 65t22 100.5q0 87 -48 137t-124 50q-49 0 -88.5 -22.5t-62 -64.5t-22.5 -100t23 -100.5t62.5 -65t89.5 -22.5q48 0 87 22.5z" />
    <glyph glyph-name="uni0432" unicode="&#x432;" horiz-adv-x="570" 
d="M84 0v510h245q81 0 127 -34.5t46 -99.5q0 -67 -58 -104q34 -15 56.5 -46t22.5 -77q0 -72 -50 -110.5t-127 -38.5h-262zM347 296q29 0 50 18t21 50q0 36 -22 53.5t-61 17.5h-166v-139h178zM342 74q44 0 70 19t26 59q0 39 -25.5 57t-60.5 18h-183v-153h173z" />
    <glyph glyph-name="uni0433" unicode="&#x433;" horiz-adv-x="438" 
d="M170 0h-86v510h344v-79h-258v-431z" />
    <glyph glyph-name="uni0434" unicode="&#x434;" horiz-adv-x="600" 
d="M484 75h82v-225h-78v150h-395v-150h-78v225h29q37 14 64.5 80.5t33.5 204.5l7 150h335v-435zM220 354q-5 -96 -21 -165t-54 -114h254v360h-174z" />
    <glyph glyph-name="uni0435" unicode="&#x435;" 
d="M535 222h-394q4 -73 48 -115t112 -42q56 0 93 24t49 67l87 -5q-16 -70 -78 -115.5t-149 -45.5q-73 0 -130.5 32t-90 92t-32.5 141t32 141t89 91.5t130 31.5q109 0 171.5 -68t62.5 -182v-47zM188.5 404q-43.5 -40 -47.5 -113h308q-1 70 -39.5 111.5t-109.5 41.5
q-68 0 -111.5 -40z" />
    <glyph glyph-name="uni0436" unicode="&#x436;" horiz-adv-x="762" 
d="M120 0h-113l246 262l-229 248h104l213 -241v241h86v-242l207 242h104l-222 -248l239 -262h-112l-216 243v-243h-86v242z" />
    <glyph glyph-name="uni0437" unicode="&#x437;" horiz-adv-x="529" 
d="M108.5 35.5q-57.5 44.5 -63.5 118.5l86 5q9 -47 43.5 -72t99.5 -25q58 0 89.5 23.5t31.5 64.5q0 38 -29 57.5t-82 19.5h-80v69h81q44 0 69.5 19.5t25.5 55.5q0 35 -29 56t-85 21q-55 0 -84 -23.5t-35 -65.5l-87 4q9 71 60.5 113.5t151.5 42.5q93 0 144 -38.5t51 -103.5
q0 -42 -22 -69.5t-51 -40.5q37 -13 62.5 -42.5t25.5 -74.5q0 -76 -56.5 -117.5t-157.5 -41.5q-102 0 -159.5 44.5z" />
    <glyph glyph-name="uni0438" unicode="&#x438;" horiz-adv-x="620" 
d="M170 0h-86v510h86v-384l280 384h85v-510h-85v383z" />
    <glyph glyph-name="uni0439" unicode="&#x439;" horiz-adv-x="620" 
d="M170 0h-86v510h86v-384l280 384h85v-510h-85v383zM466 744q0 -70 -42.5 -108t-114.5 -38t-114.5 38t-42.5 108h73q0 -40 22.5 -63t61.5 -23t61.5 23t22.5 63h73z" />
    <glyph glyph-name="uni043A" unicode="&#x43a;" horiz-adv-x="512" 
d="M170 0h-86v510h86v-243l214 243h104l-225 -247l242 -263h-115l-220 243v-243z" />
    <glyph glyph-name="uni043B" unicode="&#x43b;" horiz-adv-x="586" 
d="M16 73q16 -2 23 -2q41 0 63 23.5t32 66t17 118.5l20 231h330v-510h-86v435h-168l-21 -199q-9 -83 -26 -134t-51 -78.5t-93 -27.5q-19 0 -40 3v74z" />
    <glyph glyph-name="uni043C" unicode="&#x43c;" horiz-adv-x="755" 
d="M169 0h-85v510h85l216 -383l200 383h85v-510h-84v351l-182 -328h-49l-186 328v-351z" />
    <glyph glyph-name="uni043D" unicode="&#x43d;" horiz-adv-x="607" 
d="M170 0h-86v510h86v-209h266v209h86v-510h-86v226h-266v-226z" />
    <glyph glyph-name="uni043E" unicode="&#x43e;" horiz-adv-x="625" 
d="M445.5 486.5q59.5 -32.5 94 -92.5t34.5 -139t-34.5 -139.5t-94 -93t-133.5 -32.5t-133.5 32.5t-94 93t-34.5 139.5t34.5 139t94 92.5t133.5 32.5t133.5 -32.5zM222.5 421.5q-39.5 -22.5 -62.5 -65.5t-23 -101t23 -101t62.5 -66t89.5 -23t89.5 23t62.5 66t23 101t-23 101
t-62.5 65.5t-89.5 22.5t-89.5 -22.5z" />
    <glyph glyph-name="uni043F" unicode="&#x43f;" horiz-adv-x="587" 
d="M170 0h-86v510h418v-510h-86v435h-246v-435z" />
    <glyph glyph-name="uni0440" unicode="&#x440;" horiz-adv-x="643" 
d="M84 -255v765h82v-84q23 42 70 67.5t111 25.5q70 0 126 -32t88 -92t32 -140q0 -81 -32 -141t-88 -92t-126 -32q-62 0 -108 23.5t-68 62.5v-331h-87zM457.5 115q47.5 50 47.5 139q0 90 -47.5 140t-122.5 50q-74 0 -119 -45.5t-45 -129.5v-30q0 -84 45 -129t119 -45
q75 0 122.5 50z" />
    <glyph glyph-name="uni0441" unicode="&#x441;" horiz-adv-x="572" 
d="M455.5 467.5q63.5 -51.5 74.5 -139.5l-84 -7q-7 57 -46.5 90t-98.5 33q-73 0 -118 -50t-45 -139t45.5 -139.5t117.5 -50.5q60 0 98.5 31t47.5 85l84 -8q-14 -85 -76 -134t-154 -49q-72 0 -129 31.5t-89.5 91.5t-32.5 142t32.5 141.5t89.5 91t129 31.5q91 0 154.5 -51.5z
" />
    <glyph glyph-name="uni0442" unicode="&#x442;" horiz-adv-x="461" 
d="M274 0h-87v433h-177v77h441v-77h-177v-433z" />
    <glyph glyph-name="uni0443" unicode="&#x443;" horiz-adv-x="524" 
d="M420 510h92l-322 -765h-95l121 283l-203 482h93l157 -388z" />
    <glyph glyph-name="uni0444" unicode="&#x444;" horiz-adv-x="748" 
d="M331 -8q-84 4 -147.5 37t-98.5 91t-35 135q0 76 35 134.5t98.5 91.5t147.5 37v259h85v-259q85 -4 148.5 -37t98 -91t34.5 -135t-34.5 -135t-98 -91t-148.5 -37v-247h-85v247zM331 444q-90 -6 -142 -56t-52 -133t52 -133t142 -56v378zM416 66q90 6 141.5 56t51.5 133
t-51.5 133t-141.5 56v-378z" />
    <glyph glyph-name="uni0445" unicode="&#x445;" horiz-adv-x="509" 
d="M114 0h-100l177 263l-169 247h100l133 -195l130 195h101l-170 -249l180 -261h-102l-139 207z" />
    <glyph glyph-name="uni0446" unicode="&#x446;" horiz-adv-x="618" 
d="M502 510v-435h82v-225h-78v150h-422v510h86v-435h246v435h86z" />
    <glyph glyph-name="uni0447" unicode="&#x447;" horiz-adv-x="551" 
d="M380 204q-25 -9 -62 -14t-70 -5q-96 0 -140.5 43t-44.5 129v153h86v-144q0 -55 28 -80.5t87 -25.5q33 0 65 5.5t51 14.5v230h86v-510h-86v204z" />
    <glyph glyph-name="uni0448" unicode="&#x448;" horiz-adv-x="865" 
d="M780 0h-696v510h86v-435h219v435h85v-435h221v435h85v-510z" />
    <glyph glyph-name="uni0449" unicode="&#x449;" horiz-adv-x="896" 
d="M780 510v-435h82v-225h-78v150h-700v510h86v-435h219v435h85v-435h221v435h85z" />
    <glyph glyph-name="uni044A" unicode="&#x44a;" horiz-adv-x="619" 
d="M168 0v435h-158v75h244v-183h158q79 0 129 -43.5t50 -120.5q0 -76 -51 -119.5t-133 -43.5h-239zM404 74q47 0 74.5 22.5t27.5 66.5t-27.5 67t-74.5 23h-150v-179h150z" />
    <glyph glyph-name="uni044B" unicode="&#x44b;" horiz-adv-x="766" 
d="M594 510h87v-510h-87v510zM84 0v510h86v-183h158q79 0 129 -43.5t50 -120.5q0 -76 -51 -119.5t-133 -43.5h-239zM320 74q47 0 74.5 22.5t27.5 66.5t-27.5 67t-74.5 23h-150v-179h150z" />
    <glyph glyph-name="uni044C" unicode="&#x44c;" horiz-adv-x="535" 
d="M84 0v510h86v-183h158q79 0 129 -43.5t50 -120.5q0 -76 -51 -119.5t-133 -43.5h-239zM320 74q47 0 74.5 22.5t27.5 66.5t-27.5 67t-74.5 23h-150v-179h150z" />
    <glyph glyph-name="uni044D" unicode="&#x44d;" horiz-adv-x="569" 
d="M397 487.5q57 -31.5 89.5 -91t32.5 -141.5t-32.5 -142t-90 -91.5t-129.5 -31.5q-86 0 -145.5 44t-80.5 123l84 9q15 -48 51.5 -74t90.5 -26q69 0 112.5 38t51.5 120h-244v69h243q-9 78 -51.5 114.5t-110.5 36.5q-55 0 -92 -27.5t-51 -80.5l-83 10q19 81 80 127t146 46
q72 0 129 -31.5z" />
    <glyph glyph-name="uni044E" unicode="&#x44e;" horiz-adv-x="785" 
d="M617.5 486.5q54.5 -32.5 85.5 -92.5t31 -139q0 -80 -31 -140t-85.5 -92.5t-122.5 -32.5q-64 0 -116.5 29t-85 82.5t-37.5 125.5h-87v-227h-85v510h85v-208h89q9 66 42 115t83.5 75.5t111.5 26.5q68 0 122.5 -32.5zM606 116.5q43 51.5 43 138.5t-43 138.5t-111 51.5
q-44 0 -79.5 -23t-55.5 -66t-20 -101t20 -101t55.5 -66t79.5 -23q68 0 111 51.5z" />
    <glyph glyph-name="uni044F" unicode="&#x44f;" horiz-adv-x="560" 
d="M475 510v-510h-85v180h-113l-141 -180h-105l156 191q-61 16 -96 54t-35 99q0 80 53 123t136 43h230zM390 254v182h-134q-48 0 -79 -23.5t-31 -68.5t31 -67.5t79 -22.5h134z" />
    <glyph glyph-name="uni0450" unicode="&#x450;" 
d="M535 222h-394q4 -73 48 -115t112 -42q56 0 93 24t49 67l87 -5q-16 -70 -78 -115.5t-149 -45.5q-73 0 -130.5 32t-90 92t-32.5 141t32 141t89 91.5t130 31.5q109 0 171.5 -68t62.5 -182v-47zM188.5 404q-43.5 -40 -47.5 -113h308q-1 70 -39.5 111.5t-109.5 41.5
q-68 0 -111.5 -40zM130 786h99l102 -191h-68z" />
    <glyph glyph-name="uni0451" unicode="&#x451;" 
d="M535 222h-394q4 -73 48 -115t112 -42q56 0 93 24t49 67l87 -5q-16 -70 -78 -115.5t-149 -45.5q-73 0 -130.5 32t-90 92t-32.5 141t32 141t89 91.5t130 31.5q109 0 171.5 -68t62.5 -182v-47zM188.5 404q-43.5 -40 -47.5 -113h308q-1 70 -39.5 111.5t-109.5 41.5
q-68 0 -111.5 -40zM247.5 729q17.5 -17 17.5 -41t-17.5 -40.5t-41.5 -16.5q-25 0 -41.5 16t-16.5 41q0 24 16.5 41t41.5 17q24 0 41.5 -17zM434.5 729q16.5 -17 16.5 -41q0 -25 -16 -41t-41 -16q-24 0 -41.5 16.5t-17.5 40.5t17.5 41t41.5 17t40.5 -17z" />
    <glyph glyph-name="uni0452" unicode="&#x452;" horiz-adv-x="603" 
d="M427 493.5q45 -25.5 70 -73t25 -110.5v-385q0 -88 -46.5 -136.5t-127.5 -48.5q-15 0 -39 2v77q14 -3 30 -3q46 0 71.5 27.5t25.5 78.5v377q0 63 -35.5 101.5t-93.5 38.5q-60 0 -98 -40.5t-38 -100.5v-298h-87v612h-86v65h86v100h87v-100h143v-65h-143v-172q18 33 58.5 56
t95.5 23q57 0 102 -25.5z" />
    <glyph glyph-name="uni0453" unicode="&#x453;" horiz-adv-x="438" 
d="M170 0h-86v510h344v-79h-258v-431zM314 786h97l-132 -191h-69z" />
    <glyph glyph-name="uni0454" unicode="&#x454;" horiz-adv-x="569" 
d="M528 157q-21 -79 -80.5 -123t-145.5 -44q-72 0 -129.5 31.5t-90 91.5t-32.5 142t32.5 141.5t89.5 91t129 31.5q85 0 146 -46t80 -127l-83 -10q-14 53 -51 80.5t-92 27.5q-68 0 -110.5 -36.5t-51.5 -114.5h243v-69h-244q8 -82 51.5 -120t112.5 -38q54 0 90.5 26t51.5 74z
" />
    <glyph glyph-name="uni0455" unicode="&#x455;" horiz-adv-x="493" 
d="M375.5 475.5q47.5 -42.5 55.5 -110.5l-86 -5q-4 39 -30 61.5t-73 22.5q-48 0 -73 -19.5t-25 -54.5q0 -23 11.5 -35.5t29.5 -19t56 -15.5q8 -1 24 -5q61 -14 98.5 -31t58 -44.5t20.5 -71.5q0 -75 -52 -116.5t-141 -41.5q-86 0 -139 41t-62 114l85 6q7 -42 37 -64t81 -22
q48 0 77 19.5t29 56.5q0 26 -12 40.5t-37.5 24t-77.5 21.5q-62 14 -96 27.5t-55 40.5t-21 74q0 69 49.5 109t139.5 40q81 0 128.5 -42.5z" />
    <glyph glyph-name="uni0456" unicode="&#x456;" horiz-adv-x="255" 
d="M168 734.5q17 -16.5 17 -40.5q0 -23 -17 -39.5t-40 -16.5q-24 0 -40.5 16.5t-16.5 39.5q0 24 17 40.5t40 16.5t40 -16.5zM84 510h87v-510h-87v510z" />
    <glyph glyph-name="uni0457" unicode="&#x457;" horiz-adv-x="255" 
d="M92.5 731q13.5 -15 13.5 -37q0 -21 -13.5 -35.5t-31.5 -14.5q-20 0 -33.5 14t-13.5 36t13.5 37t33.5 15q18 0 31.5 -15zM226.5 731q13.5 -15 13.5 -37q0 -21 -13.5 -35.5t-32.5 -14.5t-33 14.5t-14 35.5q0 22 14 37t33 15t32.5 -15zM84 510h87v-510h-87v510z" />
    <glyph glyph-name="uni0458" unicode="&#x458;" horiz-adv-x="260" 
d="M173 734.5q17 -16.5 17 -40.5q0 -23 -17 -39.5t-40 -16.5q-24 0 -40.5 16.5t-16.5 39.5q0 24 16.5 40.5t40.5 16.5q23 0 40 -16.5zM177 -75q0 -88 -47 -136.5t-127 -48.5q-14 0 -40 2v77q13 -3 30 -3q46 0 71.5 27.5t25.5 78.5v588h87v-585z" />
    <glyph glyph-name="uni0459" unicode="&#x459;" horiz-adv-x="844" 
d="M16 73q16 -2 23 -2q41 0 63 23.5t32 66t17 118.5l20 231h318v-183h148q79 0 129 -43.5t50 -120.5q0 -76 -51 -119.5t-133 -43.5h-229v435h-156l-21 -199q-9 -83 -26 -134t-51 -78.5t-93 -27.5q-19 0 -40 3v74zM629 74q47 0 74.5 22.5t27.5 66.5t-27.5 67t-74.5 23h-140
v-179h140z" />
    <glyph glyph-name="uni045A" unicode="&#x45a;" horiz-adv-x="857" 
d="M84 0v510h87v-199h245v199h86v-199h132q89 0 142 -39t53 -116t-53 -116.5t-142 -39.5h-218v237h-245v-237h-87zM626 74q52 0 84.5 19.5t32.5 61.5t-32.5 62t-84.5 20h-124v-163h124z" />
    <glyph glyph-name="uni045B" unicode="&#x45b;" horiz-adv-x="597" 
d="M427 493.5q45 -25.5 70 -73t25 -110.5v-310h-86v299q0 63 -35.5 101.5t-93.5 38.5q-60 0 -98 -40.5t-38 -100.5v-298h-87v612h-86v65h86v100h87v-100h143v-65h-143v-172q18 33 58.5 56t95.5 23q57 0 102 -25.5z" />
    <glyph glyph-name="uni045C" unicode="&#x45c;" horiz-adv-x="512" 
d="M170 0h-86v510h86v-243l214 243h104l-225 -247l242 -263h-115l-220 243v-243zM355 786h97l-132 -191h-69z" />
    <glyph glyph-name="uni045D" unicode="&#x45d;" horiz-adv-x="620" 
d="M170 0h-86v510h86v-384l280 384h85v-510h-85v383zM141 786h99l102 -191h-68z" />
    <glyph glyph-name="uni045E" unicode="&#x45e;" horiz-adv-x="524" 
d="M420 510h92l-322 -765h-95l121 283l-203 482h93l157 -388zM419 744q0 -70 -42.5 -108t-114.5 -38t-114.5 38t-42.5 108h73q0 -40 22.5 -63t61.5 -23t61.5 23t22.5 63h73z" />
    <glyph glyph-name="uni045F" unicode="&#x45f;" horiz-adv-x="604" 
d="M433 510h86v-510h-180v-150h-75v150h-180v510h86v-435h263v435z" />
    <glyph glyph-name="uni0462" unicode="&#x462;" horiz-adv-x="752" 
d="M197 0v567h-175v77h175v104h91v-104h219v-77h-219v-142h202q103 0 166 -53t63 -159q0 -102 -64 -157.5t-165 -55.5h-293zM479 82q63 0 105 33.5t42 97.5q0 68 -41 99t-106 31h-191v-261h191z" />
    <glyph glyph-name="uni0463" unicode="&#x463;" horiz-adv-x="600" 
d="M149 0v435h-139v75h139v267h87v-267h181v-75h-182v-108h158q79 0 129 -43.5t50 -120.5q0 -76 -51 -119.5t-133 -43.5h-239zM385 74q47 0 74.5 22.5t27.5 66.5t-27.5 67t-74.5 23h-150v-179h150z" />
    <glyph glyph-name="uni0472" unicode="&#x472;" horiz-adv-x="844" 
d="M611.5 711q84.5 -47 133 -134t48.5 -203t-48.5 -203t-133 -134t-189.5 -47t-189.5 47t-133 134t-48.5 203t48.5 203t133 134t189.5 47t189.5 -47zM289 645q-60 -31 -98 -90t-46 -140h553q-8 81 -45.5 140t-97.5 90t-133 31t-133 -31zM556 103.5q60 31.5 97.5 91.5
t44.5 142h-553q7 -82 44.5 -142t98 -91.5t134.5 -31.5t134 31.5z" />
    <glyph glyph-name="uni0473" unicode="&#x473;" horiz-adv-x="625" 
d="M445.5 486.5q59.5 -32.5 94 -92.5t34.5 -139t-34.5 -139.5t-94 -93t-133.5 -32.5t-133.5 32.5t-94 93t-34.5 139.5t34.5 139t94 92.5t133.5 32.5t133.5 -32.5zM196.5 403.5q-47.5 -40.5 -57.5 -112.5h346q-10 72 -57.5 112.5t-115.5 40.5t-115.5 -40.5zM427.5 107
q47.5 42 57.5 115h-346q10 -73 57.5 -115t115.5 -42t115.5 42z" />
    <glyph glyph-name="uni0474" unicode="&#x474;" horiz-adv-x="779" 
d="M329 0l-312 748h101l254 -614l163 477q25 72 62 107.5t100 35.5q25 0 57 -6l-10 -85q-23 6 -39 6q-28 0 -46 -16.5t-29 -41.5t-32 -83l-190 -528h-79z" />
    <glyph glyph-name="uni0475" unicode="&#x475;" horiz-adv-x="557" 
d="M230 0l-223 510h97l165 -388l94 264q23 66 55.5 96.5t86.5 30.5q23 0 43 -4l-8 -81q-13 4 -26 4q-26 0 -42 -17t-30 -53l-138 -362h-74z" />
    <glyph glyph-name="uni0490" unicode="&#x490;" horiz-adv-x="555" 
d="M450 748v170h82v-251h-353v-667h-92v748h363z" />
    <glyph glyph-name="uni0491" unicode="&#x491;" horiz-adv-x="448" 
d="M350 510v150h78v-229h-258v-431h-86v510h266z" />
    <glyph glyph-name="uni0492" unicode="&#x492;" horiz-adv-x="601" 
d="M578 748v-81h-353v-242h217v-80h-217v-345h-92v345h-110v80h110v323h445z" />
    <glyph glyph-name="uni0493" unicode="&#x493;" horiz-adv-x="447" 
d="M437 510v-79h-258v-146h156v-61h-156v-224h-86v224h-73v61h73v225h344z" />
    <glyph glyph-name="uni0496" unicode="&#x496;" horiz-adv-x="1049" 
d="M645 382l268 -301h100v-251h-85v170h-61l-322 364v-364h-91v366l-323 -366h-118l340 382l-308 366h113l296 -352v352h91v-351l295 351h113z" />
    <glyph glyph-name="uni0497" unicode="&#x497;" horiz-adv-x="804" 
d="M516 262l171 -187h83v-225h-78v150h-49l-216 243v-243h-86v242l-221 -242h-113l246 262l-229 248h104l213 -241v241h86v-242l207 242h104z" />
    <glyph glyph-name="uni049A" unicode="&#x49a;" horiz-adv-x="715" 
d="M280 385l295 -304h104v-251h-85v170h-66l-350 362v-362h-91v748h91v-350l317 350h116z" />
    <glyph glyph-name="uni049B" unicode="&#x49b;" horiz-adv-x="557" 
d="M263 263l173 -188h87v-225h-78v150h-55l-220 243v-243h-86v510h86v-243l214 243h104z" />
    <glyph glyph-name="uni04A2" unicode="&#x4a2;" horiz-adv-x="795" 
d="M660 748v-667h99v-251h-85v170h-105v347h-390v-347h-92v748h92v-320h390v320h91z" />
    <glyph glyph-name="uni04A3" unicode="&#x4a3;" horiz-adv-x="638" 
d="M522 510v-435h82v-225h-78v150h-90v226h-266v-226h-86v510h86v-209h266v209h86z" />
    <glyph glyph-name="uni04AE" unicode="&#x4ae;" horiz-adv-x="686" 
d="M566 748h106l-283 -437v-311h-91v311l-284 437h106l223 -347z" />
    <glyph glyph-name="uni04AF" unicode="&#x4af;" horiz-adv-x="524" 
d="M305 -255h-86v261l-212 504h92l164 -397l161 397h93l-212 -507v-258z" />
    <glyph glyph-name="uni04B0" unicode="&#x4b0;" horiz-adv-x="686" 
d="M566 748h106l-258 -399h157v-80h-182v-269h-91v269h-182v80h157l-259 399h106l223 -347z" />
    <glyph glyph-name="uni04B1" unicode="&#x4b1;" horiz-adv-x="524" 
d="M517 510l-212 -507v-3h144v-61h-144v-194h-86v194h-143v61h143v6l-212 504h92l164 -397l161 397h93z" />
    <glyph glyph-name="uni04B2" unicode="&#x4b2;" horiz-adv-x="747" 
d="M410 380l199 -299h102v-251h-85v170h-69l-214 326l-215 -326h-106l254 380l-242 368h105l204 -313l204 313h105z" />
    <glyph glyph-name="uni04B3" unicode="&#x4b3;" horiz-adv-x="563" 
d="M316 261l128 -186h85v-225h-78v150h-57l-139 207l-141 -207h-100l177 263l-169 247h100l133 -195l130 195h101z" />
    <glyph glyph-name="uni04B6" unicode="&#x4b6;" horiz-adv-x="708" 
d="M568 81h104v-251h-85v170h-110v329q-33 -9 -81 -14t-93 -5q-103 0 -158.5 27.5t-75.5 74.5t-20 116v220h92v-189q0 -55 10.5 -90t49.5 -57.5t119 -22.5q87 0 157 20v339h91v-667z" />
    <glyph glyph-name="uni04B7" unicode="&#x4b7;" horiz-adv-x="582" 
d="M466 75h82v-225h-78v150h-90v204q-25 -9 -62 -14t-70 -5q-96 0 -140.5 43t-44.5 129v153h86v-144q0 -55 28 -80.5t87 -25.5q33 0 65 5.5t51 14.5v230h86v-435z" />
    <glyph glyph-name="uni04BA" unicode="&#x4ba;" horiz-adv-x="655" 
d="M87 0v748h91v-295q33 9 81 14t93 5q103 0 158.5 -27.5t75.5 -74.5t20 -116v-254h-92v223q0 55 -10.5 90t-49.5 57.5t-119 22.5q-87 0 -157 -20v-373h-91z" />
    <glyph glyph-name="uni04BB" unicode="&#x4bb;" horiz-adv-x="597" 
d="M171 440q18 33 58.5 56t95.5 23q57 0 102 -25.5t70 -73t25 -110.5v-310h-86v299q0 63 -35.5 101.5t-93.5 38.5q-60 0 -98 -40.5t-38 -100.5v-298h-87v777h87v-337z" />
    <glyph glyph-name="uni04C0" unicode="&#x4c0;" horiz-adv-x="266" 
d="M87 748h92v-748h-92v748z" />
    <glyph glyph-name="uni04C1" unicode="&#x4c1;" horiz-adv-x="998" 
d="M131 0h-118l340 382l-308 366h113l296 -352v352h91v-351l295 351h113l-308 -366l340 -382h-118l-322 364v-364h-91v366zM655 955q0 -67 -42.5 -103.5t-114.5 -36.5t-114.5 36.5t-42.5 103.5h73q0 -38 22.5 -59.5t61.5 -21.5q38 0 61 22t23 59h73z" />
    <glyph glyph-name="uni04C2" unicode="&#x4c2;" horiz-adv-x="762" 
d="M120 0h-113l246 262l-229 248h104l213 -241v241h86v-242l207 242h104l-222 -248l239 -262h-112l-216 243v-243h-86v242zM540 744q0 -70 -42.5 -108t-114.5 -38t-114.5 38t-42.5 108h73q0 -40 22.5 -63t61.5 -23t61.5 23t22.5 63h73z" />
    <glyph glyph-name="uni04CF" unicode="&#x4cf;" horiz-adv-x="255" 
d="M84 777h87v-777h-87v777z" />
    <glyph glyph-name="uni04D8" unicode="&#x4d8;" horiz-adv-x="814" 
d="M219 35q-77 45 -117.5 127t-40.5 190v57h609q-4 127 -76.5 197.5t-193.5 70.5q-85 0 -146 -40.5t-91 -115.5l-93 8q33 104 124 166.5t217 62.5q105 0 184.5 -45.5t123.5 -132.5t44 -207q0 -119 -46.5 -205.5t-129 -132t-186.5 -45.5q-105 0 -182 45zM535 102q59 30 95 88
t40 140h-517q2 -116 66 -187t183 -71q74 0 133 30z" />
    <glyph glyph-name="uni04D9" unicode="&#x4d9;" 
d="M412.5 488q57.5 -32 90 -92t32.5 -141t-32 -141t-89 -91.5t-130 -31.5q-109 0 -171.5 68t-62.5 182v47h394q-4 73 -48 115t-112 42q-56 0 -93 -24t-49 -67l-87 5q16 70 78 115.5t149 45.5q73 0 130.5 -32zM396.5 106q43.5 40 47.5 113h-308q1 -70 39.5 -111.5
t109.5 -41.5q68 0 111.5 40z" />
    <glyph glyph-name="uni04E2" unicode="&#x4e2;" horiz-adv-x="744" 
d="M87 0v748h92v-579l401 579h77v-748h-92v578l-401 -578h-77zM223 909h304v-63h-304v63z" />
    <glyph glyph-name="uni04E3" unicode="&#x4e3;" horiz-adv-x="620" 
d="M170 0h-86v510h86v-384l280 384h85v-510h-85v383zM168 700h284v-63h-284v63z" />
    <glyph glyph-name="uni04E8" unicode="&#x4e8;" horiz-adv-x="844" 
d="M611.5 711q84.5 -47 133 -134t48.5 -203t-48.5 -203t-133 -134t-189.5 -47t-189.5 47t-133 134t-48.5 203t48.5 203t133 134t189.5 47t189.5 -47zM289 645q-60 -31 -98 -90t-46 -140h553q-8 81 -45.5 140t-97.5 90t-133 31t-133 -31zM556 103.5q60 31.5 97.5 91.5
t44.5 142h-553q7 -82 44.5 -142t98 -91.5t134.5 -31.5t134 31.5z" />
    <glyph glyph-name="uni04E9" unicode="&#x4e9;" horiz-adv-x="625" 
d="M445.5 486.5q59.5 -32.5 94 -92.5t34.5 -139t-34.5 -139.5t-94 -93t-133.5 -32.5t-133.5 32.5t-94 93t-34.5 139.5t34.5 139t94 92.5t133.5 32.5t133.5 -32.5zM196.5 403.5q-47.5 -40.5 -57.5 -112.5h346q-10 72 -57.5 112.5t-115.5 40.5t-115.5 -40.5zM427.5 107
q47.5 42 57.5 115h-346q10 -73 57.5 -115t115.5 -42t115.5 42z" />
    <glyph glyph-name="uni04EE" unicode="&#x4ee;" horiz-adv-x="687" 
d="M85 13l25 88q52 -19 86 -19q33 0 58 18.5t47 58.5l17 32l-302 557h104l248 -461l207 461h99l-258 -559q-35 -75 -59.5 -110t-50.5 -54q-41 -31 -112 -31q-54 0 -109 19zM193 909h304v-63h-304v63z" />
    <glyph glyph-name="uni04EF" unicode="&#x4ef;" horiz-adv-x="524" 
d="M420 510h92l-322 -765h-95l121 283l-203 482h93l157 -388zM121 700h284v-63h-284v63z" />
    <glyph glyph-name="uni10D0" unicode="&#x10d0;" horiz-adv-x="538" 
d="M310 489q-1 -34 17.5 -58.5t57.5 -58.5q33 -29 54 -51t35.5 -55.5t14.5 -78.5q0 -61 -29.5 -105.5t-80.5 -68t-112 -23.5q-63 0 -113.5 26t-80 74t-29.5 111q0 31 7 60l84 -3q-4 -34 -4 -50q0 -68 37 -106t98 -38t99 33t39 92q0 30 -11.5 53.5t-28 40t-46.5 42.5
q-33 27 -52 47.5t-31.5 49.5t-10.5 67h86z" />
    <glyph glyph-name="uni10D1" unicode="&#x10d1;" horiz-adv-x="611" 
d="M362 494q87 -18 141.5 -84.5t54.5 -165.5q0 -76 -33 -134t-90.5 -89t-128.5 -31q-72 0 -129 31t-90 89t-33 134q0 70 28 125t77.5 88t112.5 40v84q0 24 -9.5 38.5t-30.5 34.5q-18 18 -29 31.5t-18 36t-5 55.5h89q-1 -29 10 -47t34 -40q25 -25 37 -45.5t12 -56.5v-94z
M389.5 86.5q37.5 21.5 59 62t21.5 95.5t-21.5 96t-59 62.5t-83.5 21.5q-72 0 -119 -48.5t-47 -131.5q0 -82 47 -130.5t119 -48.5q46 0 83.5 21.5z" />
    <glyph glyph-name="uni10D2" unicode="&#x10d2;" horiz-adv-x="601" 
d="M172 -232q-57 31 -90 88.5t-33 133.5q0 74 30.5 129t84 87t121.5 39q58 5 83.5 30.5t25.5 69.5q0 38 -25.5 60t-70.5 22q-48 0 -74 -22.5t-31 -64.5l-87 4q7 69 57 112t132 43q56 0 98 -19.5t64.5 -52.5t22.5 -74q0 -48 -19 -80t-62 -51q73 -24 113.5 -85.5t40.5 -146.5
q0 -76 -33 -133.5t-90.5 -88.5t-128.5 -31q-72 0 -129 31zM385.5 -167q37.5 22 59 62.5t21.5 94.5q0 55 -21.5 96t-59 62.5t-84.5 21.5q-72 0 -119 -48.5t-47 -131.5q0 -82 47 -130.5t119 -48.5q47 0 84.5 22z" />
    <glyph glyph-name="uni10D3" unicode="&#x10d3;" horiz-adv-x="871" 
d="M559 -259q-19 129 -206 129h-219v70h82q-74 35 -118 114.5t-44 185.5q0 86 27 144t72 86.5t100 28.5q60 0 105.5 -30.5t62.5 -84.5q19 54 67.5 84.5t110.5 30.5q61 0 111 -29t78.5 -82.5t28.5 -123.5q0 -69 -28 -121.5t-78.5 -81.5t-114.5 -29q-63 0 -113.5 28.5t-79 81
t-28.5 122.5v20q0 68 -31.5 104t-83.5 36q-53 0 -86 -46.5t-33 -139.5q0 -127 66.5 -204.5t183.5 -88.5l27 -2q104 -10 162 -60t67 -138zM694 150q37 43 37 115q0 71 -37 115t-98 44q-60 0 -97.5 -43.5t-37.5 -115.5q0 -71 37 -114.5t98 -43.5t98 43z" />
    <glyph glyph-name="uni10D4" unicode="&#x10d4;" horiz-adv-x="594" 
d="M162.5 -236q-54.5 29 -84 80t-29.5 117q0 41 12 84l85 -4q-10 -34 -10 -69q0 -74 42 -117.5t111 -43.5q68 0 109.5 44t41.5 123v291q-1 77 -41.5 116.5t-102.5 39.5q-65 0 -102.5 -38t-37.5 -104q0 -18 5 -51l-88 -3q-6 32 -6 61q0 62 29.5 109.5t81.5 73.5t117 26
t117.5 -28t83 -80t30.5 -122v-291q0 -112 -64.5 -177.5t-173.5 -65.5q-71 0 -125.5 29z" />
    <glyph glyph-name="uni10D5" unicode="&#x10d5;" horiz-adv-x="596" 
d="M421 473.5q53 -25.5 83 -72.5t30 -109q0 -60 -29 -99.5t-80 -55.5q51 -13 85.5 -63t34.5 -119q0 -64 -30 -114t-86 -78t-130 -28q-76 0 -133 30t-87 82.5t-30 119.5q0 32 7 64l86 -5q-6 -20 -6 -49q0 -77 44 -121.5t118 -44.5q73 0 117 41t44 111q0 65 -40.5 102.5
t-114.5 37.5h-33v73h43q66 0 100 31.5t34 89.5t-40 93t-106 35q-68 0 -107.5 -38.5t-39.5 -106.5q0 -9 2 -33l-87 -3q-3 21 -3 41q0 64 30.5 112.5t84.5 75t120 26.5t119 -25.5z" />
    <glyph glyph-name="uni10D6" unicode="&#x10d6;" horiz-adv-x="626" 
d="M192.5 21q-57.5 31 -90.5 88.5t-33 132.5q0 115 80 177q-61 15 -99 61.5t-38 114.5q0 57 25.5 100.5t70.5 67t102 23.5t103 -23t72 -64.5t26 -95.5q0 -39 -11.5 -67.5t-36.5 -52.5q97 -11 153 -75.5t56 -163.5q0 -76 -33 -134t-90 -89t-128 -31t-128.5 31zM293.5 510
q33.5 33 33.5 84q0 52 -32.5 85.5t-83.5 33.5q-50 0 -83 -33t-33 -85t33 -85t83 -33q49 0 82.5 33zM405.5 86.5q37.5 21.5 59 62t21.5 95.5q0 52 -21.5 91.5t-59 61t-84.5 21.5t-85 -21.5t-59.5 -61t-21.5 -91.5q0 -82 47 -130.5t119 -48.5q47 0 84.5 21.5z" />
    <glyph glyph-name="uni10D7" unicode="&#x10d7;" horiz-adv-x="889" 
d="M165 21q-52 31 -81.5 88.5t-29.5 134.5q0 78 30 135.5t81.5 88.5t116.5 31q63 0 114 -32.5t71 -88.5q18 57 64 89t105 32q55 0 100 -28t72 -85.5t27 -142.5q0 -66 -12.5 -123t-37.5 -120h-86q25 65 37 121t12 120q0 91 -32.5 137t-85.5 46q-52 0 -84 -39.5t-32 -119.5
v-21q0 -78 -29.5 -135.5t-82 -88t-118.5 -30.5q-67 0 -119 31zM388 113.5q39 48.5 39 130.5q0 83 -39.5 131.5t-103.5 48.5q-65 0 -104.5 -48.5t-39.5 -131.5q0 -84 40 -131.5t104 -47.5q65 0 104 48.5z" />
    <glyph glyph-name="uni10D8" unicode="&#x10d8;" horiz-adv-x="569" 
d="M103 0q-25 62 -37 119t-12 121q0 81 29 139.5t81 89t120 30.5t120.5 -30.5t81.5 -89t29 -139.5q0 -62 -12 -118.5t-36 -121.5h-86q25 67 36.5 122t11.5 115q0 88 -38.5 137.5t-106.5 49.5q-67 0 -105.5 -50t-38.5 -137q0 -60 11.5 -115.5t37.5 -121.5h-86z" />
    <glyph glyph-name="uni10D9" unicode="&#x10d9;" horiz-adv-x="580" 
d="M303 499q63 -1 111.5 -26t75.5 -69t27 -102q0 -57 -29.5 -97.5t-79.5 -56.5q51 -12 85 -63.5t34 -124.5q0 -65 -30 -116t-85.5 -80t-129.5 -29q-75 0 -130.5 30t-85.5 82.5t-30 119.5q0 32 7 64l86 -5q-7 -24 -7 -50q0 -76 43.5 -120.5t116.5 -44.5q72 0 115 41.5
t43 114.5q0 69 -39 108t-110 39h-37v74h46q63 0 96 30.5t33 82.5q0 55 -35.5 88t-94.5 36z" />
    <glyph glyph-name="uni10DA" unicode="&#x10da;" horiz-adv-x="1124" 
d="M724 -259q-10 70 -74.5 103t-183.5 33h-313v71h86q-85 36 -135 115t-50 189q0 81 28 137t74.5 83t100.5 27q49 0 90 -24.5t62 -83.5q20 58 62.5 83t91.5 25q48 0 91.5 -25t63.5 -83q20 59 61.5 83.5t92.5 24.5q55 0 100 -28t72 -86.5t27 -146.5q0 -96 -32 -195l-86 3
q31 92 31 192q0 93 -32.5 139.5t-83.5 46.5q-47 0 -78 -36.5t-31 -112.5v-157h-86v170q0 70 -31.5 103t-78.5 33q-48 0 -79 -33t-31 -103v-170h-86v157q0 75 -31 112t-77 37q-50 0 -84 -45t-34 -134q0 -90 37 -154.5t102.5 -98.5t150.5 -38l90 -3q132 -5 206 -58.5
t84 -147.5z" />
    <glyph glyph-name="uni10DB" unicode="&#x10db;" horiz-adv-x="610" 
d="M168 22q-55 32 -84.5 89.5t-29.5 131.5q0 76 29 134t82.5 90t123.5 32q57 0 101 -22.5t67 -60.5l-1 142q0 75 -43.5 115t-115.5 40q-46 0 -81 -17.5t-54 -47t-19 -65.5l-88 3q0 57 32 103t87 72t122 26q71 0 127 -28t88 -80t32 -120v-316q0 -75 -30 -132t-85.5 -89
t-130.5 -32q-74 0 -129 32zM412.5 111q43.5 46 43.5 118v29q0 78 -43 122t-115 44q-71 0 -114 -48.5t-43 -132.5q0 -81 44 -129.5t113 -48.5q71 0 114.5 46z" />
    <glyph glyph-name="uni10DC" unicode="&#x10dc;" horiz-adv-x="610" 
d="M183 22q-56 32 -86 89t-30 132v341q0 57 26.5 100.5t75.5 68t115 24.5h240v-75h-237q-64 0 -99 -31t-35 -90v-165q23 38 67.5 60.5t101.5 22.5q70 0 123 -32t82.5 -90t29.5 -134q0 -74 -30 -131.5t-85 -89.5t-129 -32t-130 32zM425.5 113.5q44.5 48.5 44.5 129.5
q0 84 -43.5 132.5t-114.5 48.5t-114.5 -44t-43.5 -122v-29q0 -72 44 -118t114 -46q69 0 113.5 48.5z" />
    <glyph glyph-name="uni10DD" unicode="&#x10dd;" horiz-adv-x="837" 
d="M103 0q-25 63 -37 120.5t-12 123.5q0 84 27 141.5t72 85.5t100 28q58 0 101.5 -25.5t63.5 -82.5q39 108 165 108q55 0 100.5 -28t72.5 -85.5t27 -142.5q0 -65 -12.5 -122t-37.5 -121h-86q25 65 36.5 121.5t11.5 119.5q0 91 -33 137t-87 46q-52 0 -83 -37t-31 -117v-148
h-86v148q0 80 -30.5 117t-82.5 37q-55 0 -88.5 -45.5t-33.5 -136.5q0 -63 12 -119t38 -123h-87z" />
    <glyph glyph-name="uni10DE" unicode="&#x10de;" horiz-adv-x="590" 
d="M164 18q-55 29 -85 81t-30 118q0 32 7 63l85 -5q-5 -27 -5 -49q0 -74 43 -117.5t114 -43.5t114.5 41t43.5 111q0 65 -40.5 102.5t-113.5 37.5h-34v73h42q125 0 125 94q0 38 -22 62.5t-64 52.5q-31 21 -50 38t-32 41.5t-12 58.5l87 4q0 -29 17.5 -48t55.5 -46
q52 -37 79.5 -72.5t27.5 -93.5q0 -96 -101 -129q51 -13 86 -63.5t35 -119.5q0 -64 -30 -114t-85 -78t-129 -28t-129 29z" />
    <glyph glyph-name="uni10DF" unicode="&#x10df;" horiz-adv-x="600" 
d="M170.5 -236q-54.5 29 -84 80t-29.5 116q0 42 12 85l85 -4q-10 -40 -10 -71q0 -73 42 -116t111 -43q68 0 109.5 44t41.5 123v443l-240 -50q33 -3 59.5 -31.5t26.5 -76.5q0 -59 -41.5 -92.5t-105.5 -33.5q-53 0 -93 20l18 57q12 -7 30.5 -11.5t36.5 -4.5q33 0 55.5 18
t22.5 53q0 36 -23 55t-58 19q-18 0 -36 -4l-4 75l351 75h87v-511q0 -112 -64 -177.5t-173 -65.5q-72 0 -126.5 29z" />
    <glyph glyph-name="uni10E0" unicode="&#x10e0;" horiz-adv-x="837" 
d="M683.5 471q45.5 -28 72.5 -85.5t27 -142.5q0 -65 -12.5 -122t-37.5 -121h-86q25 65 36.5 121.5t11.5 119.5q0 91 -32.5 137t-86.5 46q-53 0 -83.5 -37t-30.5 -117v-148h-87v148q0 80 -30.5 117t-82.5 37q-55 0 -88.5 -45.5t-33.5 -136.5q0 -63 12 -119t38 -123h-87
q-26 70 -37.5 135t-11.5 162q0 137 43.5 215.5t103 112t150.5 62.5q67 21 101 39.5t44 54.5l88 -4q-7 -47 -35.5 -76.5t-67 -46t-104.5 -37.5q-72 -22 -116.5 -42t-81.5 -56.5t-50 -94.5q23 41 58.5 58t76.5 17q53 0 93.5 -25.5t60.5 -82.5q40 108 165 108q55 0 100.5 -28z
" />
    <glyph glyph-name="uni10E1" unicode="&#x10e1;" horiz-adv-x="598" 
d="M184.5 20.5q-53.5 30.5 -82.5 86t-29 128.5v542h86v-548q0 -75 41.5 -119.5t107.5 -44.5q43 0 77 20t53 54.5t19 75.5q0 37 -9 65t-27 64q-20 39 -29.5 70t-7.5 76h86q-1 -35 7.5 -60.5t26.5 -61.5q20 -40 30.5 -73.5t10.5 -82.5q0 -60 -28.5 -110.5t-82 -81
t-125.5 -30.5q-71 0 -124.5 30.5z" />
    <glyph glyph-name="uni10E2" unicode="&#x10e2;" horiz-adv-x="794" 
d="M441 494q88 -9 158 -55t110.5 -127.5t40.5 -193.5q0 -121 -47 -206t-127 -128.5t-178 -43.5q-99 0 -179.5 43.5t-127.5 128.5t-47 206q0 112 41 193.5t111 127.5t159 55v121h86v-121zM532 -151.5q60 33.5 96 102t36 167.5q0 138 -65 214.5t-168 87.5q10 -37 10 -73v-238
h-86v238q0 33 9 73q-103 -10 -168 -86.5t-65 -215.5q0 -99 35.5 -167.5t96 -102t135.5 -33.5q74 0 134 33.5z" />
    <glyph glyph-name="uni10E3" unicode="&#x10e3;" horiz-adv-x="597" 
d="M165.5 -236q-54.5 29 -84 80t-29.5 117q0 42 13 84l84 -4q-10 -40 -10 -69q0 -74 42.5 -117.5t110.5 -43.5t110 44t42 123v348q0 49 -25 75t-66 26t-65.5 -26t-24.5 -75v-149h-88v138q0 102 -96 102h-43v77h53q96 0 131 -82q20 45 58.5 66t85.5 21q75 0 120.5 -48
t45.5 -124v-349q0 -74 -29.5 -129t-83.5 -84.5t-126 -29.5q-71 0 -125.5 29z" />
    <glyph glyph-name="uni10E4" unicode="&#x10e4;" horiz-adv-x="853" 
d="M372 -236q-63 25 -98 71.5t-35 108.5q0 15 1 22l86 -3l-1 -13q0 -61 53.5 -98.5t139.5 -37.5q87 0 134 38.5t47 107.5q0 58 -33.5 92t-95.5 35l-21 1v73h37q65 0 99 32.5t34 95.5q0 64 -33 99.5t-84 35.5t-82.5 -35t-31.5 -105v-23q0 -63 -29 -111t-79 -74t-112 -26
q-63 0 -113 28t-78 78.5t-28 116.5q0 67 28.5 118.5t77.5 79.5t110 28t109.5 -30.5t67.5 -84.5q17 54 62.5 84.5t103.5 30.5q52 0 97.5 -24t72.5 -70t27 -108q0 -73 -36 -119t-91 -60q49 -13 78.5 -57t29.5 -107q0 -64 -31.5 -112.5t-92 -75.5t-145.5 -27q-82 0 -145 25z
M365 166q37 41 37 108q0 69 -37.5 110t-97.5 41q-59 0 -96 -41.5t-37 -109.5q0 -67 37 -108t97 -41t97 41z" />
    <glyph glyph-name="uni10E5" unicode="&#x10e5;" horiz-adv-x="597" 
d="M162.5 -236q-54.5 29 -84 80t-29.5 117q0 41 12 84l85 -4q-10 -34 -10 -69q0 -74 42 -117.5t111 -43.5q68 0 109.5 44t41.5 123v283q0 77 -42 120t-111 43q-59 0 -95 -37.5t-36 -103.5q0 -18 5 -51l-88 -3q-6 32 -6 61q0 62 28.5 109.5t76 73.5t104.5 26q55 0 98 -22.5
t66 -60.5l-1 361h87v-799q0 -112 -64.5 -177.5t-173.5 -65.5q-71 0 -125.5 29z" />
    <glyph glyph-name="uni10E6" unicode="&#x10e6;" horiz-adv-x="845" 
d="M557 -259q-10 71 -61.5 103.5t-141.5 32.5h-221v71h81q-72 34 -112.5 111.5t-40.5 179.5q0 86 27.5 144.5t73 87t100.5 28.5q58 0 101.5 -25.5t63.5 -82.5q40 108 165 108q55 0 100.5 -28t72 -86.5t26.5 -144.5q0 -52 -8.5 -99t-24.5 -99l-85 4q31 94 31 192
q0 93 -32.5 139.5t-87.5 46.5q-52 0 -83 -37t-31 -117v-148h-86v148q0 80 -31 117t-83 37q-55 0 -88 -47t-33 -142q0 -128 63.5 -200.5t175.5 -81.5l26 -2q102 -9 161.5 -61.5t68.5 -144.5z" />
    <glyph glyph-name="uni10E7" unicode="&#x10e7;" horiz-adv-x="615" 
d="M163.5 -236.5q-54.5 28.5 -84.5 78.5t-30 114q0 17 4 47l85 -2q-2 -22 -2 -38q0 -71 42.5 -111.5t113.5 -40.5q70 0 112 44t42 123v167q-23 -37 -67 -59.5t-101 -22.5q-63 0 -113 27.5t-79.5 81t-29.5 129.5q0 50 8 91.5t28 96.5h86q-20 -55 -27 -96t-7 -86
q0 -85 38 -127.5t107 -42.5t110.5 39.5t45.5 111.5v201h87v-511q0 -112 -64.5 -177.5t-176.5 -65.5q-73 0 -127.5 28.5z" />
    <glyph glyph-name="uni10E8" unicode="&#x10e8;" horiz-adv-x="611" 
d="M169 22q-55 32 -85 89.5t-30 131.5q0 76 29.5 134t83 90t123.5 32q57 0 101 -22.5t67 -60.5l-1 194q0 50 -25 76.5t-66 26.5q-38 0 -64 -25.5t-26 -64.5v-53h-88v36q0 49 -26.5 76.5t-70.5 27.5q-20 0 -37 -3v74q20 4 49 4q44 0 78.5 -20.5t52.5 -65.5q20 45 58.5 66
t85.5 21q75 0 120.5 -48.5t45.5 -123.5v-371q0 -75 -30 -132t-85.5 -89t-130.5 -32q-74 0 -129 32zM413.5 111q43.5 46 43.5 118v29q0 78 -43.5 122t-114.5 44t-114.5 -48.5t-43.5 -132.5q0 -81 44.5 -129.5t113.5 -48.5q71 0 114.5 46z" />
    <glyph glyph-name="uni10E9" unicode="&#x10e9;" horiz-adv-x="589" 
d="M73 595q0 55 25.5 98.5t70.5 68t103 24.5q54 0 95 -20t63.5 -55.5t22.5 -80.5q0 -46 -22.5 -81.5t-74.5 -62.5q86 -12 132.5 -76.5t46.5 -166.5q0 -65 -12.5 -120.5t-36.5 -122.5h-86q25 67 36.5 122.5t11.5 119.5q0 85 -38.5 133.5t-105.5 48.5q-63 0 -103.5 -44.5
t-40.5 -121.5v-258h-87v595zM159 414q14 24 37 43t50 30q65 27 93.5 60.5t28.5 77.5q0 41 -26 65t-71 24q-49 0 -80.5 -31.5t-31.5 -89.5v-179z" />
    <glyph glyph-name="uni10EA" unicode="&#x10ea;" horiz-adv-x="673" 
d="M202.5 -221q-72.5 39 -115.5 124t-43 216q0 107 23.5 196.5t66.5 173.5h85q-43 -88 -65 -176.5t-22 -193.5q0 -162 66.5 -232.5t166.5 -70.5q80 0 129 42.5t49 109.5q0 65 -41 102.5t-115 37.5h-65v73h85q64 0 94.5 24t30.5 65q0 27 -13 46.5t-39 45.5q-32 31 -48.5 58.5
t-14.5 68.5h86q0 -27 13 -47t40 -48q31 -33 46.5 -59t15.5 -65q0 -46 -30 -80t-81 -48q52 -13 87 -63t35 -119q0 -61 -32 -111t-91.5 -79.5t-139.5 -29.5q-91 0 -163.5 39z" />
    <glyph glyph-name="uni10EB" unicode="&#x10eb;" horiz-adv-x="616" 
d="M168 22q-55 32 -84.5 89.5t-29.5 131.5q0 76 29 134t82.5 90t123.5 32q57 0 101 -22.5t67 -60.5v361h86v-534q0 -75 -30 -132t-85.5 -89t-130.5 -32q-74 0 -129 32zM412.5 111q43.5 46 43.5 118v29q0 78 -43 122t-115 44q-71 0 -114 -48.5t-43 -132.5q0 -81 44 -129.5
t113 -48.5q71 0 114.5 46z" />
    <glyph glyph-name="uni10EC" unicode="&#x10ec;" horiz-adv-x="611" 
d="M182.5 22q-55.5 32 -85.5 89t-30 132v371q0 75 45.5 123.5t120.5 48.5q47 0 85.5 -21t58.5 -66q18 45 52.5 65.5t78.5 20.5q29 0 49 -4v-74q-17 3 -37 3q-44 0 -70.5 -27.5t-26.5 -76.5v-36h-88v53q0 39 -26 64.5t-64 25.5q-41 0 -66 -26.5t-25 -76.5l-1 -194
q23 38 67 60.5t101 22.5q70 0 123.5 -32t83 -90t29.5 -134q0 -74 -30 -131.5t-85 -89.5t-129 -32q-75 0 -130.5 32zM425.5 113.5q44.5 48.5 44.5 129.5q0 84 -43.5 132.5t-114.5 48.5t-114.5 -44t-43.5 -122v-29q0 -72 43.5 -118t114.5 -46q69 0 113.5 48.5z" />
    <glyph glyph-name="uni10ED" unicode="&#x10ed;" horiz-adv-x="679" 
d="M159.5 -236q-54.5 29 -84 80t-29.5 117q0 42 13 84l84 -4q-10 -40 -10 -69q0 -74 42 -117.5t111 -43.5q68 0 110 44t42 123v276l-57 -43q-64 -47 -141 -47q-44 0 -84 21t-64.5 59.5t-24.5 87.5q0 48 24.5 86t64.5 59.5t84 21.5q37 0 73.5 -12t66.5 -35l57 -43v368h85
v-371l125 101l8 -83l-133 -92l133 -93l-8 -83l-125 100v-278q0 -112 -63.5 -177.5t-173.5 -65.5q-71 0 -125.5 29zM371 283l66 48l-66 48q-63 46 -118 46q-44 0 -71.5 -24.5t-27.5 -68.5q0 -46 27.5 -70t71.5 -24q56 0 118 45z" />
    <glyph glyph-name="uni10EE" unicode="&#x10ee;" horiz-adv-x="616" 
d="M188.5 22q-55.5 32 -85.5 89t-30 132v534h86v-361q23 38 67 60.5t101 22.5q70 0 123.5 -32t82.5 -90t29 -134q0 -74 -29.5 -131.5t-84.5 -89.5t-129 -32q-75 0 -130.5 32zM431 113.5q44 48.5 44 129.5q0 84 -43 132.5t-114 48.5q-72 0 -115 -44t-43 -122v-29
q0 -72 43.5 -118t114.5 -46q69 0 113 48.5z" />
    <glyph glyph-name="uni10EF" unicode="&#x10ef;" horiz-adv-x="588" 
d="M336 180q60 -3 106 -31.5t71.5 -78t25.5 -112.5q0 -65 -30 -115.5t-85.5 -79t-129.5 -28.5q-75 0 -130.5 29.5t-85 81.5t-29.5 118q0 27 6 59l86 -4q-6 -26 -6 -48q0 -73 43 -116.5t116 -43.5q72 0 115 40.5t43 112.5q0 68 -39 106.5t-110 38.5h-52v172q-68 -11 -114 -11
q-41 0 -80 7l5 75q39 -7 80 -7q39 0 109 10v134h85v-120q53 8 105 8q45 0 90 -7l-5 -74q-45 7 -89 7q-50 0 -101 -8v-115z" />
    <glyph glyph-name="uni10F0" unicode="&#x10f0;" horiz-adv-x="575" 
d="M490 253q31 -35 31 -88q0 -50 -29 -90t-84 -63t-130 -23t-132 27t-86.5 77t-25.5 116l86 -3q-4 -65 41 -103t116 -38q72 0 115 27.5t43 77.5q0 45 -37.5 71t-104.5 26h-53v68h99q38 0 62 16t24 46t-24 46t-62 16h-99v69h87q39 0 59.5 14t20.5 38t-18.5 39.5t-58.5 36.5
q-34 18 -55 32t-35 36t-13 53l86 4q0 -25 18.5 -40.5t58.5 -37.5q34 -19 54 -33t34.5 -36t14.5 -52q0 -31 -20.5 -55t-61.5 -32q46 -5 73 -31.5t27 -68.5q0 -40 -26.5 -64.5t-73.5 -33.5q48 -9 79 -44z" />
    <glyph glyph-name="uni1C90" unicode="&#x1c90;" horiz-adv-x="603" 
d="M344 747q0 -46 12 -84t31 -67.5t51 -71.5q36 -48 57 -82t36 -80.5t15 -105.5q0 -83 -32.5 -143t-89.5 -91.5t-129 -31.5q-70 0 -126.5 31t-89 90.5t-32.5 141.5q0 63 16 118l88 -3q-12 -56 -12 -107q0 -90 43 -139.5t113 -49.5q72 0 114 46t43 137q0 46 -13 84.5
t-31.5 68t-50.5 73.5q-35 47 -56 81.5t-34.5 81t-12.5 103.5h90z" />
    <glyph glyph-name="uni1C91" unicode="&#x1c91;" horiz-adv-x="619" 
d="M367 475q91 -17 147.5 -81t56.5 -159q0 -73 -34.5 -129t-94 -86t-133.5 -30t-133.5 30t-94 86t-34.5 129q0 68 29.5 121t81.5 84t118 38v78q0 24 -10 38.5t-31 33.5q-28 24 -42.5 49t-11.5 71h91q-1 -29 10 -46t34 -38q26 -24 38.5 -44t12.5 -55v-90zM430 115
q48 45 48 120t-48 119.5t-121 44.5q-74 0 -121.5 -44t-47.5 -120t47.5 -120.5t121.5 -44.5q73 0 121 45z" />
    <glyph glyph-name="uni1C92" unicode="&#x1c92;" horiz-adv-x="626" 
d="M180 20q-60 30 -94.5 86t-34.5 129q0 70 31 123.5t86 84.5t126 37q60 5 87 31.5t27 73.5q0 41 -27 67t-74 26q-48 0 -76.5 -25t-30.5 -68l-93 4q3 46 28 85t69.5 61.5t101.5 22.5q58 0 102 -22.5t68 -59.5t24 -79q0 -99 -81 -136q71 -25 113.5 -84t42.5 -142
q0 -73 -34 -129t-93.5 -86t-133.5 -30t-134 30zM434.5 115q48.5 45 48.5 120t-48.5 119.5t-121.5 44.5q-74 0 -121.5 -44t-47.5 -120t47.5 -120.5t121.5 -44.5q73 0 121.5 45z" />
    <glyph glyph-name="uni1C93" unicode="&#x1c93;" horiz-adv-x="900" 
d="M586 0q-22 126 -215 126h-229v72h89q-78 36 -126.5 116t-48.5 183q0 86 29 144.5t76.5 87.5t105.5 29q61 0 109 -31t66 -85q21 53 71 84.5t114 31.5q65 0 117 -29.5t82 -83.5t30 -124q0 -68 -30 -121t-82.5 -82t-118.5 -29t-119 28.5t-83.5 80.5t-30.5 120v21
q0 67 -33 103t-85 36q-56 0 -90.5 -44t-34.5 -135q0 -128 69.5 -206t192.5 -89l27 -3q108 -9 169.5 -60t70.5 -141h-92zM725.5 410q39.5 42 39.5 112t-39 113.5t-102 43.5t-102 -43t-39 -114q0 -70 39 -112t102 -42q62 0 101.5 42z" />
    <glyph glyph-name="uni1C94" unicode="&#x1c94;" horiz-adv-x="626" 
d="M169.5 19.5q-56.5 29.5 -87.5 81t-31 117.5q0 43 14 84l87 -4q-9 -40 -9 -68q0 -73 43.5 -116t114.5 -43t114 43t43 121v288q-1 75 -43 114.5t-106 39.5q-67 0 -106 -37.5t-39 -103.5q0 -26 4 -47l-91 -3q-6 30 -6 60q0 62 31.5 110.5t85.5 75t121 26.5t122 -28t86.5 -80
t31.5 -122v-295q0 -73 -30.5 -128t-86.5 -85t-132 -30q-74 0 -130.5 29.5z" />
    <glyph glyph-name="uni1C95" unicode="&#x1c95;" horiz-adv-x="625" 
d="M440 732q55 -26 86.5 -73.5t31.5 -109.5q0 -59 -30 -98.5t-84 -56.5q53 -14 89 -64.5t36 -118.5q0 -64 -31.5 -114t-89.5 -78.5t-135 -28.5q-80 0 -139 30t-91 83.5t-32 120.5q0 32 7 64l90 -5q-6 -25 -6 -49q0 -76 46 -120.5t123 -44.5q76 0 121.5 40.5t45.5 109.5
q0 66 -42 103t-118 37h-33v76h42q69 0 104.5 31t35.5 87q0 57 -41.5 91.5t-110.5 34.5q-70 0 -111 -37t-41 -104q0 -13 2 -33l-91 -3q-3 18 -3 40q0 65 32 114t88 75.5t125 26.5t124 -26z" />
    <glyph glyph-name="uni1C96" unicode="&#x1c96;" horiz-adv-x="644" 
d="M202 20q-60 30 -94.5 86t-34.5 129q0 55 22.5 99.5t65.5 75.5q-60 15 -97 59t-37 105q0 54 26.5 95.5t73 64.5t105.5 23t106.5 -22t75 -61.5t27.5 -90.5q0 -36 -12 -64t-41 -53q61 -7 108.5 -37.5t74 -80.5t26.5 -113q0 -73 -34 -129t-93.5 -86t-133.5 -30t-134 30z
M316.5 496q33.5 30 33.5 76t-33 77t-83 31t-83.5 -30.5t-33.5 -76.5q0 -47 34.5 -77t82.5 -30q49 0 82.5 30zM456 115q48 45 48 120t-48 119.5t-121 44.5q-74 0 -121.5 -44t-47.5 -120t47.5 -120.5t121.5 -44.5q73 0 121 45z" />
    <glyph glyph-name="uni1C97" unicode="&#x1c97;" horiz-adv-x="948" 
d="M185 21q-54 31 -84.5 92.5t-30.5 149.5v223q0 88 30 149t83 92t121 31q144 0 193 -122q21 64 69.5 93t104.5 29q57 0 103.5 -27t74.5 -83.5t28 -142.5v-123q0 -116 -15 -203.5t-46 -178.5h-90q30 92 44.5 183.5t14.5 199.5v121q0 89 -34.5 131t-85.5 42q-55 0 -88 -41
t-33 -132v-242q0 -87 -31 -148.5t-85 -92.5t-121 -31q-68 0 -122 31zM413 120q39 49 39 147v214q0 98 -39 147t-106 49q-68 0 -107 -49t-39 -147v-214q0 -98 39 -147t107 -49q67 0 106 49z" />
    <glyph glyph-name="uni1C98" unicode="&#x1c98;" horiz-adv-x="632" 
d="M131 0q-31 91 -46 177.5t-15 195.5v113q0 87 32.5 148.5t88.5 92.5t125 31q68 0 123.5 -31t88.5 -92.5t33 -147.5v-114q0 -108 -15 -195.5t-45 -177.5h-90q30 90 44.5 179.5t14.5 193.5v106q0 97 -42.5 147.5t-111.5 50.5q-70 0 -112.5 -50t-42.5 -148v-106
q0 -101 14.5 -191.5t45.5 -181.5h-90z" />
    <glyph glyph-name="uni1C99" unicode="&#x1c99;" horiz-adv-x="606" 
d="M158.5 20.5q-58.5 30.5 -90 83.5t-31.5 120q0 32 7 64l90 -5q-5 -21 -5 -49q0 -76 45 -120.5t119 -44.5t119.5 41.5t45.5 111.5q0 68 -41 106t-114 38h-38v78h48q66 0 100 29.5t34 81.5t-37 84.5t-99 35.5l5 77q65 -1 115.5 -26t78.5 -69t28 -101q0 -58 -30 -98t-82 -56
q52 -12 87.5 -64.5t35.5 -124.5q0 -65 -31 -115.5t-88.5 -79t-134.5 -28.5q-78 0 -136.5 30.5z" />
    <glyph glyph-name="uni1C9A" unicode="&#x1c9a;" horiz-adv-x="1166" 
d="M755 0q-10 69 -78 101t-190 32h-326v72h91q-90 35 -143 114.5t-53 191.5q0 81 30 136.5t79 83t105 27.5q50 0 93 -24.5t65 -84.5q21 58 65 83.5t95 25.5q50 0 95.5 -25t65.5 -84q21 59 63.5 84t96.5 25q58 0 105 -28t75.5 -87.5t28.5 -148.5q0 -91 -33 -194l-91 4
q32 92 32 190q0 92 -34 137.5t-87 45.5q-49 0 -81 -36t-32 -111v-151h-90v163q0 69 -32.5 102t-81.5 33t-81 -33t-32 -102v-163h-91v151q0 74 -32 110.5t-79 36.5q-52 0 -88 -43t-36 -127q0 -138 83 -211.5t219 -79.5l93 -4q138 -4 216.5 -59.5t86.5 -152.5h-92z" />
    <glyph glyph-name="uni1C9B" unicode="&#x1c9b;" horiz-adv-x="644" 
d="M175.5 21q-57.5 31 -88.5 86.5t-31 127.5t30.5 128t86 87t128.5 31q59 0 105 -22.5t70 -58.5l-1 134q-1 70 -46 108t-119 38q-46 0 -82 -16.5t-56 -44.5t-20 -61l-94 4q0 56 33 100.5t90.5 70t127.5 25.5q73 0 131.5 -28t92 -78.5t33.5 -116.5v-299q0 -73 -31.5 -128.5
t-89.5 -86.5t-135 -31t-134.5 31zM429.5 112.5q45.5 42.5 45.5 108.5v28q0 71 -45 112t-119 41q-73 0 -117.5 -45t-44.5 -121t45 -121t117 -45q73 0 118.5 42.5z" />
    <glyph glyph-name="uni1C9C" unicode="&#x1c9c;" horiz-adv-x="643" 
d="M197 21q-58 31 -89 86.5t-31 128.5v326q0 88 59 137t158 49h246v-81h-244q-60 0 -94.5 -28.5t-34.5 -85.5l-1 -153q24 36 70.5 58.5t105.5 22.5q72 0 127.5 -31t86 -87t30.5 -128t-31 -127.5t-88 -86.5t-134 -31q-78 0 -136 31zM448 115q45 45 45 121t-44 121t-117 45
q-74 0 -119.5 -41t-45.5 -112v-27q0 -67 45.5 -109.5t119.5 -42.5q71 0 116 45z" />
    <glyph glyph-name="uni1C9D" unicode="&#x1c9d;" horiz-adv-x="898" 
d="M131 0q-31 91 -46 178.5t-15 203.5v123q0 86 28.5 142.5t75 83.5t103.5 27q130 0 172 -120q23 66 69.5 93t104.5 27q57 0 103 -27t74 -83.5t28 -142.5v-123q0 -116 -15 -203.5t-46 -178.5h-91q31 92 46 184t15 199v121q0 89 -34.5 131t-87.5 42q-54 0 -87.5 -41.5
t-33.5 -131.5v-277h-91v277q0 90 -33 131.5t-88 41.5q-52 0 -86.5 -42t-34.5 -131v-121q0 -108 14.5 -200t45.5 -183h-90z" />
    <glyph glyph-name="uni1C9E" unicode="&#x1c9e;" horiz-adv-x="605" 
d="M158 17.5q-58 28.5 -89.5 78.5t-31.5 113q2 33 7 60l89 -5q-4 -28 -4 -43q0 -69 45 -111t118 -42q74 0 119 38t45 102q0 62 -41 97t-117 35h-37v77h47q66 0 95.5 20t29.5 61q0 35 -21.5 58.5t-67.5 51.5t-72 60t-25 80h92q-1 -26 16 -43t58 -45q35 -24 57.5 -43t39 -48.5
t16.5 -68.5q0 -44 -27.5 -77t-77.5 -46q53 -13 90 -61.5t37 -114.5q0 -61 -31.5 -109t-89.5 -75.5t-135 -27.5q-76 0 -134 28.5z" />
    <glyph glyph-name="uni1C9F" unicode="&#x1c9f;" horiz-adv-x="642" 
d="M169 17q-58 28 -90 77t-32 111q0 33 7 64l89 -5q-4 -19 -4 -43q0 -69 45 -111t117 -42q76 0 120 41.5t44 120.5v447l-244 -46q22 -3 44 -19t37 -43t15 -61q0 -64 -45 -99.5t-115 -35.5q-56 0 -102 22l20 65q13 -7 33 -11.5t40 -4.5q36 0 60.5 18.5t24.5 56.5
q0 39 -28.5 61.5t-66.5 22.5q-19 0 -35 -4l-4 82l365 67h93v-526q0 -71 -31.5 -123.5t-89 -81t-134.5 -28.5q-75 0 -133 28z" />
    <glyph glyph-name="uni1CA0" unicode="&#x1ca0;" horiz-adv-x="864" 
d="M712.5 451q47.5 -27 75.5 -83t28 -138q0 -63 -13.5 -116.5t-38.5 -113.5h-91q26 62 38.5 116t12.5 112q0 85 -34.5 128t-89.5 43q-54 0 -86 -35.5t-32 -109.5v-137h-91v137q0 74 -32.5 109.5t-84.5 35.5q-58 0 -92.5 -43t-34.5 -128q0 -59 12 -111.5t40 -116.5h-91
q-27 68 -39.5 130.5t-12.5 155.5q0 133 46 209t108.5 108.5t157.5 59.5q69 19 103 36t44 49h93q-6 -48 -36.5 -78t-72 -46.5t-112.5 -36.5q-74 -21 -119 -39t-82 -51.5t-51 -87.5q23 38 60.5 53.5t79.5 15.5q56 0 98.5 -23.5t62.5 -77.5q41 101 172 101q57 0 104.5 -27z" />
    <glyph glyph-name="uni1CA1" unicode="&#x1ca1;" horiz-adv-x="626" 
d="M202 19.5q-56 29.5 -87 84.5t-31 129v514h91v-514q0 -78 43 -120.5t112 -42.5q45 0 80 18t55 49.5t20 70.5q0 35 -9.5 60.5t-29.5 58.5q-24 39 -35.5 73t-9.5 85h90q-1 -39 9 -65.5t32 -66.5q23 -39 34.5 -70.5t11.5 -78.5q0 -57 -30 -106t-86 -78.5t-131 -29.5
q-73 0 -129 29.5z" />
    <glyph glyph-name="uni1CA2" unicode="&#x1ca2;" horiz-adv-x="825" 
d="M459 731q91 -10 161 -56t109.5 -125t39.5 -185q0 -115 -46.5 -200t-127.5 -130t-182 -45q-102 0 -183 45t-127.5 130t-46.5 200q0 106 40 185t110 125t161 56v46h92v-46zM549 105q60 35 94.5 102t34.5 158q0 129 -62 204.5t-164 87.5q7 -32 7 -95v-266h-91v266q0 58 8 95
q-103 -12 -165.5 -87.5t-62.5 -204.5q0 -91 34.5 -158t94.5 -102t136 -35t136 35z" />
    <glyph glyph-name="uni1CA3" unicode="&#x1ca3;" horiz-adv-x="639" 
d="M182.5 19.5q-56.5 29.5 -87.5 81t-31 117.5q0 43 14 84l87 -4q-10 -44 -10 -68q0 -73 44 -116t115 -43t113.5 43t42.5 122v339q0 49 -26 75.5t-68 26.5t-68 -26.5t-26 -77.5v-140h-92v133q0 52 -26 77t-73 25h-44v84h54q100 0 137 -81q20 45 60.5 66t88.5 21
q52 0 91.5 -22.5t61.5 -62t22 -89.5v-349q0 -74 -30.5 -129.5t-87 -85.5t-131.5 -30q-74 0 -130.5 29.5z" />
    <glyph glyph-name="uni1CA4" unicode="&#x1ca4;" horiz-adv-x="903" 
d="M381 18.5q-68 27.5 -103 77t-29 114.5l91 -4l-1 -12q0 -56 55.5 -90.5t144.5 -34.5q91 0 141.5 39.5t50.5 106.5q0 56 -33.5 89.5t-97.5 34.5h-22v78h38q66 0 101.5 31.5t35.5 93.5q0 66 -34 101t-88 35q-53 0 -86 -35t-33 -103v-22q0 -68 -30.5 -120t-83.5 -80.5
t-119 -28.5q-67 0 -119.5 29t-82.5 82t-30 121q0 70 30 124t82 83.5t117 29.5q64 0 114.5 -31.5t70.5 -84.5q18 54 66 85t109 31q57 0 105.5 -24.5t77 -72.5t28.5 -115q0 -71 -38.5 -116t-96.5 -60q51 -13 81 -56.5t30 -106.5q0 -61 -33 -110t-97.5 -77.5t-154.5 -28.5
q-89 0 -157 27.5zM381.5 410q38.5 42 38.5 112q0 72 -39 114.5t-102 42.5t-102 -43.5t-39 -113.5t39.5 -112t101.5 -42q64 0 102.5 42z" />
    <glyph glyph-name="uni1CA5" unicode="&#x1ca5;" horiz-adv-x="642" 
d="M168 17.5q-58 28.5 -89.5 78.5t-31.5 113q0 31 7 60l89 -5q-4 -19 -4 -43q0 -69 45 -111t117 -42q75 0 119.5 42t44.5 117v173q0 71 -42 112t-108 41q-59 0 -99 -32.5t-40 -95.5q0 -14 2 -27l-90 -4q-3 20 -3 35q0 62 30 108t79.5 71t106.5 25q51 0 96 -22.5t68 -57.5
v195h92v-529q0 -67 -31.5 -119.5t-89.5 -81.5t-134 -29t-134 28.5z" />
    <glyph glyph-name="uni1CA6" unicode="&#x1ca6;" horiz-adv-x="865" 
d="M572 0q-10 69 -63 101.5t-148 32.5h-228v71h88q-77 34 -121 112t-44 178q0 87 28.5 146.5t76 88t105.5 28.5q59 0 104 -25t67 -83q41 108 172 108q58 0 105 -28.5t75 -87.5t28 -146q0 -92 -34 -197l-90 4q17 48 24.5 93.5t7.5 96.5q0 93 -34.5 139t-90.5 46
q-53 0 -85 -37t-32 -114v-146h-91v146q0 77 -32.5 114t-85.5 37q-57 0 -91 -46.5t-34 -140.5q0 -126 64 -197.5t183 -81.5l28 -2q105 -8 167.5 -61t71.5 -149h-91z" />
    <glyph glyph-name="uni1CA7" unicode="&#x1ca7;" horiz-adv-x="649" 
d="M177.5 17.5q-57.5 28.5 -89.5 78.5t-32 113q0 31 7 60l88 -5q-4 -30 -4 -43q0 -69 45 -111t118 -42q75 0 119.5 42t44.5 117v173q-24 -37 -69.5 -59.5t-104.5 -22.5q-65 0 -118 28.5t-84 83.5t-31 131q0 51 8.5 92t28.5 95h92q-21 -54 -28.5 -96t-7.5 -87
q0 -84 40 -125.5t111 -41.5q72 0 117.5 42.5t45.5 117.5v190h90v-529q0 -67 -31 -119.5t-88.5 -81.5t-133.5 -29t-133.5 28.5z" />
    <glyph glyph-name="uni1CA8" unicode="&#x1ca8;" horiz-adv-x="644" 
d="M175.5 21q-57.5 31 -88.5 86t-31 126q0 72 30.5 128t86 86.5t128.5 30.5q59 0 105 -22t70 -58v184q0 48 -27.5 72.5t-67.5 24.5q-39 0 -66 -24.5t-27 -61.5v-49h-92v35q0 45 -28 70t-74 25q-22 0 -38 -3v79q18 4 50 4q102 0 138 -82q21 42 61 62.5t88 20.5q78 0 126 -47
t48 -120l-1 -352q0 -73 -31.5 -128.5t-89.5 -86.5t-135 -31t-134.5 31zM429.5 112.5q45.5 42.5 45.5 107.5v26q0 72 -45 112.5t-119 40.5q-73 0 -117.5 -45t-44.5 -120t45 -119.5t117 -44.5q73 0 118.5 42.5z" />
    <glyph glyph-name="uni1CA9" unicode="&#x1ca9;" horiz-adv-x="622" 
d="M84 571q0 54 26.5 96.5t73.5 66.5t107 24q56 0 99 -20t66.5 -55t23.5 -79q0 -90 -100 -139q89 -11 137.5 -73.5t48.5 -159.5q0 -61 -13 -115.5t-39 -116.5h-92q27 64 39 117t12 115q0 79 -39.5 124t-108.5 45q-65 0 -107.5 -41t-42.5 -112v-248h-91v571zM174 401
q14 22 38 40t52 29q69 25 97.5 56.5t28.5 71.5q0 38 -27 60.5t-74 22.5q-51 0 -83 -29t-32 -83v-168z" />
    <glyph glyph-name="uni1CAA" unicode="&#x1caa;" horiz-adv-x="715" 
d="M219 30q-74 40 -118.5 126t-44.5 219q0 108 24.5 199.5t68.5 174.5h91q-45 -89 -68 -178.5t-23 -195.5q0 -163 67.5 -234t168.5 -71q86 0 136.5 42t50.5 109q0 66 -42 103.5t-119 37.5h-66v77h88q128 0 128 86q0 27 -12.5 45.5t-40.5 47.5q-33 32 -50 60t-15 71h90
q1 -27 14 -46.5t40 -47.5q32 -32 49 -59t17 -68q0 -47 -31 -82t-84 -48q54 -14 90 -64.5t36 -120.5q0 -62 -33.5 -112.5t-96.5 -80.5t-148 -30q-93 0 -167 40z" />
    <glyph glyph-name="uni1CAB" unicode="&#x1cab;" horiz-adv-x="642" 
d="M166 21q-57 31 -88 86.5t-31 127.5t30.5 128t86 87t127.5 31q59 0 105.5 -22.5t70.5 -58.5l-1 348h91v-512q0 -73 -31 -128.5t-89.5 -86.5t-136.5 -31q-77 0 -134 31zM420.5 112.5q45.5 42.5 45.5 108.5v28q0 71 -45 112t-120 41q-73 0 -117 -45t-44 -121t45 -121
t116 -45q74 0 119.5 42.5z" />
    <glyph glyph-name="uni1CAC" unicode="&#x1cac;" horiz-adv-x="644" 
d="M199 21q-58 31 -89.5 86.5t-31.5 128.5l-1 352q0 73 48 120t126 47q48 0 88 -20.5t61 -62.5q36 82 138 82q32 0 50 -4v-79q-17 3 -38 3q-46 0 -74 -25t-28 -70v-35h-92v49q0 37 -27 61.5t-66 24.5q-40 0 -67.5 -24.5t-27.5 -72.5v-184q24 36 70 58t105 22
q73 0 128.5 -30.5t86 -86.5t30.5 -128q0 -71 -31 -126t-88.5 -86t-134.5 -31t-135 31zM450 114.5q45 44.5 45 119.5t-44.5 120t-117.5 45q-74 0 -119 -40.5t-45 -112.5v-26q0 -65 45.5 -107.5t118.5 -42.5q72 0 117 44.5z" />
    <glyph glyph-name="uni1CAD" unicode="&#x1cad;" horiz-adv-x="719" 
d="M177 17.5q-58 28.5 -89.5 78.5t-31.5 113q0 31 7 60l89 -5q-4 -19 -4 -43q0 -69 45 -111t118 -42q74 0 119 42t45 117v188l-58 -36q-76 -48 -159 -48q-48 0 -90.5 19.5t-68 56t-25.5 85.5t25.5 85t68 55.5t90.5 19.5q84 0 157 -46l59 -37v179h89v-182l130 93l9 -81
l-139 -86l139 -86l-9 -82l-130 93v-198q0 -67 -30.5 -119.5t-87.5 -81.5t-134 -29q-76 0 -134 28.5zM341 419q32 12 65 31l68 42l-68 41q-34 20 -65.5 32t-68.5 12q-48 0 -77.5 -22t-29.5 -63t29.5 -63t77.5 -22q37 0 69 12z" />
    <glyph glyph-name="uni1CAE" unicode="&#x1cae;" horiz-adv-x="642" 
d="M205.5 21q-58.5 31 -89.5 86.5t-31 128.5v512h91l-1 -348q24 36 70.5 58.5t105.5 22.5q72 0 127.5 -31t86 -87t30.5 -128t-31 -127.5t-88 -86.5t-134 -31q-78 0 -136.5 31zM457 115q45 45 45 121t-44 121t-117 45q-75 0 -120 -41t-45 -112v-28q0 -66 45.5 -108.5
t119.5 -42.5q71 0 116 45z" />
    <glyph glyph-name="uni1CAF" unicode="&#x1caf;" horiz-adv-x="611" 
d="M349 438q95 -5 152.5 -66t58.5 -156q0 -68 -31.5 -119.5t-88.5 -79.5t-133 -28t-134 28.5t-90 78.5t-32 113q0 31 7 60l89 -5q-4 -28 -4 -43q0 -69 45 -111t118 -42q74 0 118.5 41t45.5 112q-1 68 -41.5 105.5t-113.5 37.5h-54v174q-70 -11 -119 -11q-42 0 -83 7l5 77
q41 -7 82 -7q45 0 115 11v133h88v-119q63 9 111 9q46 0 92 -7l-5 -78q-46 7 -93 7q-52 0 -105 -8v-114z" />
    <glyph glyph-name="uni1CB0" unicode="&#x1cb0;" horiz-adv-x="605" 
d="M517.5 243.5q30.5 -33.5 30.5 -84.5q0 -48 -31 -86.5t-89 -60.5t-135 -22q-78 0 -137.5 26t-90.5 74t-27 111l92 -2q-4 -59 41.5 -95t119.5 -36q75 0 119.5 25.5t44.5 71.5q0 41 -37.5 64t-107.5 23h-57v72h114q36 0 56.5 15t20.5 43q0 56 -77 56h-114v72h92
q40 0 60.5 12.5t20.5 35.5q0 22 -19 36t-58 31q-37 18 -58.5 31.5t-37 36.5t-14.5 55h90q1 -21 20 -35.5t58 -32.5q36 -17 58 -31t37.5 -36t15.5 -53q0 -70 -83 -85q49 -4 75.5 -29.5t26.5 -66.5q0 -77 -102 -94q52 -8 82.5 -41.5z" />
    <glyph glyph-name="uni1CB1" unicode="&#x1cb1;" horiz-adv-x="600" 
 />
    <glyph glyph-name="uni1CB2" unicode="&#x1cb2;" horiz-adv-x="600" 
 />
    <glyph glyph-name="uni1CB3" unicode="&#x1cb3;" horiz-adv-x="600" 
 />
    <glyph glyph-name="uni1CB4" unicode="&#x1cb4;" horiz-adv-x="600" 
 />
    <glyph glyph-name="uni1CB5" unicode="&#x1cb5;" horiz-adv-x="600" 
 />
    <glyph glyph-name="uni1CB6" unicode="&#x1cb6;" horiz-adv-x="600" 
 />
    <glyph glyph-name="uni1CB7" unicode="&#x1cb7;" horiz-adv-x="600" 
 />
    <glyph glyph-name="uni1CB8" unicode="&#x1cb8;" horiz-adv-x="600" 
 />
    <glyph glyph-name="a.sups" unicode="&#x1d43;" horiz-adv-x="435" 
d="M334 715q40 -41 40 -119v-256h-73v52q-17 -27 -51.5 -43.5t-77.5 -16.5q-62 0 -98 29.5t-36 85.5q0 59 44.5 89t119.5 35l95 6v24q0 42 -21.5 65t-60.5 23q-43 0 -66 -23.5t-23 -57.5l-76 3q0 37 20 70.5t57.5 54t87.5 20.5q79 0 119 -41zM208 516q-44 -3 -67.5 -18.5
t-23.5 -46.5q0 -58 72 -58q45 0 76.5 27.5t31.5 83.5v18z" />
    <glyph glyph-name="b.sups" unicode="&#x1d47;" horiz-adv-x="515" 
d="M142 693q17 28 53 45.5t83 17.5q57 0 102 -26t70.5 -74t25.5 -112t-25.5 -112t-70.5 -74t-102 -26q-49 0 -86 18t-54 48v-58h-73v622h77v-269zM176.5 654q-34.5 -35 -34.5 -98v-24q0 -63 34.5 -98t89.5 -35q58 0 95 38t37 106q0 69 -37 107.5t-95 38.5q-55 0 -89.5 -35z
" />
    <glyph glyph-name="d.sups" unicode="&#x1d48;" horiz-adv-x="515" 
d="M449 962v-622h-72v58q-17 -29 -54.5 -47.5t-86.5 -18.5q-56 0 -101 26t-71 74t-26 112t26 112t71 74t101 26q48 0 84 -17.5t52 -45.5v269h77zM153.5 650.5q-36.5 -38.5 -36.5 -107.5q0 -68 36.5 -106t94.5 -38q55 0 89.5 35t34.5 98v24q0 63 -34.5 98t-89.5 35
q-58 0 -94.5 -38.5z" />
    <glyph glyph-name="e.sups" unicode="&#x1d49;" horiz-adv-x="468" 
d="M430 517h-309q2 -57 34.5 -87.5t85.5 -30.5q42 0 70.5 18.5t36.5 51.5l78 -4q-12 -61 -62.5 -97t-121.5 -36q-59 0 -105 25.5t-72.5 73t-26.5 112.5q0 66 26 114t72 73.5t105 25.5q88 0 138.5 -54.5t50.5 -147.5v-37zM158 659.5q-32 -29.5 -36 -82.5h230q-2 50 -31 81
t-81 31q-50 0 -82 -29.5z" />
    <glyph glyph-name="uni1D4A" unicode="&#x1d4a;" horiz-adv-x="469" 
d="M331 730.5q46 -25.5 72.5 -73t26.5 -112.5q0 -66 -26 -114t-72 -73.5t-105 -25.5q-88 0 -138.5 54.5t-50.5 147.5v37h309q-2 57 -34.5 87.5t-85.5 30.5q-42 0 -70.5 -18.5t-36.5 -51.5l-78 4q12 61 62.5 97t121.5 36q59 0 105 -25.5zM310 428.5q32 29.5 36 82.5h-230
q2 -50 31 -81t81 -31q50 0 82 29.5z" />
    <glyph glyph-name="g.sups" unicode="&#x1d4d;" horiz-adv-x="513" 
d="M322.5 737.5q37.5 -18.5 54.5 -48.5v59h72v-430q0 -88 -53.5 -138.5t-143.5 -50.5q-86 0 -137 39.5t-64 106.5l78 3q6 -39 39 -61.5t81 -22.5q56 0 89.5 30.5t33.5 87.5v83q-17 -29 -53 -46t-83 -17q-56 0 -101 26t-71 74t-26 112t26 112t71 74t101 26q49 0 86.5 -18.5z
M153.5 650.5q-36.5 -38.5 -36.5 -106.5q0 -69 36.5 -107t94.5 -38q55 0 89.5 35t34.5 98v24q0 64 -34.5 98.5t-89.5 34.5q-58 0 -94.5 -38.5z" />
    <glyph glyph-name="k.sups" unicode="&#x1d4f;" horiz-adv-x="429" 
d="M65 962h77v-387l170 173h97l-171 -178l189 -230h-98l-145 174l-42 -42v-132h-77v622z" />
    <glyph glyph-name="m.sups" unicode="&#x1d50;" horiz-adv-x="742" 
d="M638 712.5q42 -43.5 42 -118.5v-254h-78v237q0 49 -24.5 78t-67.5 29q-45 0 -72 -31t-27 -77v-236h-78v237q0 49 -24.5 78t-68.5 29q-45 0 -71.5 -31t-26.5 -77v-236h-77v408h73v-51q14 23 44.5 41t74.5 18q47 0 81.5 -19.5t53.5 -55.5q18 34 52 54.5t82 20.5
q70 0 112 -43.5z" />
    <glyph glyph-name="o.sups" unicode="&#x1d52;" horiz-adv-x="500" 
d="M357.5 729.5q48.5 -26.5 76 -74.5t27.5 -112t-27.5 -111.5t-76 -73.5t-108.5 -26t-108 26t-75.5 73.5t-27.5 111.5t27.5 112t75.5 74.5t108 26.5t108.5 -26.5zM154.5 650q-37.5 -39 -37.5 -107q0 -67 37.5 -105.5t95.5 -38.5q59 0 96.5 38.5t37.5 105.5t-37.5 106.5
t-96.5 39.5q-58 0 -95.5 -39z" />
    <glyph glyph-name="p.sups" unicode="&#x1d56;" horiz-adv-x="515" 
d="M380 730q45 -26 70.5 -74t25.5 -112t-25.5 -112t-70.5 -74t-102 -26q-47 0 -83 17.5t-53 45.5v-259h-77v612h73v-59q17 30 54 48.5t86 18.5q57 0 102 -26zM176.5 654.5q-34.5 -34.5 -34.5 -98.5v-24q0 -63 34.5 -98t89.5 -35q58 0 95 38.5t37 106.5t-37 106.5t-95 38.5
q-55 0 -89.5 -34.5z" />
    <glyph glyph-name="t.sups" unicode="&#x1d57;" horiz-adv-x="278" 
d="M266 407v-69q-30 -4 -58 -4q-61 0 -95.5 32t-33.5 99l1 215h-76v68h76l1 141h77l-1 -141h108v-68h-109l-1 -205q0 -72 70 -72q21 0 41 4z" />
    <glyph glyph-name="u.sups" unicode="&#x1d58;" horiz-adv-x="469" 
d="M404 748v-408h-73v51q-15 -25 -45 -42t-74 -17q-70 0 -110.5 42t-40.5 116v258h78v-240q0 -49 23.5 -76t67.5 -27t70.5 29t26.5 73v241h77z" />
    <glyph glyph-name="v.sups" unicode="&#x1d5b;" horiz-adv-x="424" 
d="M335 748h84l-176 -408h-61l-177 408h85l123 -288z" />
    <glyph glyph-name="c.sups" unicode="&#x1d9c;" horiz-adv-x="458" 
d="M366 714.5q51 -41.5 61 -112.5l-76 -6q-6 43 -35.5 68t-74.5 25q-55 0 -89.5 -38.5t-34.5 -107.5q0 -67 34.5 -105.5t89.5 -38.5q46 0 75 23.5t35 64.5l76 -7q-11 -69 -61 -108.5t-125 -39.5q-58 0 -104 25.5t-72.5 73t-26.5 112.5q0 66 26 114t72 73.5t105 25.5
q74 0 125 -41.5z" />
    <glyph glyph-name="z.sups" unicode="&#x1dbb;" horiz-adv-x="356" 
d="M27 748h296v-56l-210 -287h219v-65h-309v55l210 287h-206v66z" />
    <glyph glyph-name="uni1E20" unicode="&#x1e20;" horiz-adv-x="809" 
d="M417 380h344v-31q0 -110 -42 -191t-120 -124.5t-183 -43.5q-104 0 -187 46t-130.5 133t-47.5 205q0 119 47 205.5t129.5 132.5t187.5 46q86 0 158 -31.5t120 -91.5t62 -142l-94 -15q-14 92 -81 145t-165 53q-80 0 -141.5 -34.5t-96 -102.5t-34.5 -165t34.5 -165
t96 -102.5t141.5 -34.5q105 0 171.5 57t77.5 170h-247v81zM259 909h304v-63h-304v63z" />
    <glyph glyph-name="uni1E21" unicode="&#x1e21;" horiz-adv-x="638" 
d="M146.5 -214.5q-63.5 49.5 -79.5 131.5l86 3q9 -51 52.5 -80.5t105.5 -29.5q73 0 117 40.5t44 114.5v111q-22 -39 -68 -62.5t-108 -23.5q-70 0 -126 32t-88 92t-32 141q0 80 32 140t88 92t126 32q64 0 111 -25.5t69 -67.5v84h82v-539q0 -72 -30.5 -125t-85.5 -81.5
t-128 -28.5q-104 0 -167.5 49.5zM426.5 110q45.5 45 45.5 129v30q0 84 -45.5 129.5t-118.5 45.5q-75 0 -123 -50t-48 -140q0 -89 48 -139t123 -50q73 0 118.5 45zM172 700h284v-63h-284v63z" />
    <glyph glyph-name="Wgrave" unicode="&#x1e80;" horiz-adv-x="1048" 
d="M932 748h96l-231 -748h-77l-196 580l-195 -580h-77l-232 748h97l175 -587l195 587h75l196 -587zM290 948h127l148 -141h-89z" />
    <glyph glyph-name="wgrave" unicode="&#x1e81;" horiz-adv-x="770" 
d="M671 510h89l-176 -510h-69l-130 366l-131 -366h-68l-176 510h89l124 -375l131 375h61l132 -375zM216 786h99l102 -191h-68z" />
    <glyph glyph-name="Wacute" unicode="&#x1e82;" horiz-adv-x="1048" 
d="M932 748h96l-231 -748h-77l-196 580l-195 -580h-77l-232 748h97l175 -587l195 587h75l196 -587zM627 946h127l-187 -141h-88z" />
    <glyph glyph-name="wacute" unicode="&#x1e83;" horiz-adv-x="770" 
d="M671 510h89l-176 -510h-69l-130 366l-131 -366h-68l-176 510h89l124 -375l131 375h61l132 -375zM453 786h97l-132 -191h-69z" />
    <glyph glyph-name="Wdieresis" unicode="&#x1e84;" horiz-adv-x="1048" 
d="M932 748h96l-231 -748h-77l-196 580l-195 -580h-77l-232 748h97l175 -587l195 587h75l196 -587zM472.5 918q17.5 -17 17.5 -41t-17.5 -40.5t-41.5 -16.5q-25 0 -41.5 16t-16.5 41q0 24 16.5 41t41.5 17q24 0 41.5 -17zM659.5 918q16.5 -17 16.5 -41q0 -25 -16 -41
t-41 -16q-24 0 -41.5 16.5t-17.5 40.5t17.5 41t41.5 17t40.5 -17z" />
    <glyph glyph-name="wdieresis" unicode="&#x1e85;" horiz-adv-x="770" 
d="M671 510h89l-176 -510h-69l-130 366l-131 -366h-68l-176 510h89l124 -375l131 375h61l132 -375zM333.5 729q17.5 -17 17.5 -41t-17.5 -40.5t-41.5 -16.5q-25 0 -41.5 16t-16.5 41q0 24 16.5 41t41.5 17q24 0 41.5 -17zM520.5 729q16.5 -17 16.5 -41q0 -25 -16 -41
t-41 -16q-24 0 -41.5 16.5t-17.5 40.5t17.5 41t41.5 17t40.5 -17z" />
    <glyph glyph-name="uni1E9E" unicode="&#x1e9e;" horiz-adv-x="723" 
d="M506 724.5q68 -31.5 122 -87.5l-130 -183q85 -22 135 -77t50 -146q0 -73 -34 -127t-95 -83t-140 -29q-52 0 -88 9l18 80q24 -8 66 -8q79 0 129 42.5t50 114.5q0 80 -57.5 120.5t-170.5 58.5l147 216q-31 23 -70 37t-93 14q-48 0 -88 -17.5t-63 -49t-23 -72.5v-537h-91
v535q0 66 35 116t95.5 77.5t135.5 27.5q92 0 160 -31.5z" />
    <glyph glyph-name="Ygrave" unicode="&#x1ef2;" horiz-adv-x="686" 
d="M566 748h106l-283 -437v-311h-91v311l-284 437h106l223 -347zM109 948h127l148 -141h-89z" />
    <glyph glyph-name="ygrave" unicode="&#x1ef3;" horiz-adv-x="524" 
d="M420 510h92l-322 -765h-95l121 283l-203 482h93l157 -388zM94 786h99l102 -191h-68z" />
    <glyph glyph-name="endash" unicode="&#x2013;" horiz-adv-x="557" 
d="M42 322h473v-81h-473v81z" />
    <glyph glyph-name="emdash" unicode="&#x2014;" horiz-adv-x="789" 
d="M42 322h705v-81h-705v81z" />
    <glyph glyph-name="quoteleft" unicode="&#x2018;" horiz-adv-x="198" 
d="M154 715q-51 -42 -57 -105q23 0 39.5 -17t16.5 -40q0 -24 -16 -41t-39 -17q-26 0 -40 18t-14 48q0 127 110 191v-37z" />
    <glyph glyph-name="quoteright" unicode="&#x2019;" horiz-adv-x="198" 
d="M140 735q14 -18 14 -48q0 -127 -110 -191v37q51 42 57 105q-23 0 -39.5 17t-16.5 40q0 24 16 41t39 17q26 0 40 -18z" />
    <glyph glyph-name="quotesinglbase" unicode="&#x201a;" horiz-adv-x="198" 
d="M140 88q14 -18 14 -48q0 -127 -110 -191v37q51 42 57 105q-23 0 -39.5 17t-16.5 40q0 24 16 41t39 17q26 0 40 -18z" />
    <glyph glyph-name="quotedblleft" unicode="&#x201c;" horiz-adv-x="362" 
d="M318 715q-51 -42 -57 -105q23 0 39.5 -17t16.5 -40q0 -24 -16 -41t-39 -17q-26 0 -40 18t-14 48q0 127 110 191v-37zM154 715q-51 -42 -57 -105q23 0 39.5 -17t16.5 -40q0 -24 -16 -41t-39 -17q-26 0 -40 18t-14 48q0 127 110 191v-37z" />
    <glyph glyph-name="quotedblright" unicode="&#x201d;" horiz-adv-x="362" 
d="M304 735q14 -18 14 -48q0 -127 -110 -191v37q51 42 57 105q-23 0 -39.5 17t-16.5 40q0 24 16 41t39 17q26 0 40 -18zM140 735q14 -18 14 -48q0 -127 -110 -191v37q51 42 57 105q-23 0 -39.5 17t-16.5 40q0 24 16 41t39 17q26 0 40 -18z" />
    <glyph glyph-name="quotedblbase" unicode="&#x201e;" horiz-adv-x="362" 
d="M304 88q14 -18 14 -48q0 -127 -110 -191v37q51 42 57 105q-23 0 -39.5 17t-16.5 40q0 24 16 41t39 17q26 0 40 -18zM140 88q14 -18 14 -48q0 -127 -110 -191v37q51 42 57 105q-23 0 -39.5 17t-16.5 40q0 24 16 41t39 17q26 0 40 -18z" />
    <glyph glyph-name="dagger" unicode="&#x2020;" horiz-adv-x="487" 
d="M201 748h86v-206h183v-78h-183v-531h-86v531h-184v78h184v206z" />
    <glyph glyph-name="daggerdbl" unicode="&#x2021;" horiz-adv-x="487" 
d="M201 748h86v-206h183v-78h-183v-246h183v-79h-183v-206h-86v206h-184v79h184v246h-184v78h184v206z" />
    <glyph glyph-name="bullet" unicode="&#x2022;" horiz-adv-x="343" 
d="M256.5 360q34.5 -35 34.5 -85q0 -51 -34.5 -86t-84.5 -35q-51 0 -86 35t-35 86q0 50 35 85t86 35q50 0 84.5 -35z" />
    <glyph glyph-name="ellipsis" unicode="&#x2026;" horiz-adv-x="633" 
d="M147.5 91.5q17.5 -17.5 17.5 -42.5t-17.5 -42t-43.5 -17q-23 0 -40.5 17.5t-17.5 41.5q0 25 17 42.5t41 17.5q26 0 43.5 -17.5zM358.5 91.5q17.5 -17.5 17.5 -42.5t-17.5 -42t-43.5 -17q-23 0 -40.5 17.5t-17.5 41.5q0 25 17 42.5t41 17.5q26 0 43.5 -17.5zM569.5 91.5
q17.5 -17.5 17.5 -42.5t-17.5 -42t-43.5 -17q-23 0 -40.5 17.5t-17.5 41.5q0 25 17 42.5t41 17.5q26 0 43.5 -17.5z" />
    <glyph glyph-name="perthousand" unicode="&#x2030;" horiz-adv-x="1220" 
d="M316.5 709.5q45.5 -48.5 45.5 -129.5q0 -53 -21 -94t-58 -63t-84 -22t-84.5 22t-58.5 63t-21 94q0 81 46 129.5t118 48.5t117.5 -48.5zM642 748h78l-529 -748h-77zM127 664.5q-28 -31.5 -28 -84.5q0 -54 28 -86t71 -32q44 0 72 32t28 86t-28 85t-72 31q-43 0 -71 -31.5z
M752 298.5q46 -48.5 46 -129.5q0 -53 -21 -94t-58.5 -63t-84.5 -22q-46 0 -83.5 22t-58.5 63t-21 94q0 81 46 129.5t117 48.5q72 0 118 -48.5zM1139.5 298.5q45.5 -48.5 45.5 -129.5q0 -53 -21 -94t-58 -63t-84 -22t-84 22t-58 63t-21 94q0 81 45.5 129.5t117.5 48.5
t117.5 -48.5zM562.5 254.5q-27.5 -31.5 -27.5 -85.5t28 -85.5t71 -31.5q44 0 71.5 31t27.5 86t-27.5 86t-71.5 31t-71.5 -31.5zM950.5 255q-27.5 -31 -27.5 -86q0 -54 27.5 -85.5t71.5 -31.5t71.5 31.5t27.5 85.5t-27.5 85.5t-71.5 31.5t-71.5 -31z" />
    <glyph glyph-name="guilsinglleft" unicode="&#x2039;" horiz-adv-x="331" 
d="M30 264l209 218l63 -55l-167 -163l167 -163l-63 -55z" />
    <glyph glyph-name="guilsinglright" unicode="&#x203a;" horiz-adv-x="331" 
d="M30 427l61 55l211 -218l-211 -218l-61 55l166 163z" />
    <glyph glyph-name="fraction" unicode="&#x2044;" horiz-adv-x="191" 
d="M322 748h75l-527 -748h-75z" />
    <glyph glyph-name="zero.numr" unicode="&#x2070;" horiz-adv-x="364" 
d="M293 682.5q41 -55.5 41 -155.5q0 -101 -41 -156.5t-110 -55.5q-70 0 -111.5 55.5t-41.5 156.5q0 100 41.5 155.5t111.5 55.5q69 0 110 -55.5zM98 527q0 -151 84 -151q41 0 62.5 38.5t21.5 112.5t-21.5 112.5t-62.5 38.5q-84 0 -84 -151z" />
    <glyph glyph-name="four.numr" unicode="&#x2074;" horiz-adv-x="340" 
d="M197 732h63v-261h63v-60h-63v-90h-67v90h-178v53zM194 471v168l-119 -168h119z" />
    <glyph glyph-name="five.numr" unicode="&#x2075;" horiz-adv-x="315" 
d="M255.5 545q34.5 -34 34.5 -95t-36 -97.5t-98 -36.5q-59 0 -93.5 32.5t-37.5 86.5l67 4q3 -30 19.5 -46t45.5 -16q31 0 48.5 20t17.5 52t-18 51t-48 19q-17 0 -30 -5.5t-27 -16.5h-60v236h234v-60h-167v-108q25 14 58 14q56 0 90.5 -34z" />
    <glyph glyph-name="six.numr" unicode="&#x2076;" horiz-adv-x="337" 
d="M173 587q59 -1 98.5 -38.5t39.5 -97.5q0 -61 -40 -98.5t-101 -37.5q-62 0 -102.5 37.5t-40.5 98.5q0 44 29 87l142 194h81zM222.5 397q20.5 21 20.5 56q0 36 -20 55.5t-54 19.5q-39 0 -58 -25q-16 -23 -16 -50q0 -35 20.5 -56t53.5 -21t53.5 21z" />
    <glyph glyph-name="seven.numr" unicode="&#x2077;" horiz-adv-x="309" 
d="M16 733h274v-51l-179 -360h-75l177 351h-197v60z" />
    <glyph glyph-name="eight.numr" unicode="&#x2078;" horiz-adv-x="340" 
d="M261.5 707q36.5 -31 36.5 -83q0 -28 -12 -49.5t-32 -35.5q25 -15 40 -40.5t15 -59.5q0 -57 -39 -90.5t-100 -33.5t-100 33.5t-39 90.5q0 65 54 99q-44 33 -44 86q0 52 36 83t93 31q55 0 91.5 -31zM123 662q-19 -16 -19 -44q0 -27 19 -42.5t47 -15.5q29 0 47 15.5t18 42.5
q0 28 -18 44t-47 16q-28 0 -47 -16zM118.5 487q-20.5 -17 -20.5 -47t20.5 -47t51.5 -17q32 0 51.5 17t19.5 47t-20 47t-51 17t-51.5 -17z" />
    <glyph glyph-name="nine.numr" unicode="&#x2079;" horiz-adv-x="337" 
d="M270.5 700.5q40.5 -37.5 40.5 -98.5q0 -45 -30 -87l-140 -194h-82l107 145q-60 1 -99.5 38.5t-39.5 97.5q0 61 40 98.5t101 37.5q62 0 102.5 -37.5zM228 550q15 22 15 50q0 36 -20.5 57t-53.5 21t-53.5 -21t-20.5 -57q0 -35 20.5 -55t53.5 -20q38 0 59 25z" />
    <glyph glyph-name="n.sups" unicode="&#x207f;" horiz-adv-x="482" 
d="M377 712q44 -44 44 -118v-254h-78v237q0 49 -27 78t-71 29q-46 0 -74.5 -31t-28.5 -77v-236h-77v408h73v-51q15 24 47.5 41.5t77.5 17.5q70 0 114 -44z" />
    <glyph glyph-name="zero.dnom" unicode="&#x2080;" horiz-adv-x="364" 
d="M293 361.5q41 -55.5 41 -155.5q0 -101 -41 -156.5t-110 -55.5q-70 0 -111.5 55.5t-41.5 156.5q0 100 41.5 155.5t111.5 55.5q69 0 110 -55.5zM98 206q0 -151 84 -151q41 0 62.5 38.5t21.5 112.5t-21.5 112.5t-62.5 38.5q-84 0 -84 -151z" />
    <glyph glyph-name="one.dnom" unicode="&#x2081;" horiz-adv-x="216" 
d="M129 411h43v-411h-68v321l-71 -55l-28 55z" />
    <glyph glyph-name="two.dnom" unicode="&#x2082;" horiz-adv-x="308" 
d="M247 383q32 -34 32 -91q0 -43 -18 -78t-55 -74l-77 -80h155v-60h-256v47l129 134q29 30 42 55t13 57q0 29 -15 46.5t-42 17.5q-30 0 -46.5 -18.5t-16.5 -51.5l-66 4q1 58 35 92t92 34q62 0 94 -34z" />
    <glyph glyph-name="three.dnom" unicode="&#x2083;" horiz-adv-x="317" 
d="M247 386q33 -31 33 -84q0 -33 -15.5 -55.5t-39.5 -33.5q27 -8 45 -33t18 -62q0 -57 -36 -90.5t-95 -33.5q-62 0 -96.5 33t-36.5 90l67 5q3 -32 19.5 -49.5t46.5 -17.5t47 17.5t17 47.5t-19 46t-50 16h-41v58h40q27 0 45 16t18 43t-16 42.5t-42 15.5q-27 0 -43 -16.5
t-17 -46.5l-66 4q2 55 34.5 87t91.5 32q58 0 91 -31z" />
    <glyph glyph-name="four.dnom" unicode="&#x2084;" horiz-adv-x="340" 
d="M197 411h63v-261h63v-60h-63v-90h-67v90h-178v53zM194 150v168l-119 -168h119z" />
    <glyph glyph-name="five.dnom" unicode="&#x2085;" horiz-adv-x="315" 
d="M255.5 223q34.5 -34 34.5 -95t-36 -97.5t-98 -36.5q-59 0 -93.5 32.5t-37.5 86.5l67 4q3 -30 19.5 -46t45.5 -16q31 0 48.5 20t17.5 52t-18 51t-48 19q-17 0 -30 -5.5t-27 -16.5h-60v236h234v-60h-167v-108q25 14 58 14q56 0 90.5 -34z" />
    <glyph glyph-name="six.dnom" unicode="&#x2086;" horiz-adv-x="337" 
d="M173 266q59 -1 98.5 -38.5t39.5 -97.5q0 -61 -40 -98.5t-101 -37.5q-62 0 -102.5 37.5t-40.5 98.5q0 44 29 87l142 194h81zM222.5 76q20.5 21 20.5 56q0 36 -20 55.5t-54 19.5q-39 0 -58 -25q-16 -23 -16 -50q0 -35 20.5 -56t53.5 -21t53.5 21z" />
    <glyph glyph-name="seven.dnom" unicode="&#x2087;" horiz-adv-x="309" 
d="M16 411h274v-51l-179 -360h-75l177 351h-197v60z" />
    <glyph glyph-name="eight.dnom" unicode="&#x2088;" horiz-adv-x="340" 
d="M261.5 386q36.5 -31 36.5 -83q0 -28 -12 -49.5t-32 -35.5q25 -15 40 -40.5t15 -59.5q0 -57 -39 -90.5t-100 -33.5t-100 33.5t-39 90.5q0 65 54 99q-44 33 -44 86q0 52 36 83t93 31q55 0 91.5 -31zM123 341q-19 -16 -19 -44q0 -27 19 -42.5t47 -15.5q29 0 47 15.5t18 42.5
q0 28 -18 44t-47 16q-28 0 -47 -16zM118.5 166q-20.5 -17 -20.5 -47t20.5 -47t51.5 -17q32 0 51.5 17t19.5 47t-20 47t-51 17t-51.5 -17z" />
    <glyph glyph-name="nine.dnom" unicode="&#x2089;" horiz-adv-x="337" 
d="M270.5 379.5q40.5 -37.5 40.5 -98.5q0 -45 -30 -87l-140 -194h-82l107 145q-60 1 -99.5 38.5t-39.5 97.5q0 61 40 98.5t101 37.5q62 0 102.5 -37.5zM228 229q15 22 15 50q0 36 -20.5 57t-53.5 21t-53.5 -21t-20.5 -57q0 -35 20.5 -55t53.5 -20q38 0 59 25z" />
    <glyph glyph-name="Euro" unicode="&#x20ac;" horiz-adv-x="700" 
d="M656 58q-45 -35 -97 -51.5t-122 -16.5q-77 0 -143 31.5t-112.5 92.5t-66.5 146h-110l20 54h81q-3 29 -3 60q0 30 3 58h-101l20 54h90q19 85 65.5 146.5t113.5 93.5t145 32q65 0 114 -16t91 -49l-28 -75q-71 58 -173 58q-87 0 -148 -49.5t-85 -140.5h351l-21 -54h-341
q-3 -27 -3 -58q0 -35 4 -60h291l-20 -54h-261q24 -90 86 -139t147 -49q102 0 175 62z" />
    <glyph glyph-name="uni20B4" unicode="&#x20b4;" horiz-adv-x="697" 
d="M523 421q-26 -25 -63 -43t-90 -36l-35 -12h319v-56h-416q-31 -33 -31 -83q0 -64 39.5 -95t101.5 -31q64 0 105 33t42 88h98q-4 -92 -71 -144t-174 -52q-105 0 -171.5 52t-66.5 153q0 47 16 79h-83v56h125q27 24 67 42.5t99 37.5q29 11 30 11h-321v55h408q27 32 27 81
q0 57 -33 91.5t-93 34.5q-55 0 -88 -28.5t-35 -77.5h-97q2 85 62 133t160 48q68 0 118.5 -27t76.5 -74t26 -104q0 -43 -14 -77h93v-55h-131z" />
    <glyph glyph-name="uni20B9" unicode="&#x20b9;" horiz-adv-x="566" 
d="M519 748v-63h-177q63 -53 71 -139h106v-59h-107q-7 -61 -40.5 -105t-84 -66.5t-108.5 -24.5l319 -291h-128l-318 291v67h111q58 0 101 33.5t54 95.5h-266v59h268q-7 67 -51.5 103t-105.5 36h-111v63h467z" />
    <glyph glyph-name="uni20BA" unicode="&#x20ba;" horiz-adv-x="674" 
d="M625 298q0 -150 -82.5 -224t-230.5 -74h-157v270l-105 -45v60l105 45v103l-105 -44v59l105 44v256h92v-221l179 76v-60l-179 -77v-101l179 75v-60l-179 -76v-222h65q108 0 164.5 51t56.5 165h92z" />
    <glyph glyph-name="uni20BD" unicode="&#x20bd;" horiz-adv-x="680" 
d="M250 315v-96h168v-58h-168v-161h-92v161h-106v58h106v96h-106v75h106v358h247q66 0 118 -25t82 -73t30 -115t-30 -116.5t-82 -76.5t-118 -27h-155zM250 667v-277h143q65 0 106 34.5t41 103.5t-41 104t-106 35h-143z" />
    <glyph glyph-name="uni20BE" unicode="&#x20be;" horiz-adv-x="849" 
d="M186.5 219.5q38.5 -66.5 108 -102.5t158.5 -36h307v-81h-636v75h119q-88 37 -137.5 118t-49.5 189q0 134 68.5 228.5t183.5 129.5v125h59v-112q35 5 65 5q31 0 66 -5v112h59v-126q113 -35 181 -131t68 -234h-92q0 108 -42 179.5t-115 102.5v-282h-59v300q-31 6 -66 6
q-33 0 -65 -6v-300h-59v283q-75 -31 -117.5 -102t-42.5 -179q0 -90 38.5 -156.5z" />
    <glyph glyph-name="uni20BF" unicode="&#x20bf;" horiz-adv-x="670" 
d="M568 61.5q-54 -52.5 -144 -60.5v-121h-56v120h-95v-120h-56v120h-130v748h130v120h56v-120h94h1v120h56v-125q76 -13 121 -63t45 -131q0 -59 -23.5 -99.5t-61.5 -59.5q51 -17 84 -64t33 -119q0 -93 -54 -145.5zM178 668v-245h203q54 0 85 29t31 91q0 61 -38.5 93
t-102.5 32h-178zM382 81q65 0 106 32.5t41 98.5q0 67 -40 99.5t-99 32.5h-212v-263h204z" />
    <glyph glyph-name="uni2113" unicode="&#x2113;" horiz-adv-x="597" 
d="M543 140q-69 -150 -204 -150q-80 0 -124.5 47.5t-44.5 128.5v30q-45 -32 -107 -72v85l21 15q36 23 86 58v286q0 93 45 142t122 49q45 0 81.5 -20.5t57.5 -58.5t21 -89q0 -84 -61.5 -164t-176.5 -167v-85q0 -108 90 -108q43 0 71.5 27t61.5 88zM259 350q78 64 120 121.5
t42 113.5q0 46 -21.5 71.5t-59.5 25.5t-59.5 -27.5t-21.5 -81.5v-223z" />
    <glyph glyph-name="uni2116" unicode="&#x2116;" horiz-adv-x="1085" 
d="M565 748h92v-748h-77l-401 578v-578h-92v748h77l401 -579v579zM801 498q-40 42 -40 108q0 67 39.5 109t103.5 42t104.5 -42t40.5 -109q0 -66 -40.5 -108t-104.5 -42q-63 0 -103 42zM964.5 537q23.5 27 23.5 69q0 43 -23.5 70t-60.5 27t-60 -26.5t-23 -70.5q0 -42 23 -69
t60 -27t60.5 27z" />
    <glyph glyph-name="uni2117" unicode="&#x2117;" horiz-adv-x="576" 
d="M421 726q59 -33 93.5 -91t34.5 -129q0 -70 -34.5 -127.5t-94 -91t-131.5 -33.5q-74 0 -134 33.5t-94 91t-34 127.5q0 71 34 129t94 91t134 33q73 0 132 -33zM173 698q-51 -29 -80.5 -79.5t-29.5 -112.5t29.5 -112.5t80.5 -79t115 -28.5t115 28.5t80.5 79t29.5 112.5
t-29.5 112.5t-80.5 79.5t-115 29t-115 -29zM314 659q42 0 70 -24.5t28 -68.5q0 -45 -28 -69.5t-70 -24.5h-72v-119h-48v306h120zM242 618v-105h63q25 0 41 12.5t16 40.5q0 27 -16 39.5t-41 12.5h-63z" />
    <glyph glyph-name="trademark" unicode="&#x2122;" horiz-adv-x="881" 
d="M34 748h326v-62h-131v-297h-64v297h-131v62zM764 748h53v-359h-64v219l-123 -216h-29l-122 216v-219h-65v359h54l148 -262z" />
    <glyph glyph-name="estimated" unicode="&#x212e;" horiz-adv-x="794" 
d="M223 34q-81 44 -129.5 123t-48.5 179q0 99 48.5 178t129.5 122.5t174 43.5t174 -43.5t129.5 -122.5t48.5 -178v-16h-575v-153q0 -39 37 -73q40 -37 83.5 -54.5t102.5 -17.5q80 0 155 41t110 104h61q-42 -80 -132 -128.5t-194 -48.5q-93 0 -174 44zM174 351h447v152
q0 41 -38 74q-40 36 -83 53.5t-103 17.5q-59 0 -102.5 -17.5t-83.5 -53.5q-37 -34 -37 -74v-152z" />
    <glyph glyph-name="uni2153" unicode="&#x2153;" horiz-adv-x="734" 
d="M129 733h43v-411h-68v321l-71 -55l-28 55zM553 748h75l-527 -748h-75zM664 386q33 -31 33 -84q0 -33 -15.5 -55.5t-39.5 -33.5q27 -8 45 -33t18 -62q0 -57 -36 -90.5t-95 -33.5q-62 0 -96.5 33t-36.5 90l67 5q3 -32 19.5 -49.5t46.5 -17.5t47 17.5t17 47.5t-19 46t-50 16
h-41v58h40q27 0 45 16t18 43t-16 42.5t-42 15.5q-27 0 -43 -16.5t-17 -46.5l-66 4q2 55 34.5 87t91.5 32q58 0 91 -31z" />
    <glyph glyph-name="arrowleft" unicode="&#x2190;" horiz-adv-x="683" 
d="M347 166l-48 -48l-253 254l253 254l48 -48l-172 -170h463v-72h-463z" />
    <glyph glyph-name="arrowup" unicode="&#x2191;" horiz-adv-x="599" 
d="M94 367l-48 48l254 253l254 -253l-48 -48l-170 172v-463h-72v463z" />
    <glyph glyph-name="arrowright" unicode="&#x2192;" horiz-adv-x="683" 
d="M337 578l48 48l253 -254l-253 -254l-48 48l172 170h-463v72h463z" />
    <glyph glyph-name="arrowdown" unicode="&#x2193;" horiz-adv-x="599" 
d="M506 378l48 -48l-254 -253l-254 253l48 48l170 -172v463h72v-463z" />
    <glyph glyph-name="arrowboth" unicode="&#x2194;" horiz-adv-x="845" 
d="M276 142l-230 230l230 230l48 -48l-148 -147h495l-149 147l48 48l230 -230l-230 -230l-48 48l149 146h-495l148 -146z" />
    <glyph glyph-name="arrowupdn" unicode="&#x2195;" horiz-adv-x="612" 
d="M536 225l-230 -230l-230 230l48 48l147 -148v495l-147 -149l-48 48l230 230l230 -230l-48 -48l-146 149v-495l146 148z" />
    <glyph glyph-name="uni2196" unicode="&#x2196;" horiz-adv-x="578" 
d="M156 222h-68l1 359h358v-68l-242 2l328 -328l-51 -51l-328 328z" />
    <glyph glyph-name="uni2197" unicode="&#x2197;" horiz-adv-x="554" 
d="M132 514v68l359 -1v-358h-68l2 242l-328 -328l-51 51l328 328z" />
    <glyph glyph-name="uni2198" unicode="&#x2198;" horiz-adv-x="579" 
d="M423 522h68l-1 -359h-358v68l242 -2l-328 328l51 51l328 -328z" />
    <glyph glyph-name="uni2199" unicode="&#x2199;" horiz-adv-x="578" 
d="M447 230v-68l-359 1v358h68l-2 -242l328 328l51 -51l-328 -328z" />
    <glyph glyph-name="partialdiff" unicode="&#x2202;" horiz-adv-x="608" 
d="M498 626q60 -132 60 -344q0 -91 -32 -157t-91 -101t-139 -35q-70 0 -127.5 31t-91 88t-33.5 132q0 72 32.5 127.5t89 85.5t128.5 30q52 0 96 -19t75 -53q-7 123 -48 194t-129 71q-52 0 -91 -18t-75 -54l-49 75q48 40 97.5 59.5t115.5 19.5q152 0 212 -132zM386.5 91
q37.5 21 59 59.5t21.5 88.5v4q0 49 -21.5 87.5t-59 59.5t-84.5 21q-46 0 -84 -21.5t-59.5 -60.5t-21.5 -88q0 -51 21.5 -89.5t59 -60t84.5 -21.5t84.5 21z" />
    <glyph glyph-name="Delta" unicode="&#x2206;" horiz-adv-x="720" 
d="M361 649l331 -649h-664zM361 486l-208 -411h414z" />
    <glyph glyph-name="product" unicode="&#x220f;" horiz-adv-x="637" 
d="M22 748h592v-80h-102v-832h-78v832h-231v-832h-78v832h-103v80z" />
    <glyph glyph-name="summation" unicode="&#x2211;" horiz-adv-x="594" 
d="M45 748h505v-80h-399l221 -294l-221 -293h399v-81h-505v67l232 307l-232 307v67z" />
    <glyph glyph-name="minus" unicode="&#x2212;" horiz-adv-x="541" 
d="M29 411h481v-81h-481v81z" />
    <glyph glyph-name="radical" unicode="&#x221a;" horiz-adv-x="662" 
d="M325 104l223 644h83l-305 -825l-144 341l-112 -73l-44 69l189 118z" />
    <glyph glyph-name="infinity" unicode="&#x221e;" horiz-adv-x="781" 
d="M666.5 469.5q40.5 -25.5 63.5 -69t23 -95.5t-23 -95.5t-63.5 -69t-92.5 -25.5q-99 0 -181 104l-22 27l-21 -27q-38 -41 -76.5 -64.5t-84.5 -23.5q-48 0 -84.5 23t-56.5 62.5t-20 87.5t20 88t56.5 63.5t84.5 23.5q49 0 87 -23t73 -67l21 -27l18 22q45 55 86.5 83t99.5 28
q52 0 92.5 -25.5zM502 398.5q-31 -23.5 -68 -69.5l-20 -26l22 -27q33 -40 65.5 -63.5t72.5 -23.5q47 0 76 33.5t29 82.5t-29 83t-76 34q-41 0 -72 -23.5zM123 378q-25 -30 -25 -74q0 -43 25 -72.5t67 -29.5q64 0 119 73l22 28l-21 28q-30 38 -58 57.5t-62 19.5
q-42 0 -67 -30z" />
    <glyph glyph-name="integral" unicode="&#x222b;" horiz-adv-x="333" 
d="M295.5 754.5q18.5 -3.5 43.5 -10.5l-15 -66q-25 9 -54 9q-35 0 -49 -20t-14 -68v-610q0 -84 -29.5 -122t-95.5 -38q-43 0 -86 13l15 66q31 -9 51 -9q38 0 54 21t16 71v611q0 80 28.5 118t92.5 38q24 0 42.5 -3.5z" />
    <glyph glyph-name="approxequal" unicode="&#x2248;" horiz-adv-x="530" 
d="M512 500q-34 -42 -68.5 -63t-82.5 -21q-32 0 -54 8.5t-52 25.5q-26 15 -43.5 22t-39.5 7q-37 0 -62.5 -13.5t-51.5 -45.5l-40 58q33 41 66.5 61t79.5 20q25 0 44 -7.5t47 -22.5q27 -16 48 -24t50 -8q39 0 66 14t53 46zM512 265q-33 -42 -68 -62.5t-83 -20.5
q-32 0 -55.5 8.5t-50.5 25.5q-27 15 -44 21.5t-39 6.5q-37 0 -62 -13.5t-52 -44.5l-40 57q33 42 66.5 62t79.5 20q25 0 45 -7.5t46 -23.5q27 -16 48 -24t50 -8q39 0 65.5 14.5t53.5 46.5z" />
    <glyph glyph-name="notequal" unicode="&#x2260;" horiz-adv-x="541" 
d="M510 529v-82h-178l-54 -158h232v-81h-260l-45 -131l-75 18l39 113h-140v81h168l54 158h-222v82h250l45 130l75 -19l-38 -111h149z" />
    <glyph glyph-name="lessequal" unicode="&#x2264;" horiz-adv-x="512" 
d="M25 451l456 213l2 -88l-284 -125l284 -125l-2 -88zM25 180h458v-81h-458v81z" />
    <glyph glyph-name="greaterequal" unicode="&#x2265;" horiz-adv-x="512" 
d="M29 576l2 88l457 -213l-457 -213l-2 88l285 125zM29 180h459v-81h-459v81z" />
    <glyph glyph-name="triagup" unicode="&#x25b2;" horiz-adv-x="930" 
d="M405 513q0 116 26 224q1 4 1 9q0 10 -7 10q-4 0 -9 -6q-17 -22 -81.5 -126.5t-119.5 -198.5q-3 -4 -16 -28q-125 -215 -155 -297q-4 -12 -4 -17q0 -8 4 -15q7 -13 23 -13q9 0 33 8q38 14 110 53q55 32 107 71t76 64q15 16 20.5 29t5.5 29q0 7 -2 27q-12 101 -12 177z
M716 200q84 -51 154 -118l6 -6q3 -3 7 -3q5 0 6 5t-1 10q-9 24 -66.5 132t-113.5 205q-3 4 -16 28q-63 106 -105.5 175t-75.5 108q-14 16 -27 16q-15 0 -22 -12t-10 -34q-9 -45 -9 -122q0 -64 7.5 -128.5t17.5 -97.5q8 -28 20.5 -39t41.5 -24q102 -44 186 -95zM262.5 103.5
q-85.5 -47.5 -179.5 -74.5l-8 -2q-7 -2 -7 -8t11 -9q28 -3 151.5 -7.5t230.5 -4.5h32q122 1 204 4t132 11q19 2 27 15q3 6 3 12q0 17 -27 39q-35 30 -101 69q-54 32 -114 57.5t-94 33.5q-13 4 -27 4q-16 0 -27.5 -6t-31.5 -20q-89 -66 -174.5 -113.5z" />
    <glyph glyph-name="lozenge" unicode="&#x25ca;" horiz-adv-x="530" 
d="M238 748h55l205 -402l-205 -401h-55l-206 401zM411 346l-145 283l-146 -283l146 -283z" />
    <glyph glyph-name="uni2605" unicode="&#x2605;" horiz-adv-x="850" 
d="M467 730q-6 14 -17 21t-24 7t-24.5 -7t-17.5 -21l-83 -193q-5 -12 -15.5 -19t-22.5 -8l-191 -15q-19 -1 -30.5 -14.5t-11.5 -30.5q0 -22 17 -35l152 -121q17 -12 17 -34q0 -4 -2 -12l-50 -201q-1 -4 -1 -11q0 -19 13.5 -32t31.5 -13q13 0 24 7l169 108q11 7 25 7t24 -7
l169 -108q11 -7 24 -7q18 0 32 13t14 31q0 4 -2 12l-51 201q-1 3 -1 10q0 22 17 36l151 121q17 13 17 35q0 17 -11 30.5t-30 14.5l-191 15q-12 1 -22.5 8t-15.5 19z" />
    <glyph glyph-name="De-cy.loclBGR" unicode="&#xe1e0;" horiz-adv-x="782" 
d="M429 748l257 -667h81v-251h-83v170h-586v-170h-83v251h81l256 667h77zM391 611l-197 -530h394z" />
    <glyph glyph-name="El-cy.loclBGR" unicode="&#xe1e1;" horiz-adv-x="685" 
d="M110 0h-98l292 748h77l292 -748h-100l-230 611z" />
    <glyph glyph-name="Ef-cy.loclBGR" unicode="&#xe1e2;" horiz-adv-x="954" 
d="M431 23q-177 2 -278.5 93.5t-101.5 257.5q0 111 46 190t131.5 121t202.5 45v98h91v-98q117 -3 203 -45t132 -121t46 -190q0 -167 -101.5 -258t-279.5 -93v-103h-91v103zM522 102q137 2 212.5 71.5t75.5 200.5q0 132 -75.5 203t-212.5 74v-549zM431 650
q-137 -2 -212.5 -73t-75.5 -203q0 -131 75.5 -200.5t212.5 -70.5v547z" />
    <glyph glyph-name="ve-cy.loclBGR" unicode="&#xe1e3;" horiz-adv-x="591" 
d="M136 56.5q-60 65.5 -60 174.5v315q0 74 29 127.5t79.5 80.5t114.5 27q63 0 110.5 -24.5t73.5 -69t26 -102.5q0 -56 -28.5 -101t-69.5 -70q33 -10 63 -36.5t48.5 -66.5t18.5 -87q0 -70 -29.5 -123t-82.5 -81.5t-120 -28.5q-113 0 -173 65.5zM297 440q60 0 93 39.5t33 96.5
q0 58 -34.5 94.5t-91.5 36.5q-61 0 -98 -39.5t-37 -112.5v-115h135zM415 107.5q40 41.5 40 114.5q0 61 -41 102.5t-116 41.5h-136v-139q0 -77 37.5 -119t109.5 -42q66 0 106 41.5z" />
    <glyph glyph-name="ge-cy.loclBGR" unicode="&#xe1e4;" horiz-adv-x="493" 
d="M385.5 478q49.5 -40 49.5 -109q0 -47 -21 -74t-55 -40.5t-96 -27.5q-52 -12 -77.5 -21.5t-37.5 -24t-12 -40.5q0 -37 29 -56.5t77 -19.5q51 0 81 22t37 64l85 -6q-9 -73 -62 -114t-139 -41q-89 0 -141 41.5t-52 116.5q0 44 20.5 71.5t58 44.5t98.5 31q16 4 24 5
q38 9 56 15.5t29.5 19t11.5 35.5q0 35 -25 54.5t-73 19.5q-47 0 -73 -22.5t-30 -61.5l-86 5q8 68 55.5 110.5t128.5 42.5q90 0 139.5 -40z" />
    <glyph glyph-name="de-cy.loclBGR" unicode="&#xe1e5;" horiz-adv-x="638" 
d="M146.5 -214.5q-63.5 49.5 -79.5 131.5l86 3q9 -51 52.5 -80.5t105.5 -29.5q73 0 117 40.5t44 114.5v111q-22 -39 -68 -62.5t-108 -23.5q-70 0 -126 32t-88 92t-32 141q0 80 32 140t88 92t126 32q64 0 111 -25.5t69 -67.5v84h82v-539q0 -72 -30.5 -125t-85.5 -81.5
t-128 -28.5q-104 0 -167.5 49.5zM426.5 110q45.5 45 45.5 129v30q0 84 -45.5 129.5t-118.5 45.5q-75 0 -123 -50t-48 -140q0 -89 48 -139t123 -50q73 0 118.5 45z" />
    <glyph glyph-name="zhe-cy.loclBGR" unicode="&#xe1e6;" horiz-adv-x="762" 
d="M120 0h-113l246 262l-229 248h104l213 -241v508h86v-509l207 242h104l-222 -248l239 -262h-112l-216 243v-243h-86v242z" />
    <glyph glyph-name="ze-cy.loclBGR" unicode="&#xe1e7;" horiz-adv-x="571" 
d="M115 -205q-62 59 -70 165l87 5q6 -73 45.5 -112.5t110.5 -39.5q70 0 109.5 39.5t39.5 107.5q0 69 -43 104.5t-116 35.5h-73v76h73q60 0 100.5 37t40.5 96q0 63 -36 98t-98 35q-64 0 -100.5 -36.5t-41.5 -104.5l-87 4q5 101 64.5 157.5t164.5 56.5q103 0 162 -57t59 -153
q0 -62 -31 -104.5t-78 -63.5q55 -16 91 -63t36 -118q0 -69 -29.5 -119.5t-83 -77.5t-123.5 -27q-111 0 -173 59z" />
    <glyph glyph-name="ii-cy.loclBGR" unicode="&#xe1e8;" 
d="M500 510v-510h-81v76q-16 -35 -55 -60.5t-97 -25.5q-86 0 -136.5 56.5t-50.5 148.5v315h86v-303q0 -63 31.5 -99.5t88.5 -36.5q59 0 93.5 41t34.5 100v298h86z" />
    <glyph glyph-name="iishort-cy.loclBGR" unicode="&#xe1e9;" 
d="M500 510v-510h-81v76q-16 -35 -55 -60.5t-97 -25.5q-86 0 -136.5 56.5t-50.5 148.5v315h86v-303q0 -63 31.5 -99.5t88.5 -36.5q59 0 93.5 41t34.5 100v298h86zM451 744q0 -70 -42.5 -108t-114.5 -38t-114.5 38t-42.5 108h69q0 -38 23.5 -60t64.5 -22q40 0 64.5 22
t24.5 60h68z" />
    <glyph glyph-name="iigrave-cy.loclBGR" unicode="&#xe1ea;" 
d="M500 510v-510h-81v76q-16 -35 -55 -60.5t-97 -25.5q-86 0 -136.5 56.5t-50.5 148.5v315h86v-303q0 -63 31.5 -99.5t88.5 -36.5q59 0 93.5 41t34.5 100v298h86zM126 786h99l102 -191h-68z" />
    <glyph glyph-name="ka-cy.loclBGR" unicode="&#xe1eb;" horiz-adv-x="512" 
d="M170 0h-86v777h86v-510l214 243h104l-225 -247l242 -263h-115l-220 243v-243z" />
    <glyph glyph-name="el-cy.loclBGR" unicode="&#xe1ec;" horiz-adv-x="524" 
d="M100 0h-93l220 510h69l221 -510h-92l-164 382z" />
    <glyph glyph-name="pe-cy.loclBGR" unicode="&#xe1ed;" horiz-adv-x="603" 
d="M427 493.5q45 -25.5 70 -73t25 -110.5v-310h-86v299q0 63 -35.5 101.5t-93.5 38.5q-60 0 -98 -40.5t-38 -100.5v-298h-87v510h82v-77q20 38 61 62t98 24t102 -25.5z" />
    <glyph glyph-name="te-cy.loclBGR" unicode="&#xe1ee;" horiz-adv-x="929" 
d="M758 493q43 -26 67 -73.5t24 -108.5v-311h-86v299q0 64 -33 102t-90 38q-55 0 -89.5 -34.5t-39.5 -88.5v-6v-310h-88v299q0 64 -33 102t-87 38q-59 0 -95.5 -40.5t-36.5 -100.5v-298h-87v510h82v-77q20 38 59.5 62t95.5 24t100 -26.5t67 -74.5q23 46 67.5 73.5
t103.5 27.5q56 0 99 -26z" />
    <glyph glyph-name="tse-cy.loclBGR" unicode="&#xe1ef;" horiz-adv-x="616" 
d="M500 80h82v-230h-76v150h-87v76q-16 -35 -55 -60.5t-97 -25.5q-86 0 -136.5 56.5t-50.5 148.5v315h86v-303q0 -63 31.5 -99.5t88.5 -36.5q59 0 93.5 41t34.5 100v298h86v-430z" />
    <glyph glyph-name="sha-cy.loclBGR" unicode="&#xe1f0;" horiz-adv-x="929" 
d="M758 510h87v-510h-82v77q-20 -38 -59.5 -62t-95.5 -24t-100 26.5t-67 74.5q-23 -46 -67.5 -73.5t-103.5 -27.5q-56 0 -99 26t-67 73.5t-24 108.5v311h86v-299q0 -64 33 -102t90 -38q55 0 89.5 34.5t39.5 88.5v6v310h88v-299q0 -64 33 -102t87 -38q59 0 95.5 40.5
t36.5 100.5v298z" />
    <glyph glyph-name="shcha-cy.loclBGR" unicode="&#xe1f1;" horiz-adv-x="961" 
d="M845 80h82v-230h-76v150h-88v77q-20 -38 -59.5 -62t-95.5 -24t-100 26.5t-67 74.5q-23 -46 -67.5 -73.5t-103.5 -27.5q-56 0 -99 26t-67 73.5t-24 108.5v311h86v-299q0 -64 33 -102t90 -38q55 0 89.5 34.5t39.5 88.5v6v310h88v-299q0 -64 33 -102t87 -38q59 0 95.5 40.5
t36.5 100.5v298h87v-430z" />
    <glyph glyph-name="softsign-cy.loclBGR" unicode="&#xe1f2;" horiz-adv-x="535" 
d="M84 0v510h86v-183h158q79 0 129 -43.5t50 -120.5q0 -76 -51 -119.5t-133 -43.5h-239zM320 74q47 0 74.5 22.5t27.5 66.5t-27.5 67t-74.5 23h-150v-179h150z" />
    </font>
</defs>
</svg>
