<svg width="17" height="14" viewBox="0 0 17 14" fill="none" xmlns="http://www.w3.org/2000/svg">
<g id="Frame" clip-path="url(#clip0_51_78)">
<g id="Group">
<path id="Vector" d="M10.6599 1.12076L16.26 6.71968C16.3359 6.79196 16.3963 6.8789 16.4376 6.97522C16.4788 7.07155 16.5001 7.17525 16.5001 7.28005C16.5001 7.38484 16.4788 7.48855 16.4376 7.58487C16.3963 7.6812 16.3359 7.76814 16.26 7.84042L10.6599 13.4393C10.5877 13.5152 10.5009 13.5756 10.4047 13.6168C10.3084 13.6581 10.2048 13.6794 10.1001 13.6794C9.99542 13.6794 9.89182 13.6581 9.79559 13.6168C9.69937 13.5756 9.61253 13.5152 9.54035 13.4393C9.46451 13.3672 9.40412 13.2803 9.36286 13.1841C9.32161 13.0879 9.30033 12.9843 9.30033 12.8796C9.30033 12.7749 9.32161 12.6713 9.36286 12.575C9.40412 12.4788 9.46451 12.392 9.54035 12.3198L13.7797 8.08041H1.30036C0.820384 8.08041 0.5 7.76002 0.5 7.28005C0.5 6.80007 0.820384 6.47969 1.30036 6.47969H13.7797L9.54035 2.2403C9.46211 2.16988 9.40013 2.08329 9.35869 1.98652C9.31725 1.88976 9.29734 1.78515 9.30036 1.67993C9.30036 1.43994 9.37956 1.28035 9.54035 1.12076C9.61253 1.04491 9.69937 0.984532 9.79559 0.943272C9.89182 0.902013 9.99542 0.880737 10.1001 0.880737C10.2048 0.880737 10.3084 0.902013 10.4047 0.943272C10.5009 0.984532 10.5877 1.04491 10.6599 1.12076Z" fill="#00AEEF"/>
</g>
</g>
<defs>
<clipPath id="clip0_51_78">
<rect width="16" height="13" fill="white" transform="translate(0.5 0.780029)"/>
</clipPath>
</defs>
</svg>
