<svg width="183" height="41" viewBox="0 0 183 41" fill="none" xmlns="http://www.w3.org/2000/svg">
<g id="Frame" clip-path="url(#clip0_1_687)">
<g id="Group">
<g id="Clip path group">
<mask id="mask0_1_687" style="mask-type:luminance" maskUnits="userSpaceOnUse" x="1" y="0" width="182" height="41">
<g id="b290f575-40bd-4c29-b19c-ded35374c9f9_comp-ktjxmlim">
<path id="Vector" d="M182.964 0.723877V40.5274H1.021V0.723877H182.964Z" fill="white"/>
</g>
</mask>
<g mask="url(#mask0_1_687)">
<g id="Group_2">
<path id="Vector_2" d="M21.1712 23.61C21.2292 24.258 21.1376 24.9106 20.9036 25.5177C20.6696 26.1247 20.2994 26.6699 19.8214 27.1113C15.4973 31.1379 10.4699 34.3352 4.98965 36.5439C4.48859 36.7433 3.96564 36.8827 3.43176 36.959C3.25304 36.997 3.06795 36.9931 2.89095 36.9478C2.71394 36.9025 2.54979 36.8169 2.41132 36.6977C2.27285 36.5785 2.16379 36.4289 2.09266 36.2606C2.02152 36.0923 1.99023 35.9098 2.00124 35.7274C2.0193 35.4744 2.07172 35.2249 2.15703 34.986C3.60234 30.8468 8.54892 21.86 10.6549 18.1517C13.2874 13.5167 20.2069 2.34769 21.2531 1.09456C21.3052 1.02801 21.3781 0.980861 21.4601 0.960657C21.5422 0.940452 21.6287 0.948362 21.7057 0.983119C21.8763 1.07295 22.0093 1.17643 21.8387 1.79163C20.9336 5.10641 19.6145 12.3159 20.979 22.1579C21.053 22.6764 21.1189 23.1358 21.1564 23.5736" fill="#00ADEE"/>
<path id="Vector_3" d="M22.8394 28.3418C23.3719 27.9682 23.983 27.7219 24.6257 27.6217C25.2685 27.5216 25.9256 27.5703 26.5465 27.7641C32.1925 29.4886 37.4725 32.2387 42.122 35.8765C42.545 36.2109 42.9248 36.5941 43.2557 37.0194C43.3781 37.1548 43.4675 37.3167 43.517 37.4925C43.5665 37.6682 43.5748 37.853 43.5411 38.0324C43.5074 38.2118 43.4327 38.381 43.3229 38.5268C43.213 38.6726 43.0709 38.7911 42.9077 38.8729C42.673 38.9848 42.4232 39.0622 42.1663 39.1026C37.8565 39.9191 27.5995 40.134 23.3352 40.1636C18.0043 40.1636 4.87707 39.7929 3.31236 39.4961C3.22898 39.4858 3.15173 39.447 3.09369 39.3863C3.03565 39.3256 3.00042 39.2466 2.99396 39.1629C2.99396 38.9696 2.99396 38.799 3.62394 38.6364C6.94667 37.7676 13.8435 35.2989 21.6898 29.2026C22.098 28.8842 22.4312 28.5943 22.8314 28.3418" fill="#00ADEE"/>
<path id="Vector_4" d="M26.095 24.5232C25.5064 24.2496 24.9883 23.8446 24.5808 23.3393C24.1733 22.834 23.8872 22.2419 23.7446 21.6087C22.4235 15.8545 22.1722 9.90646 23.0031 4.06139C23.0794 3.52751 23.2188 3.00457 23.4182 2.5035C23.4747 2.33005 23.5705 2.17198 23.6981 2.04159C23.8257 1.91119 23.9817 1.81199 24.1539 1.7517C24.3261 1.69141 24.5098 1.67165 24.6909 1.69396C24.872 1.71627 25.0454 1.78006 25.1978 1.88034C25.4048 2.02362 25.5936 2.19078 25.7619 2.37728C28.6161 5.70797 33.9197 14.481 36.0849 18.1517C38.7844 22.7572 44.9842 34.3345 45.5334 35.8469C45.5674 35.9243 45.5734 36.0111 45.5504 36.0924C45.5274 36.1738 45.4767 36.2445 45.4072 36.2926C45.2434 36.4041 45.0808 36.4632 44.6658 36.0106C42.2482 33.5703 36.6637 28.8318 27.4608 25.0792C26.9775 24.8859 26.5476 24.7153 26.1394 24.522" fill="#00ADEE"/>
<path id="Vector_5" d="M20.7914 22.7641C20.9768 24.6404 21.0723 25.6183 19.5451 27.2137C16.6243 29.9514 13.388 32.3315 9.90438 34.3038C8.057 35.3912 6.1279 36.3333 4.13451 37.1217C2.82906 37.5891 1.73854 37.7892 1.16656 36.8476C1.03458 36.5908 0.965729 36.3063 0.965729 36.0175C0.965729 35.7288 1.03458 35.4442 1.16656 35.1874C2.57662 31.3598 6.65556 24.2105 9.32557 19.5608L10.1636 18.0768C14.2494 11.031 19.6634 2.40693 20.7243 1.01961C20.8801 0.819476 21.1621 0.581812 21.4214 0.730778C21.504 0.792767 21.5659 0.878293 21.599 0.976118C21.632 1.07394 21.6348 1.17949 21.6067 1.27888C21.6067 1.31641 21.5328 1.56885 21.5101 1.66551C19.76 8.78404 19.9454 15.7547 20.7687 22.7266" fill="#00ADEE"/>
<path id="Vector_6" d="M26.7625 24.9599C25.042 24.1753 24.1448 23.7659 23.5217 21.6451C22.6064 17.7569 22.1582 13.7734 22.1867 9.77901C22.1719 7.63549 22.3208 5.49197 22.6324 3.3712C22.8769 2.00662 23.2556 0.960449 24.345 0.960449C24.6322 0.977024 24.9115 1.06102 25.1602 1.20563C25.409 1.35025 25.6201 1.55142 25.7766 1.79284C28.3875 4.93704 32.5404 12.0351 35.24 16.6258C35.522 17.0999 35.8028 17.5901 36.0848 18.1086C40.149 25.1691 44.9102 34.1719 45.5709 35.7889C45.6676 36.0186 45.7335 36.3825 45.4743 36.5303C45.3782 36.57 45.2724 36.5799 45.1707 36.5588C45.0689 36.5377 44.9758 36.4866 44.9034 36.4121L44.6214 36.1448C39.3337 31.0573 33.1931 27.7345 26.7625 24.9599Z" fill="#00ADEE"/>
<path id="Vector_7" d="M21.8751 29.0241C23.4102 27.9267 24.2108 27.3559 26.3623 27.8756C30.1925 29.0341 33.8701 30.6475 37.3164 32.6811C39.1809 33.7385 40.9609 34.9383 42.6405 36.27C43.7015 37.1604 44.4201 38.0132 43.872 38.9548C43.7146 39.1964 43.5019 39.3971 43.2516 39.5402C43.0013 39.6834 42.7205 39.7649 42.4324 39.7781C38.4137 40.4672 30.1888 40.5195 24.834 40.5195H23.151C14.9931 40.5195 4.82476 40.126 3.12586 39.8963C2.87569 39.8963 2.53455 39.7405 2.53455 39.4369C2.54799 39.3349 2.59185 39.2394 2.66041 39.1627C2.72898 39.086 2.81906 39.0318 2.9189 39.0071L3.29757 38.8956C10.3433 36.8556 16.2906 33.1997 21.9126 29.0173" fill="#00ADEE"/>
<path id="Vector_8" d="M56.4795 24.3971L57.5769 23.2986L54.5214 20.2442C54.3739 20.109 54.1798 20.0359 53.9797 20.0402C53.7796 20.0446 53.5889 20.126 53.4473 20.2675C53.3058 20.4091 53.2244 20.5998 53.22 20.7999C53.2157 21 53.2888 21.194 53.424 21.3416L56.4795 24.3971Z" fill="white"/>
<path id="Vector_9" d="M59.7659 25.4865L63.9404 21.3041C64.0167 21.2345 64.0776 21.1497 64.1193 21.0553C64.161 20.9608 64.1826 20.8587 64.1826 20.7554C64.1826 20.6521 64.161 20.55 64.1193 20.4555C64.0776 20.361 64.0167 20.2763 63.9404 20.2067C63.7935 20.0638 63.5966 19.9839 63.3917 19.9839C63.1868 19.9839 62.9899 20.0638 62.843 20.2067L58.6674 24.3891L57.5701 25.4865L53.4536 29.6029C53.3784 29.6725 53.3184 29.7568 53.2773 29.8506C53.2363 29.9445 53.2151 30.0458 53.2151 30.1482C53.2151 30.2506 53.2363 30.3519 53.2773 30.4458C53.3184 30.5396 53.3784 30.6239 53.4536 30.6935C53.5231 30.7701 53.6079 30.8314 53.7025 30.8733C53.7971 30.9152 53.8994 30.9369 54.0029 30.9369C54.1063 30.9369 54.2086 30.9152 54.3032 30.8733C54.3978 30.8314 54.4826 30.7701 54.5521 30.6935L58.6686 26.585L62.8135 30.7299C62.9602 30.873 63.1571 30.9531 63.3621 30.9531C63.5671 30.9531 63.764 30.873 63.9108 30.7299C63.9871 30.6603 64.0481 30.5755 64.0898 30.4811C64.1315 30.3866 64.153 30.2845 64.153 30.1812C64.153 30.0779 64.1315 29.9758 64.0898 29.8813C64.0481 29.7868 63.9871 29.7021 63.9108 29.6325L59.7659 25.4865Z" fill="white"/>
<path id="Vector_10" d="M81.4285 19.5164C81.5604 19.9633 81.7526 20.3897 81.9993 20.7855C82.229 21.1414 82.5406 21.586 82.9341 22.1125C83.3321 22.6163 83.7017 23.1439 84.0394 23.6932C84.3532 24.2185 84.6023 24.7814 84.7808 25.3682C84.9946 26.1104 85.0969 26.8804 85.0844 27.6527C85.1056 28.7156 84.8501 29.7658 84.343 30.7002C83.8976 31.5175 83.2218 32.1858 82.3996 32.622C81.5462 33.0582 80.5992 33.2795 79.6409 33.2668C78.6895 33.2818 77.7492 33.0598 76.9049 32.6209C76.0916 32.1873 75.4234 31.5247 74.9832 30.715C74.493 29.7759 74.253 28.7263 74.2861 27.6675C74.2952 26.917 74.3884 26.171 74.5681 25.4421L77.5349 25.5467C77.3969 26.1676 77.3271 26.8017 77.3268 27.4378C77.2826 28.2533 77.501 29.0616 77.95 29.7439C78.1431 30.02 78.4027 30.2429 78.7049 30.392C79.007 30.541 79.3418 30.6115 79.6784 30.5968C79.9995 30.613 80.32 30.5545 80.6146 30.4259C80.9092 30.2972 81.1699 30.1019 81.3762 29.8553C81.8311 29.206 82.0562 28.4225 82.0141 27.6299C82.032 26.9467 81.8898 26.2687 81.5991 25.6502C81.2375 24.967 80.813 24.3191 80.3312 23.7148C79.9156 23.1907 79.5339 22.6408 79.1883 22.0682C78.8609 21.5194 78.6113 20.9277 78.4469 20.3101C78.2408 19.5217 78.1557 18.7066 78.1945 17.8926H81.2136C81.2068 18.4418 81.2818 18.9888 81.4353 19.5164" fill="white"/>
<path id="Vector_11" d="M89.7274 32.6358C88.9266 32.2544 88.2559 31.6458 87.7988 30.8857C87.3484 30.1145 87.1175 29.2349 87.1313 28.3419C87.1273 27.9178 87.1746 27.4947 87.2723 27.0819L90.2391 27.2002C90.18 27.4805 90.1525 27.7666 90.1572 28.0531C90.1358 28.409 90.1859 28.7656 90.3044 29.1019C90.423 29.4382 90.6076 29.7474 90.8475 30.0112C91.0861 30.2551 91.3727 30.4469 91.6892 30.5745C92.0057 30.7021 92.3452 30.7628 92.6862 30.7527C93.3484 30.7829 93.9959 30.5513 94.4886 30.1079C94.7167 29.8868 94.8949 29.6196 95.0112 29.324C95.1275 29.0284 95.1792 28.7114 95.1629 28.3942C95.1805 28.0924 95.1327 27.7904 95.0228 27.5088C94.9129 27.2271 94.7435 26.9726 94.5261 26.7624C94.0224 26.3492 93.3808 26.1424 92.7306 26.1836H91.9369V23.6944H92.9376C93.4686 23.724 93.9928 23.5693 94.4215 23.2555C94.5954 23.1076 94.7328 22.9216 94.8229 22.7119C94.913 22.5022 94.9535 22.2746 94.9412 22.0467C94.9454 21.8106 94.8984 21.5763 94.8036 21.36C94.7088 21.1437 94.5684 20.9505 94.392 20.7935C93.9816 20.435 93.454 20.2396 92.9091 20.2443L93.0649 17.7676C93.9555 17.7475 94.8388 17.9327 95.6462 18.3089C96.3494 18.629 96.9461 19.144 97.3656 19.7928C97.7784 20.4467 97.991 21.2075 97.974 21.9807C97.9836 22.649 97.8063 23.3067 97.4622 23.8798C97.104 24.4483 96.5639 24.8804 95.9271 25.1022C96.6218 25.3241 97.2104 25.7941 97.5805 26.4224C98.0001 27.1047 98.2139 27.8916 98.1968 28.6921C98.211 29.5269 97.9844 30.348 97.5441 31.0574C97.0775 31.777 96.4129 32.3464 95.6303 32.6972C94.7004 33.1219 93.6854 33.3273 92.6635 33.2976C91.6391 33.3244 90.6229 33.1086 89.6978 32.6676" fill="white"/>
<path id="Vector_12" d="M107.556 19.5164C107.685 19.9631 107.875 20.3901 108.12 20.7855C108.349 21.1414 108.661 21.586 109.054 22.1125C109.452 22.6163 109.822 23.1439 110.16 23.6932C110.477 24.2163 110.726 24.7803 110.901 25.3682C111.117 26.1096 111.221 26.8806 111.205 27.6527C111.226 28.7157 110.97 29.7658 110.463 30.7003C110.015 31.5177 109.337 32.1858 108.513 32.622C107.66 33.0589 106.713 33.2803 105.754 33.2668C104.802 33.2822 103.862 33.0602 103.017 32.6209C102.206 32.187 101.541 31.5242 101.105 30.715C100.612 29.7765 100.369 28.727 100.399 27.6675C100.407 26.917 100.502 26.171 100.681 25.4421L103.647 25.5456C103.515 26.1677 103.448 26.8018 103.447 27.4378C103.407 28.2427 103.623 29.0395 104.063 29.7144C104.258 29.99 104.519 30.2124 104.823 30.3614C105.126 30.5103 105.461 30.5811 105.799 30.5672C106.119 30.5841 106.438 30.5259 106.732 30.3971C107.026 30.2684 107.285 30.0727 107.49 29.8258C107.951 29.1788 108.175 28.393 108.126 27.6004C108.148 26.9168 108.006 26.238 107.711 25.6206C107.35 24.9375 106.925 24.2895 106.443 23.6852C106.031 23.1594 105.649 22.6096 105.302 22.0386C104.98 21.4867 104.731 20.8959 104.56 20.2806C104.358 19.4915 104.273 18.6769 104.308 17.863H107.333C107.327 18.4123 107.402 18.9592 107.557 19.4869" fill="white"/>
<path id="Vector_13" d="M122.344 31.4722C121.522 31.132 120.637 30.97 119.748 30.9969H114.734V28.7727H116.255C115.297 28.2204 114.507 27.4177 113.971 26.4506C113.397 25.4327 113.1 24.2818 113.111 23.1131C113.078 22.0734 113.295 21.0411 113.742 20.1019C114.112 19.3514 114.699 18.726 115.425 18.3075C116.139 17.9132 116.944 17.7114 117.76 17.7219C118.495 17.7154 119.22 17.8859 119.874 18.2188C120.502 18.5166 121.008 19.0224 121.306 19.6505C121.639 19.0341 122.158 18.5383 122.789 18.2336C123.466 17.8891 124.217 17.7135 124.977 17.7219C125.843 17.7075 126.699 17.9171 127.461 18.3303C128.191 18.7222 128.797 19.3102 129.211 20.028C129.646 20.8013 129.866 21.6769 129.849 22.5638C129.864 23.4316 129.638 24.2865 129.197 25.0337C128.769 25.7528 128.147 26.3366 127.402 26.7178C126.603 27.124 125.717 27.3278 124.821 27.3114C123.924 27.3279 123.036 27.127 122.233 26.7258C121.493 26.3551 120.868 25.7912 120.423 25.094C119.981 24.3771 119.755 23.5481 119.771 22.706V22.2978C119.797 21.7658 119.637 21.2414 119.318 20.8149C119.174 20.632 118.989 20.4856 118.777 20.3876C118.566 20.2896 118.334 20.2428 118.101 20.2509C117.828 20.2414 117.558 20.301 117.314 20.4243C117.07 20.5476 116.861 20.7304 116.707 20.9559C116.316 21.6125 116.138 22.3738 116.196 23.1358C116.147 23.8392 116.245 24.545 116.485 25.208C116.725 25.8709 117.102 26.4763 117.59 26.9851C118.525 27.8724 119.738 28.4095 121.024 28.5054L121.691 28.5714C122.984 28.6555 124.22 29.1315 125.236 29.936C125.685 30.3298 126.048 30.8116 126.303 31.3514C126.558 31.8912 126.7 32.4777 126.72 33.0745H123.656C123.602 32.7233 123.458 32.3921 123.239 32.1127C123.019 31.8333 122.732 31.6151 122.403 31.4791L122.344 31.4722ZM126.334 24.1593C126.729 23.701 126.934 23.1097 126.905 22.5059C126.934 21.8866 126.721 21.2804 126.312 20.8149C126.124 20.6105 125.894 20.4494 125.638 20.343C125.382 20.2365 125.106 20.1872 124.829 20.1986C124.552 20.1906 124.277 20.2414 124.021 20.3476C123.765 20.4539 123.535 20.6131 123.345 20.8149C122.971 21.282 122.767 21.8626 122.767 22.4609C122.767 23.0593 122.971 23.6398 123.345 24.107C123.533 24.3114 123.763 24.4733 124.019 24.5822C124.275 24.691 124.551 24.7441 124.829 24.7381C125.106 24.7483 125.382 24.6986 125.638 24.5922C125.894 24.4858 126.124 24.3253 126.312 24.1217" fill="white"/>
<path id="Vector_14" d="M134.21 32.6368C133.429 32.2515 132.773 31.6521 132.319 30.9084C131.867 30.1434 131.636 29.2679 131.652 28.3793C131.655 27.8153 131.745 27.2547 131.918 26.718L134.817 26.8362C134.73 27.2513 134.681 27.6732 134.67 28.0985C134.637 28.767 134.862 29.4226 135.3 29.9293C135.525 30.1602 135.797 30.3405 136.098 30.4582C136.398 30.5758 136.721 30.6281 137.043 30.6116C137.369 30.6385 137.698 30.5931 138.005 30.4784C138.312 30.3637 138.59 30.1826 138.819 29.948C139.048 29.7135 139.222 29.4313 139.329 29.1216C139.436 28.8119 139.474 28.4823 139.439 28.1565V22.5356C139.438 22.101 139.31 21.6763 139.071 21.3134C138.832 20.9504 138.492 20.665 138.094 20.4921C137.695 20.3203 137.254 20.2691 136.826 20.3449C136.398 20.4207 136.002 20.6201 135.686 20.9185C135.49 21.1299 135.339 21.3791 135.243 21.6509C135.145 21.922 135.104 22.2104 135.122 22.498C135.119 22.7844 135.146 23.0704 135.204 23.3509L132.178 23.4328C132.098 22.9901 132.058 22.5409 132.059 22.0909C132.044 21.2642 132.285 20.4532 132.749 19.7689C133.219 19.0904 133.869 18.556 134.625 18.2258C135.459 17.8601 136.362 17.6782 137.273 17.6925C138.191 17.6773 139.099 17.8755 139.928 18.2713C140.692 18.6369 141.333 19.2164 141.775 19.9395C142.232 20.7218 142.464 21.6145 142.442 22.5208V28.1565C142.465 29.098 142.24 30.0289 141.789 30.856C141.362 31.6235 140.713 32.2442 139.928 32.6368C139.026 33.0777 138.031 33.2939 137.028 33.2668C136.051 33.2895 135.084 33.0735 134.21 32.6368Z" fill="white"/>
<path id="Vector_15" d="M147.722 32.6209C146.928 32.2177 146.266 31.5948 145.816 30.8264C145.367 30.0228 145.139 29.1144 145.156 28.1939C145.142 27.2775 145.359 26.3721 145.786 25.5615C146.196 24.8023 146.817 24.1785 147.574 23.7659C148.389 23.3275 149.304 23.108 150.229 23.1291C150.81 23.1233 151.387 23.2315 151.927 23.4475C152.405 23.6385 152.831 23.9388 153.173 24.3231V22.2979C153.179 21.9964 153.115 21.6976 152.986 21.4249C152.858 21.1521 152.668 20.9127 152.432 20.7252C151.926 20.3665 151.323 20.1702 150.703 20.1622C150.083 20.1543 149.475 20.3352 148.96 20.6808C148.754 20.8285 148.584 21.0218 148.465 21.2457C148.345 21.4695 148.279 21.7179 148.271 21.9715L145.193 21.868C145.19 21.0786 145.452 20.311 145.935 19.687C146.444 19.0242 147.123 18.5118 147.9 18.2041C148.778 17.8457 149.719 17.6666 150.667 17.6776C151.635 17.6641 152.593 17.8693 153.47 18.278C154.27 18.6443 154.95 19.2273 155.435 19.961C155.923 20.6888 156.182 21.5473 156.176 22.4241V28.0825C156.207 28.7827 156.091 29.4816 155.836 30.1344C155.58 30.7871 155.191 31.3792 154.694 31.8726C154.145 32.3611 153.506 32.7363 152.812 32.9767C152.118 33.2172 151.384 33.318 150.651 33.2736C149.625 33.3035 148.607 33.0821 147.685 32.6288L147.722 32.6209ZM152.447 30.0623C152.673 29.8517 152.851 29.5953 152.97 29.3101C153.089 29.0249 153.145 28.7177 153.136 28.4089V28.0222C153.144 27.7104 153.087 27.4002 152.969 27.1117C152.85 26.8232 152.672 26.5628 152.447 26.3472C151.955 25.9127 151.315 25.6843 150.659 25.7093C150.319 25.6887 149.977 25.738 149.657 25.8542C149.336 25.9703 149.043 26.1508 148.794 26.3846C148.546 26.6184 148.348 26.9005 148.213 27.2137C148.077 27.5268 148.008 27.8642 148.008 28.2053C148.008 28.5464 148.077 28.8839 148.213 29.197C148.348 29.5101 148.546 29.7922 148.794 30.026C149.043 30.2598 149.336 30.4403 149.657 30.5565C149.977 30.6726 150.319 30.7219 150.659 30.7014C151.315 30.7261 151.955 30.4973 152.447 30.0623Z" fill="white"/>
<path id="Vector_16" d="M159.388 29.5653C159.179 28.2759 159.08 26.9711 159.091 25.6649V23.3281C159.063 22.2729 159.3 21.2274 159.78 20.2874C160.208 19.4653 160.869 18.7871 161.679 18.3372C162.524 17.8978 163.463 17.6685 164.416 17.6685C165.368 17.6685 166.307 17.8978 167.152 18.3372C167.96 18.7837 168.621 19.4568 169.051 20.2737C169.531 21.2062 169.768 22.2433 169.74 23.2917V25.6649C169.751 26.9786 169.651 28.2909 169.443 29.5881C169.25 30.7667 168.97 31.9294 168.605 33.0666H165.684C166.387 30.7025 166.742 28.2497 166.737 25.7832V23.4475C166.792 22.6316 166.576 21.8205 166.122 21.1402C165.919 20.8857 165.661 20.6802 165.367 20.5388C165.074 20.3975 164.752 20.324 164.426 20.3238C164.101 20.3238 163.779 20.3972 163.486 20.5385C163.193 20.6799 162.935 20.8856 162.732 21.1402C162.28 21.8296 162.065 22.6467 162.117 23.4691V25.7832C162.112 28.2493 162.467 30.7028 163.17 33.0666H160.203C159.843 31.9204 159.563 30.7505 159.365 29.5653" fill="white"/>
<path id="Vector_17" d="M179.338 19.5164C179.467 19.9633 179.657 20.3897 179.902 20.7855C180.132 21.1414 180.443 21.586 180.837 22.1125C181.236 22.6163 181.604 23.1439 181.941 23.6932C182.639 24.8942 182.993 26.264 182.964 27.6527C182.986 28.7157 182.73 29.7659 182.223 30.7002C181.779 31.5189 181.103 32.1876 180.279 32.622C179.426 33.0589 178.479 33.2803 177.521 33.2668C176.569 33.2819 175.629 33.0599 174.785 32.6209C173.972 32.1872 173.304 31.5245 172.864 30.715C172.374 29.776 172.134 28.7264 172.167 27.6675C172.175 26.917 172.269 26.171 172.448 25.4421L175.415 25.5467C175.28 26.1682 175.211 26.802 175.208 27.4378C175.164 28.2532 175.381 29.0613 175.83 29.7439C176.024 30.0207 176.285 30.244 176.588 30.3931C176.891 30.5422 177.227 30.6122 177.565 30.5968C177.885 30.6121 178.204 30.5532 178.498 30.4246C178.791 30.2959 179.05 30.1011 179.256 29.8553C179.714 29.2072 179.939 28.4225 179.894 27.6299C179.916 26.9464 179.773 26.2675 179.479 25.6502C179.117 24.967 178.693 24.3191 178.211 23.7148C177.796 23.1909 177.414 22.6409 177.069 22.0682C176.748 21.5163 176.498 20.9255 176.327 20.3101C176.121 19.5217 176.036 18.7065 176.075 17.8926H179.1C179.094 18.4419 179.17 18.989 179.323 19.5164" fill="white"/>
</g>
</g>
</g>
</g>
</g>
<defs>
<clipPath id="clip0_1_687">
<rect width="182" height="40" fill="white" transform="translate(0.965271 0.601807)"/>
</clipPath>
</defs>
</svg>
